<svg xmlns="http://www.w3.org/2000/svg" xmlns:xlink="http://www.w3.org/1999/xlink" width="168" zoomAndPan="magnify" viewBox="0 0 126 30.000001" height="40" preserveAspectRatio="xMidYMid meet" version="1.2"><defs><clipPath id="7a77f54a34"><path d="M 7 4.046875 L 14 4.046875 L 14 15 L 7 15 Z M 7 4.046875 "/></clipPath><clipPath id="0c11bbdbaf"><path d="M 2.074219 8 L 14 8 L 14 15 L 2.074219 15 Z M 2.074219 8 "/></clipPath><clipPath id="862329ae0b"><path d="M 10 4.046875 L 17 4.046875 L 17 15 L 10 15 Z M 10 4.046875 "/></clipPath><clipPath id="334359bc82"><path d="M 13 4.046875 L 21 4.046875 L 21 15 L 13 15 Z M 13 4.046875 "/></clipPath><clipPath id="98e18668bc"><path d="M 13 11 L 33.925781 11 L 33.925781 15 L 13 15 Z M 13 11 "/></clipPath><clipPath id="40e955ea73"><path d="M 13 14 L 33.925781 14 L 33.925781 18 L 13 18 Z M 13 14 "/></clipPath><clipPath id="55d616313e"><path d="M 2.074219 14 L 14 14 L 14 21 L 2.074219 21 Z M 2.074219 14 "/></clipPath><clipPath id="83b9247a7c"><path d="M 10 14 L 17 14 L 17 25.09375 L 10 25.09375 Z M 10 14 "/></clipPath><clipPath id="ca3f7325eb"><path d="M 2.074219 14 L 14 14 L 14 18 L 2.074219 18 Z M 2.074219 14 "/></clipPath><clipPath id="9c2f4b3dee"><path d="M 2.074219 11 L 14 11 L 14 15 L 2.074219 15 Z M 2.074219 11 "/></clipPath><clipPath id="699f6cbce5"><path d="M 11 4.046875 L 17 4.046875 L 17 15 L 11 15 Z M 11 4.046875 "/></clipPath><clipPath id="442f79dd25"><path d="M 13 4.046875 L 19 4.046875 L 19 15 L 13 15 Z M 13 4.046875 "/></clipPath><clipPath id="a10a5c5ffc"><path d="M 34 5 L 123.964844 5 L 123.964844 23 L 34 23 Z M 34 5 "/></clipPath><clipPath id="5357f0ee1a"><rect x="0" width="90" y="0" height="18"/></clipPath></defs><g id="aa97e4e8fa"><g clip-rule="nonzero" clip-path="url(#7a77f54a34)"><path style=" stroke:none;fill-rule:nonzero;fill:#1374b1;fill-opacity:1;" d="M 10.699219 4.199219 C 10.574219 4.230469 10.082031 4.335938 9.957031 4.367188 C 8.949219 4.632812 8.003906 5.042969 7.117188 5.589844 L 13.746094 14.542969 Z M 10.699219 4.199219 "/></g><path style=" stroke:none;fill-rule:nonzero;fill:#40a6dd;fill-opacity:1;" d="M 7.117188 5.589844 C 5.984375 6.296875 5.015625 7.1875 4.210938 8.261719 C 4.097656 8.414062 3.984375 8.585938 3.871094 8.726562 L 13.746094 14.542969 Z M 7.117188 5.589844 "/><g clip-rule="nonzero" clip-path="url(#0c11bbdbaf)"><path style=" stroke:none;fill-rule:nonzero;fill:#2956a0;fill-opacity:1;" d="M 13.746094 14.542969 L 3.871094 8.730469 C 3.230469 9.691406 2.757812 10.730469 2.449219 11.851562 C 2.242188 12.726562 2.121094 13.613281 2.085938 14.515625 Z M 13.746094 14.542969 "/></g><g clip-rule="nonzero" clip-path="url(#862329ae0b)"><path style=" stroke:none;fill-rule:nonzero;fill:#32b099;fill-opacity:1;" d="M 13.679688 4.078125 C 12.679688 4.011719 11.6875 4.050781 10.699219 4.199219 L 13.746094 14.542969 L 16.566406 4.71875 C 15.621094 4.425781 14.660156 4.210938 13.679688 4.078125 "/></g><path style=" stroke:none;fill-rule:nonzero;fill:#238044;fill-opacity:1;" d="M 13.746094 14.542969 L 23.550781 7.851562 L 21.644531 6.847656 L 20.375 6.230469 Z M 13.746094 14.542969 "/><g clip-rule="nonzero" clip-path="url(#334359bc82)"><path style=" stroke:none;fill-rule:nonzero;fill:#269595;fill-opacity:1;" d="M 20.375 6.230469 C 19.851562 5.960938 19.316406 5.722656 18.769531 5.511719 C 17.804688 5.113281 17.480469 5.023438 16.574219 4.71875 L 13.746094 14.542969 Z M 20.375 6.230469 "/></g><path style=" stroke:none;fill-rule:nonzero;fill:#319b52;fill-opacity:1;" d="M 29.019531 11.148438 C 26.976562 9.816406 25.164062 8.730469 23.550781 7.847656 C 23.230469 7.671875 22.902344 7.507812 22.597656 7.347656 L 13.753906 14.542969 Z M 29.019531 11.148438 "/><g clip-rule="nonzero" clip-path="url(#98e18668bc)"><path style=" stroke:none;fill-rule:nonzero;fill:#ffea00;fill-opacity:1;" d="M 33.925781 14.527344 C 32.449219 13.457031 31.0625 12.492188 29.761719 11.636719 L 29.019531 11.148438 L 13.742188 14.542969 Z M 33.925781 14.527344 "/></g><path style=" stroke:none;fill-rule:nonzero;fill:#89bd54;fill-opacity:1;" d="M 29.019531 11.148438 L 28.71875 10.953125 L 28.191406 10.617188 L 27.578125 10.226562 L 26.855469 9.773438 L 25.9375 9.21875 L 25.113281 8.730469 L 13.746094 14.542969 Z M 29.019531 11.148438 "/><path style=" stroke:none;fill-rule:nonzero;fill:#de161f;fill-opacity:1;" d="M 13.746094 14.542969 L 23.550781 21.230469 L 21.644531 22.238281 L 20.382812 22.859375 Z M 13.746094 14.542969 "/><path style=" stroke:none;fill-rule:nonzero;fill:#e85f32;fill-opacity:1;" d="M 29.019531 17.933594 C 27.605469 18.859375 26.316406 19.652344 25.113281 20.355469 C 24.578125 20.664062 24.042969 20.953125 23.5625 21.226562 C 23.242188 21.402344 22.914062 21.570312 22.609375 21.726562 L 13.746094 14.542969 Z M 29.019531 17.933594 "/><g clip-rule="nonzero" clip-path="url(#40e955ea73)"><path style=" stroke:none;fill-rule:nonzero;fill:#f9bc0b;fill-opacity:1;" d="M 33.925781 14.527344 C 32.449219 15.59375 31.0625 16.585938 29.761719 17.449219 L 29.019531 17.9375 L 13.742188 14.542969 Z M 33.925781 14.527344 "/></g><path style=" stroke:none;fill-rule:nonzero;fill:#f29d5a;fill-opacity:1;" d="M 29.019531 17.933594 L 27.929688 18.636719 L 26.855469 19.308594 L 25.917969 19.875 L 25.109375 20.355469 L 13.746094 14.542969 Z M 29.019531 17.933594 "/><path style=" stroke:none;fill-rule:nonzero;fill:#e42175;fill-opacity:1;" d="M 10.710938 24.914062 C 10.582031 24.882812 10.085938 24.78125 9.960938 24.746094 C 8.953125 24.480469 8.007812 24.074219 7.121094 23.523438 L 13.746094 14.542969 Z M 10.710938 24.914062 "/><path style=" stroke:none;fill-rule:nonzero;fill:#772680;fill-opacity:1;" d="M 7.121094 23.511719 C 5.988281 22.804688 5.019531 21.910156 4.214844 20.832031 C 4.101562 20.679688 3.988281 20.523438 3.882812 20.363281 L 13.746094 14.542969 Z M 7.121094 23.511719 "/><g clip-rule="nonzero" clip-path="url(#55d616313e)"><path style=" stroke:none;fill-rule:nonzero;fill:#552673;fill-opacity:1;" d="M 13.746094 14.542969 L 3.871094 20.375 C 3.226562 19.410156 2.75 18.367188 2.445312 17.246094 C 2.238281 16.359375 2.113281 15.464844 2.074219 14.558594 Z M 13.746094 14.542969 "/></g><g clip-rule="nonzero" clip-path="url(#83b9247a7c)"><path style=" stroke:none;fill-rule:nonzero;fill:#d75871;fill-opacity:1;" d="M 13.679688 25.046875 C 13.4375 25.070312 13.105469 25.097656 13.105469 25.097656 L 12.59375 25.097656 C 11.964844 25.085938 11.339844 25.023438 10.71875 24.902344 L 13.746094 14.542969 L 16.25 24.484375 L 16.085938 24.539062 C 15.296875 24.796875 14.496094 24.964844 13.671875 25.046875 "/></g><path style=" stroke:none;fill-rule:nonzero;fill:#e3342a;fill-opacity:1;" d="M 20.390625 22.851562 C 19.859375 23.121094 19.316406 23.363281 18.757812 23.570312 C 17.792969 23.96875 17.148438 24.179688 16.25 24.484375 L 13.746094 14.542969 Z M 20.390625 22.851562 "/><path style=" stroke:none;fill-rule:nonzero;fill:#e54420;fill-opacity:1;" d="M 13.746094 14.542969 L 22.613281 21.726562 C 22.613281 21.542969 22.125 19.335938 22.042969 18.78125 Z M 13.746094 14.542969 "/><path style=" stroke:none;fill-rule:nonzero;fill:#e22923;fill-opacity:1;" d="M 13.746094 14.542969 L 18.8125 20.886719 C 20.125 21.144531 21.714844 21.554688 22.609375 21.726562 Z M 13.746094 14.542969 "/><path style=" stroke:none;fill-rule:nonzero;fill:#e13d8b;fill-opacity:1;" d="M 7.121094 23.507812 L 13.746094 14.542969 L 11.636719 21.722656 Z M 7.121094 23.507812 "/><path style=" stroke:none;fill-rule:nonzero;fill:#b63280;fill-opacity:1;" d="M 13.746094 14.539062 L 7.984375 17.945312 C 7.917969 18.40625 7.433594 22.417969 7.121094 23.511719 L 13.746094 14.53125 "/><g clip-rule="nonzero" clip-path="url(#ca3f7325eb)"><path style=" stroke:none;fill-rule:nonzero;fill:#6d247a;fill-opacity:1;" d="M 2.082031 14.542969 L 13.746094 14.542969 L 7.984375 17.945312 Z M 2.082031 14.542969 "/></g><path style=" stroke:none;fill-rule:nonzero;fill:#e42175;fill-opacity:1;" d="M 11.636719 21.722656 L 13.746094 14.542969 L 16.25 24.484375 Z M 11.636719 21.722656 "/><path style=" stroke:none;fill-rule:nonzero;fill:#d0161a;fill-opacity:1;" d="M 18.8125 20.886719 L 13.746094 14.542969 L 16.25 24.484375 Z M 18.8125 20.886719 "/><path style=" stroke:none;fill-rule:nonzero;fill:#2ba7da;fill-opacity:1;" d="M 7.117188 5.589844 L 13.746094 14.542969 L 11.515625 6.96875 Z M 7.117188 5.589844 "/><path style=" stroke:none;fill-rule:nonzero;fill:#2295bd;fill-opacity:1;" d="M 7.117188 5.589844 C 7.4375 8.054688 8.058594 11.195312 8.058594 11.195312 L 13.746094 14.542969 Z M 7.117188 5.589844 "/><g clip-rule="nonzero" clip-path="url(#9c2f4b3dee)"><path style=" stroke:none;fill-rule:nonzero;fill:#223b7b;fill-opacity:1;" d="M 2.082031 14.542969 L 13.746094 14.542969 L 8.058594 11.195312 Z M 2.082031 14.542969 "/></g><g clip-rule="nonzero" clip-path="url(#699f6cbce5)"><path style=" stroke:none;fill-rule:nonzero;fill:#28a294;fill-opacity:1;" d="M 11.515625 6.96875 L 13.746094 14.542969 L 16.566406 4.71875 Z M 11.515625 6.96875 "/></g><path style=" stroke:none;fill-rule:nonzero;fill:#319b52;fill-opacity:1;" d="M 22.597656 7.347656 L 18.835938 8.164062 L 13.746094 14.542969 Z M 22.597656 7.347656 "/><g clip-rule="nonzero" clip-path="url(#442f79dd25)"><path style=" stroke:none;fill-rule:nonzero;fill:#32b099;fill-opacity:1;" d="M 16.566406 4.71875 L 18.835938 8.164062 L 13.773438 14.519531 Z M 16.566406 4.71875 "/></g><path style=" stroke:none;fill-rule:nonzero;fill:#2fa85f;fill-opacity:1;" d="M 22.597656 7.347656 L 13.746094 14.542969 L 22.226562 10.207031 Z M 22.597656 7.347656 "/><path style=" stroke:none;fill-rule:nonzero;fill:#ffd700;fill-opacity:1;" d="M 25.976562 14.535156 C 26.429688 13.988281 28.570312 11.765625 29.019531 11.148438 L 13.742188 14.542969 Z M 25.976562 14.535156 "/><path style=" stroke:none;fill-rule:nonzero;fill:#6fb556;fill-opacity:1;" d="M 29.019531 11.148438 L 22.226562 10.207031 L 13.746094 14.542969 Z M 29.019531 11.148438 "/><path style=" stroke:none;fill-rule:nonzero;fill:#f5a617;fill-opacity:1;" d="M 25.976562 14.535156 C 26.976562 15.574219 28.515625 17.449219 29.019531 17.9375 L 13.742188 14.542969 Z M 25.976562 14.535156 "/><path style=" stroke:none;fill-rule:nonzero;fill:#ef8d33;fill-opacity:1;" d="M 29.019531 17.933594 L 22.042969 18.78125 L 13.746094 14.542969 Z M 29.019531 17.933594 "/><path style=" stroke:none;fill-rule:nonzero;fill:#ffffff;fill-opacity:1;" d="M 6.167969 19.316406 L 5.746094 19.316406 L 5.746094 20.949219 C 5.75 20.984375 5.734375 21.003906 5.699219 21.003906 L 5.464844 21.003906 C 5.429688 21.003906 5.414062 20.984375 5.414062 20.949219 L 5.414062 19.316406 L 4.996094 19.316406 C 4.960938 19.316406 4.945312 19.300781 4.945312 19.269531 L 4.945312 19.054688 C 4.945312 19.023438 4.960938 19.007812 4.996094 19.007812 L 6.167969 19.007812 C 6.199219 19.003906 6.214844 19.019531 6.21875 19.050781 L 6.21875 19.269531 C 6.21875 19.300781 6.203125 19.316406 6.171875 19.320312 L 6.167969 19.320312 "/><path style=" stroke:none;fill-rule:nonzero;fill:#ffffff;fill-opacity:1;" d="M 7.429688 20.996094 L 7.210938 20.996094 C 7.175781 20.992188 7.160156 20.972656 7.164062 20.941406 L 7.164062 20.878906 C 7.050781 20.96875 6.925781 21.015625 6.785156 21.011719 C 6.671875 21.019531 6.574219 20.980469 6.492188 20.898438 C 6.390625 20.753906 6.351562 20.59375 6.371094 20.414062 L 6.371094 19.542969 C 6.371094 19.503906 6.386719 19.488281 6.421875 19.484375 L 6.640625 19.484375 C 6.675781 19.484375 6.691406 19.503906 6.6875 19.539062 L 6.6875 20.414062 C 6.6875 20.546875 6.6875 20.625 6.742188 20.667969 C 6.785156 20.707031 6.835938 20.722656 6.890625 20.71875 C 6.988281 20.703125 7.078125 20.667969 7.160156 20.609375 L 7.160156 19.542969 C 7.160156 19.507812 7.175781 19.488281 7.207031 19.484375 L 7.429688 19.484375 C 7.460938 19.488281 7.476562 19.507812 7.476562 19.542969 L 7.476562 20.941406 C 7.476562 20.972656 7.460938 20.992188 7.429688 20.996094 "/><path style=" stroke:none;fill-rule:nonzero;fill:#ffffff;fill-opacity:1;" d="M 8.789062 20.996094 L 8.570312 20.996094 C 8.535156 20.992188 8.519531 20.972656 8.519531 20.9375 L 8.519531 20.066406 C 8.519531 19.832031 8.5 19.765625 8.316406 19.765625 C 8.21875 19.773438 8.128906 19.804688 8.050781 19.863281 L 8.050781 20.949219 C 8.050781 20.984375 8.035156 21.003906 8 21.007812 L 7.78125 21.007812 C 7.746094 21.003906 7.730469 20.984375 7.734375 20.949219 L 7.734375 19.539062 C 7.730469 19.503906 7.746094 19.484375 7.78125 19.484375 L 7.988281 19.484375 C 8.023438 19.484375 8.039062 19.503906 8.035156 19.539062 L 8.035156 19.59375 C 8.152344 19.503906 8.28125 19.460938 8.429688 19.46875 C 8.773438 19.46875 8.84375 19.742188 8.84375 20.070312 L 8.84375 20.941406 C 8.84375 20.976562 8.828125 20.996094 8.792969 21 "/><path style=" stroke:none;fill-rule:nonzero;fill:#ffffff;fill-opacity:1;" d="M 9.371094 19.285156 L 9.136719 19.285156 C 9.105469 19.28125 9.089844 19.265625 9.089844 19.230469 L 9.089844 18.996094 C 9.089844 18.964844 9.105469 18.945312 9.136719 18.941406 L 9.371094 18.941406 C 9.40625 18.945312 9.421875 18.960938 9.417969 18.996094 L 9.417969 19.230469 C 9.421875 19.265625 9.40625 19.28125 9.371094 19.285156 M 9.371094 20.996094 L 9.148438 20.996094 C 9.117188 20.988281 9.101562 20.96875 9.105469 20.9375 L 9.105469 19.539062 C 9.101562 19.503906 9.117188 19.488281 9.148438 19.484375 L 9.371094 19.484375 C 9.402344 19.488281 9.421875 19.503906 9.421875 19.539062 L 9.421875 20.9375 C 9.421875 20.96875 9.402344 20.988281 9.371094 20.992188 "/><path style=" stroke:none;fill-rule:nonzero;fill:#ffffff;fill-opacity:1;" d="M 10.109375 21.015625 C 9.964844 21.015625 9.820312 20.996094 9.679688 20.960938 C 9.648438 20.953125 9.632812 20.933594 9.636719 20.898438 L 9.636719 20.742188 C 9.636719 20.714844 9.648438 20.699219 9.675781 20.699219 C 9.792969 20.710938 10.007812 20.726562 10.082031 20.726562 C 10.226562 20.726562 10.25 20.671875 10.25 20.601562 C 10.25 20.53125 10.222656 20.515625 10.144531 20.464844 L 9.816406 20.238281 C 9.683594 20.152344 9.617188 20.027344 9.613281 19.867188 C 9.613281 19.59375 9.769531 19.46875 10.070312 19.46875 C 10.214844 19.464844 10.355469 19.484375 10.496094 19.519531 C 10.53125 19.527344 10.542969 19.546875 10.542969 19.582031 L 10.542969 19.742188 C 10.542969 19.773438 10.527344 19.792969 10.503906 19.792969 C 10.371094 19.773438 10.238281 19.765625 10.105469 19.761719 C 9.992188 19.761719 9.9375 19.789062 9.9375 19.871094 C 9.9375 19.917969 9.976562 19.941406 10.035156 19.980469 L 10.347656 20.195312 C 10.511719 20.28125 10.585938 20.417969 10.578125 20.605469 C 10.582031 20.71875 10.542969 20.820312 10.460938 20.902344 C 10.382812 20.984375 10.289062 21.023438 10.175781 21.027344 C 10.152344 21.027344 10.132812 21.023438 10.109375 21.023438 "/><path style=" stroke:none;fill-rule:nonzero;fill:#ffffff;fill-opacity:1;" d="M 11.066406 19.285156 L 10.839844 19.285156 C 10.808594 19.28125 10.792969 19.265625 10.792969 19.230469 L 10.792969 18.996094 C 10.792969 18.964844 10.808594 18.945312 10.839844 18.941406 L 11.074219 18.941406 C 11.109375 18.945312 11.125 18.964844 11.121094 18.996094 L 11.121094 19.230469 C 11.125 19.265625 11.109375 19.28125 11.074219 19.285156 M 11.074219 20.996094 L 10.839844 20.996094 C 10.804688 20.992188 10.789062 20.972656 10.792969 20.9375 L 10.792969 19.539062 C 10.789062 19.503906 10.804688 19.484375 10.839844 19.484375 L 11.058594 19.484375 C 11.09375 19.484375 11.109375 19.503906 11.109375 19.539062 L 11.109375 20.9375 C 11.109375 20.972656 11.09375 20.988281 11.058594 20.992188 "/><path style=" stroke:none;fill-rule:nonzero;fill:#ffffff;fill-opacity:1;" d="M 12.425781 20.363281 L 11.644531 20.363281 C 11.644531 20.519531 11.703125 20.699219 11.929688 20.699219 C 12.078125 20.699219 12.226562 20.691406 12.375 20.671875 C 12.398438 20.675781 12.414062 20.6875 12.414062 20.714844 L 12.414062 20.890625 C 12.414062 20.9375 12.414062 20.953125 12.367188 20.960938 C 12.210938 20.996094 12.054688 21.011719 11.898438 21.007812 C 11.738281 21.007812 11.601562 20.953125 11.488281 20.839844 C 11.371094 20.722656 11.316406 20.585938 11.316406 20.421875 C 11.3125 20.394531 11.316406 20.363281 11.320312 20.335938 L 11.320312 20.136719 C 11.320312 19.722656 11.527344 19.457031 11.894531 19.457031 C 12.261719 19.457031 12.464844 19.730469 12.464844 20.136719 L 12.464844 20.285156 C 12.464844 20.332031 12.464844 20.355469 12.417969 20.355469 M 12.148438 20.082031 C 12.148438 19.875 12.046875 19.757812 11.898438 19.757812 C 11.75 19.757812 11.628906 19.875 11.628906 20.082031 Z M 12.148438 20.082031 "/><path style=" stroke:none;fill-rule:nonzero;fill:#ffffff;fill-opacity:1;" d="M 14.34375 19.316406 L 13.925781 19.316406 L 13.925781 20.949219 C 13.925781 20.984375 13.910156 21.003906 13.875 21.003906 L 13.640625 21.003906 C 13.605469 21.003906 13.589844 20.984375 13.59375 20.949219 L 13.59375 19.316406 L 13.175781 19.316406 C 13.140625 19.320312 13.125 19.304688 13.125 19.273438 L 13.125 19.058594 C 13.125 19.023438 13.140625 19.007812 13.171875 19.007812 L 14.34375 19.007812 C 14.375 19.007812 14.390625 19.023438 14.390625 19.054688 L 14.390625 19.269531 C 14.394531 19.300781 14.378906 19.316406 14.347656 19.316406 L 14.34375 19.316406 "/><path style=" stroke:none;fill-rule:nonzero;fill:#ffffff;fill-opacity:1;" d="M 15.605469 20.363281 L 14.824219 20.363281 C 14.824219 20.519531 14.882812 20.699219 15.113281 20.699219 C 15.261719 20.699219 15.40625 20.691406 15.554688 20.671875 C 15.582031 20.671875 15.597656 20.683594 15.597656 20.710938 L 15.597656 20.890625 C 15.597656 20.9375 15.597656 20.953125 15.550781 20.960938 C 15.394531 20.996094 15.242188 21.011719 15.082031 21.007812 C 14.921875 21.007812 14.785156 20.953125 14.671875 20.835938 C 14.558594 20.722656 14.5 20.585938 14.5 20.421875 C 14.5 20.394531 14.5 20.363281 14.503906 20.335938 L 14.503906 20.136719 C 14.503906 19.71875 14.710938 19.457031 15.078125 19.457031 C 15.242188 19.457031 15.382812 19.519531 15.5 19.640625 C 15.613281 19.761719 15.671875 19.902344 15.671875 20.070312 C 15.667969 20.097656 15.667969 20.121094 15.664062 20.144531 L 15.664062 20.285156 C 15.664062 20.332031 15.652344 20.355469 15.617188 20.355469 M 15.347656 20.082031 C 15.347656 19.875 15.246094 19.757812 15.097656 19.757812 C 14.949219 19.757812 14.84375 19.871094 14.84375 20.082031 Z M 15.347656 20.082031 "/><path style=" stroke:none;fill-rule:nonzero;fill:#ffffff;fill-opacity:1;" d="M 16.148438 20.996094 L 15.933594 20.996094 C 15.898438 20.992188 15.882812 20.972656 15.882812 20.9375 L 15.882812 19.007812 C 15.882812 18.976562 15.898438 18.960938 15.933594 18.957031 L 16.15625 18.957031 C 16.1875 18.960938 16.203125 18.976562 16.199219 19.007812 L 16.199219 20.9375 C 16.203125 20.972656 16.1875 20.988281 16.15625 20.992188 "/><path style=" stroke:none;fill-rule:nonzero;fill:#ffffff;fill-opacity:1;" d="M 17.511719 20.363281 L 16.734375 20.363281 C 16.734375 20.519531 16.796875 20.699219 17.027344 20.699219 C 17.171875 20.699219 17.320312 20.691406 17.464844 20.671875 C 17.492188 20.671875 17.507812 20.6875 17.511719 20.714844 L 17.511719 20.890625 C 17.511719 20.9375 17.511719 20.953125 17.460938 20.960938 C 17.304688 20.996094 17.152344 21.011719 16.992188 21.007812 C 16.832031 21.007812 16.695312 20.953125 16.582031 20.835938 C 16.46875 20.722656 16.410156 20.582031 16.410156 20.421875 C 16.410156 20.390625 16.410156 20.363281 16.414062 20.335938 L 16.414062 20.136719 C 16.394531 19.976562 16.429688 19.832031 16.527344 19.703125 C 16.625 19.570312 16.753906 19.496094 16.910156 19.476562 C 16.941406 19.472656 16.972656 19.46875 17.003906 19.46875 C 17.382812 19.46875 17.574219 19.742188 17.574219 20.148438 L 17.574219 20.285156 C 17.574219 20.332031 17.558594 20.355469 17.527344 20.355469 M 17.257812 20.082031 C 17.257812 19.875 17.152344 19.757812 17.007812 19.757812 C 16.859375 19.757812 16.738281 19.875 16.738281 20.082031 Z M 17.257812 20.082031 "/><path style=" stroke:none;fill-rule:nonzero;fill:#ffffff;fill-opacity:1;" d="M 18.582031 20.980469 C 18.476562 21.007812 18.375 21.019531 18.269531 21.015625 C 17.957031 21.015625 17.734375 20.800781 17.734375 20.367188 L 17.734375 20.117188 C 17.734375 19.679688 17.96875 19.464844 18.269531 19.464844 C 18.375 19.464844 18.476562 19.476562 18.582031 19.5 C 18.621094 19.5 18.628906 19.527344 18.628906 19.570312 L 18.628906 19.742188 C 18.628906 19.769531 18.609375 19.78125 18.585938 19.78125 C 18.480469 19.769531 18.378906 19.761719 18.273438 19.765625 C 18.160156 19.765625 18.042969 19.835938 18.042969 20.113281 L 18.042969 20.363281 C 18.042969 20.636719 18.160156 20.710938 18.273438 20.710938 C 18.378906 20.714844 18.480469 20.707031 18.585938 20.695312 C 18.609375 20.695312 18.628906 20.695312 18.628906 20.734375 L 18.628906 20.90625 C 18.628906 20.953125 18.628906 20.96875 18.582031 20.976562 "/><path style=" stroke:none;fill-rule:nonzero;fill:#ffffff;fill-opacity:1;" d="M 19.367188 21.015625 C 19.207031 21.015625 19.070312 20.960938 18.957031 20.847656 C 18.84375 20.734375 18.789062 20.597656 18.785156 20.433594 C 18.785156 20.40625 18.789062 20.378906 18.792969 20.347656 L 18.792969 20.132812 C 18.769531 19.972656 18.808594 19.828125 18.90625 19.699219 C 19.003906 19.570312 19.128906 19.496094 19.289062 19.476562 C 19.3125 19.472656 19.339844 19.46875 19.367188 19.46875 C 19.742188 19.46875 19.9375 19.742188 19.9375 20.136719 L 19.9375 20.351562 C 19.9375 20.734375 19.738281 21.019531 19.367188 21.019531 M 19.632812 20.136719 C 19.632812 19.917969 19.542969 19.777344 19.367188 19.777344 C 19.1875 19.777344 19.097656 19.917969 19.097656 20.136719 L 19.097656 20.351562 C 19.097656 20.570312 19.1875 20.710938 19.367188 20.710938 C 19.542969 20.710938 19.632812 20.570312 19.632812 20.351562 Z M 19.632812 20.136719 "/><path style=" stroke:none;fill-rule:nonzero;fill:#ffffff;fill-opacity:1;" d="M 21.828125 20.996094 L 21.605469 20.996094 C 21.570312 20.992188 21.554688 20.972656 21.558594 20.9375 L 21.558594 20.027344 C 21.558594 19.820312 21.519531 19.769531 21.386719 19.769531 C 21.304688 19.773438 21.230469 19.796875 21.164062 19.835938 L 21.164062 20.9375 C 21.164062 20.972656 21.152344 20.992188 21.117188 20.996094 L 20.894531 20.996094 C 20.863281 20.992188 20.84375 20.972656 20.847656 20.9375 L 20.847656 20.03125 C 20.847656 19.824219 20.816406 19.773438 20.679688 19.773438 C 20.601562 19.78125 20.527344 19.8125 20.460938 19.859375 L 20.460938 20.949219 C 20.464844 20.980469 20.449219 21 20.414062 21.003906 L 20.195312 21.003906 C 20.160156 21 20.144531 20.980469 20.144531 20.949219 L 20.144531 19.539062 C 20.144531 19.507812 20.160156 19.488281 20.191406 19.484375 L 20.402344 19.484375 C 20.433594 19.488281 20.449219 19.507812 20.449219 19.539062 L 20.449219 19.597656 C 20.550781 19.515625 20.664062 19.472656 20.792969 19.472656 C 20.902344 19.464844 20.992188 19.507812 21.0625 19.59375 C 21.183594 19.507812 21.320312 19.46875 21.472656 19.472656 C 21.796875 19.472656 21.867188 19.722656 21.867188 20.035156 L 21.867188 20.945312 C 21.871094 20.976562 21.855469 20.996094 21.824219 21 "/><path style=" stroke:none;fill-rule:nonzero;fill:#ffffff;fill-opacity:1;" d="M 4.976562 10.136719 L 4.976562 11.136719 L 7.660156 11.136719 L 7.660156 16.820312 C 7.660156 17.925781 8.335938 18.320312 9.113281 18.320312 L 10.238281 18.320312 L 10.238281 11.136719 L 11.578125 11.136719 C 11.761719 11.132812 11.941406 11.09375 12.109375 11.019531 C 12.277344 10.949219 12.429688 10.847656 12.5625 10.71875 C 12.695312 10.589844 12.800781 10.441406 12.878906 10.273438 C 12.960938 10.105469 13.007812 9.925781 13.023438 9.742188 L 13.023438 8.738281 L 6.433594 8.738281 C 6.246094 8.734375 6.066406 8.761719 5.890625 8.828125 C 5.714844 8.894531 5.5625 8.992188 5.425781 9.121094 C 5.289062 9.25 5.179688 9.402344 5.105469 9.574219 C 5.027344 9.746094 4.984375 9.929688 4.976562 10.117188 C 4.976562 10.125 4.976562 10.128906 4.976562 10.136719 "/><path style=" stroke:none;fill-rule:nonzero;fill:#ffffff;fill-opacity:1;" d="M 15.285156 8.742188 C 15.097656 8.734375 14.917969 8.765625 14.742188 8.828125 C 14.570312 8.894531 14.414062 8.992188 14.277344 9.121094 C 14.140625 9.25 14.03125 9.398438 13.957031 9.570312 C 13.878906 9.742188 13.835938 9.921875 13.828125 10.113281 C 13.828125 10.121094 13.828125 10.128906 13.828125 10.136719 L 13.828125 11.136719 L 16.507812 11.136719 L 16.507812 16.820312 C 16.507812 17.925781 17.1875 18.320312 17.964844 18.320312 L 19.09375 18.320312 L 19.09375 11.136719 L 20.433594 11.136719 C 20.617188 11.128906 20.792969 11.089844 20.960938 11.019531 C 21.128906 10.945312 21.28125 10.847656 21.414062 10.71875 C 21.546875 10.589844 21.652344 10.441406 21.734375 10.273438 C 21.8125 10.105469 21.859375 9.925781 21.875 9.742188 L 21.875 8.742188 Z M 15.285156 8.742188 "/><g clip-rule="nonzero" clip-path="url(#a10a5c5ffc)"><g transform="matrix(1,0,0,1,34,5)"><g clip-path="url(#5357f0ee1a)"><g style="fill:#808080;fill-opacity:1;"><g transform="translate(1.450501, 13.613607)"><path style="stroke:none" d="M 1.5 -5.757812 C 0.96875 -5.757812 0.53125 -5.917969 0.1875 -6.238281 C -0.171875 -6.566406 -0.351562 -7.007812 -0.351562 -7.558594 C -0.351562 -8.089844 -0.191406 -8.527344 0.125 -8.863281 C 0.449219 -9.210938 0.90625 -9.386719 1.5 -9.386719 L 6.796875 -9.386719 C 7.390625 -9.386719 7.847656 -9.210938 8.171875 -8.863281 C 8.488281 -8.527344 8.648438 -8.089844 8.648438 -7.558594 C 8.648438 -7.007812 8.46875 -6.566406 8.113281 -6.238281 C 7.765625 -5.917969 7.328125 -5.757812 6.796875 -5.757812 C 6.464844 -5.757812 6.1875 -5.800781 5.96875 -5.878906 C 5.753906 -5.957031 5.574219 -6.058594 5.425781 -6.175781 C 5.335938 -6.25 5.246094 -6.3125 5.164062 -6.363281 C 5.140625 -6.378906 5.097656 -6.386719 5.039062 -6.386719 L 5.039062 -6.847656 L 5.453125 -6.640625 L 5.339844 -6.417969 L 4.929688 -6.625 L 5.351562 -6.8125 C 5.375 -6.757812 5.421875 -6.667969 5.496094 -6.550781 C 5.597656 -6.382812 5.691406 -6.152344 5.777344 -5.863281 C 5.863281 -5.574219 5.90625 -5.191406 5.90625 -4.71875 L 5.90625 -1.167969 C 5.90625 -0.695312 5.730469 -0.300781 5.375 0.0117188 C 5.039062 0.3125 4.632812 0.460938 4.15625 0.460938 C 3.667969 0.460938 3.257812 0.3125 2.921875 0.0117188 C 2.566406 -0.300781 2.390625 -0.695312 2.390625 -1.167969 L 2.390625 -4.71875 C 2.390625 -5.191406 2.433594 -5.574219 2.519531 -5.863281 C 2.605469 -6.15625 2.703125 -6.386719 2.8125 -6.558594 C 2.886719 -6.675781 2.9375 -6.761719 2.960938 -6.8125 L 3.378906 -6.625 L 2.976562 -6.402344 L 2.855469 -6.621094 L 3.257812 -6.847656 L 3.257812 -6.386719 C 3.199219 -6.386719 3.15625 -6.378906 3.132812 -6.363281 C 3.050781 -6.3125 2.964844 -6.25 2.871094 -6.175781 C 2.726562 -6.058594 2.546875 -5.960938 2.335938 -5.878906 C 2.121094 -5.800781 1.84375 -5.757812 1.5 -5.757812 Z M 1.5 -6.679688 C 1.730469 -6.679688 1.902344 -6.703125 2.015625 -6.742188 C 2.132812 -6.789062 2.222656 -6.835938 2.292969 -6.890625 C 2.414062 -6.988281 2.53125 -7.074219 2.644531 -7.144531 C 2.816406 -7.253906 3.023438 -7.308594 3.257812 -7.308594 L 3.527344 -7.308594 L 3.894531 -6.648438 L 3.800781 -6.4375 C 3.757812 -6.34375 3.6875 -6.21875 3.589844 -6.066406 C 3.527344 -5.964844 3.464844 -5.8125 3.40625 -5.605469 C 3.34375 -5.398438 3.3125 -5.101562 3.3125 -4.71875 L 3.3125 -1.167969 C 3.3125 -0.96875 3.386719 -0.804688 3.53125 -0.675781 C 3.695312 -0.53125 3.902344 -0.460938 4.15625 -0.460938 C 4.398438 -0.460938 4.601562 -0.53125 4.765625 -0.675781 C 4.910156 -0.804688 4.984375 -0.96875 4.984375 -1.167969 L 4.984375 -4.71875 C 4.984375 -5.101562 4.953125 -5.398438 4.894531 -5.605469 C 4.832031 -5.816406 4.769531 -5.972656 4.707031 -6.074219 C 4.613281 -6.226562 4.546875 -6.347656 4.507812 -6.4375 L 4.417969 -6.636719 L 4.753906 -7.308594 L 5.039062 -7.308594 C 5.277344 -7.308594 5.480469 -7.253906 5.652344 -7.144531 C 5.765625 -7.074219 5.882812 -6.988281 6.003906 -6.890625 C 6.074219 -6.839844 6.167969 -6.789062 6.285156 -6.746094 C 6.402344 -6.703125 6.574219 -6.679688 6.796875 -6.679688 C 7.085938 -6.679688 7.316406 -6.757812 7.488281 -6.914062 C 7.644531 -7.0625 7.726562 -7.277344 7.726562 -7.558594 C 7.726562 -7.847656 7.652344 -8.074219 7.5 -8.234375 C 7.355469 -8.386719 7.125 -8.464844 6.796875 -8.464844 L 1.5 -8.464844 C 1.175781 -8.464844 0.941406 -8.386719 0.796875 -8.234375 C 0.648438 -8.074219 0.570312 -7.847656 0.570312 -7.558594 C 0.570312 -7.277344 0.652344 -7.0625 0.808594 -6.914062 C 0.980469 -6.757812 1.210938 -6.679688 1.5 -6.679688 Z M 1.5 -6.679688 "/></g></g><g style="fill:#808080;fill-opacity:1;"><g transform="translate(8.641626, 13.613607)"><path style="stroke:none" d="M 2.296875 0.460938 C 1.582031 0.460938 0.996094 0.1875 0.542969 -0.355469 C 0.113281 -0.875 -0.105469 -1.582031 -0.117188 -2.476562 L -0.128906 -5.320312 C -0.128906 -5.808594 0.0273438 -6.199219 0.34375 -6.492188 C 0.648438 -6.773438 1.050781 -6.914062 1.550781 -6.914062 C 2.027344 -6.914062 2.421875 -6.773438 2.730469 -6.492188 C 3.054688 -6.203125 3.214844 -5.8125 3.214844 -5.324219 L 3.214844 -2.753906 C 3.214844 -2.550781 3.242188 -2.417969 3.296875 -2.347656 C 3.324219 -2.3125 3.386719 -2.292969 3.480469 -2.292969 C 3.519531 -2.292969 3.542969 -2.296875 3.554688 -2.300781 C 3.546875 -2.296875 3.542969 -2.292969 3.539062 -2.289062 C 3.59375 -2.40625 3.621094 -2.566406 3.621094 -2.777344 L 3.621094 -5.324219 C 3.621094 -5.769531 3.777344 -6.148438 4.089844 -6.457031 C 4.402344 -6.761719 4.796875 -6.914062 5.273438 -6.914062 C 5.777344 -6.914062 6.175781 -6.757812 6.464844 -6.441406 C 6.75 -6.136719 6.890625 -5.761719 6.890625 -5.324219 L 6.890625 -1.289062 C 6.890625 -0.792969 6.769531 -0.386719 6.53125 -0.0742188 C 6.265625 0.28125 5.855469 0.460938 5.308594 0.460938 C 4.792969 0.460938 4.378906 0.296875 4.070312 -0.0351562 C 3.769531 -0.359375 3.621094 -0.777344 3.621094 -1.289062 L 3.621094 -1.5 L 4.082031 -1.5 L 4.082031 -1.039062 L 3.859375 -1.039062 L 3.859375 -1.5 L 4.320312 -1.5 C 4.320312 -0.890625 4.128906 -0.410156 3.75 -0.0546875 C 3.378906 0.289062 2.894531 0.460938 2.296875 0.460938 Z M 2.296875 -0.460938 C 2.652344 -0.460938 2.929688 -0.550781 3.121094 -0.730469 C 3.308594 -0.902344 3.398438 -1.160156 3.398438 -1.5 L 3.398438 -1.960938 L 4.542969 -1.960938 L 4.542969 -1.289062 C 4.542969 -1.019531 4.609375 -0.808594 4.746094 -0.664062 C 4.871094 -0.527344 5.058594 -0.460938 5.308594 -0.460938 C 5.550781 -0.460938 5.710938 -0.515625 5.796875 -0.628906 C 5.910156 -0.78125 5.96875 -1 5.96875 -1.289062 L 5.96875 -5.324219 C 5.96875 -5.523438 5.910156 -5.6875 5.789062 -5.816406 C 5.679688 -5.933594 5.507812 -5.992188 5.273438 -5.992188 C 5.046875 -5.992188 4.867188 -5.929688 4.734375 -5.796875 C 4.605469 -5.671875 4.542969 -5.511719 4.542969 -5.324219 L 4.542969 -2.777344 C 4.542969 -2.429688 4.488281 -2.140625 4.375 -1.902344 C 4.292969 -1.722656 4.167969 -1.585938 4 -1.492188 C 3.851562 -1.410156 3.675781 -1.371094 3.480469 -1.371094 C 3.085938 -1.371094 2.785156 -1.507812 2.574219 -1.777344 C 2.386719 -2.015625 2.292969 -2.339844 2.292969 -2.753906 L 2.292969 -5.324219 C 2.292969 -5.539062 2.230469 -5.703125 2.113281 -5.8125 C 1.976562 -5.933594 1.789062 -5.992188 1.550781 -5.992188 C 1.292969 -5.992188 1.097656 -5.933594 0.96875 -5.8125 C 0.851562 -5.703125 0.792969 -5.542969 0.792969 -5.324219 L 0.804688 -2.488281 C 0.8125 -1.808594 0.960938 -1.296875 1.253906 -0.945312 C 1.519531 -0.621094 1.871094 -0.460938 2.296875 -0.460938 Z M 2.296875 -0.460938 "/></g></g><g style="fill:#808080;fill-opacity:1;"><g transform="translate(15.377931, 13.613607)"><path style="stroke:none" d="M 1.523438 0.460938 C 1.035156 0.460938 0.640625 0.308594 0.332031 0 C 0.0234375 -0.308594 -0.128906 -0.683594 -0.128906 -1.132812 L -0.128906 -5.199219 C -0.128906 -5.65625 0.0117188 -6.050781 0.289062 -6.375 C 0.585938 -6.71875 1 -6.890625 1.523438 -6.890625 C 2.046875 -6.890625 2.449219 -6.714844 2.738281 -6.367188 C 3.007812 -6.042969 3.140625 -5.644531 3.140625 -5.175781 L 3.140625 -4.558594 L 2.679688 -4.558594 L 2.679688 -5.019531 L 2.902344 -5.019531 L 2.902344 -4.558594 L 2.441406 -4.558594 C 2.441406 -5.117188 2.546875 -5.566406 2.761719 -5.910156 C 2.980469 -6.257812 3.261719 -6.511719 3.609375 -6.671875 C 3.929688 -6.816406 4.257812 -6.890625 4.585938 -6.890625 C 4.972656 -6.890625 5.3125 -6.816406 5.609375 -6.671875 C 5.917969 -6.519531 6.167969 -6.296875 6.359375 -5.996094 C 6.707031 -5.464844 6.878906 -4.738281 6.878906 -3.8125 L 6.878906 -1.132812 C 6.878906 -0.6875 6.726562 -0.308594 6.425781 -0.00390625 C 6.121094 0.304688 5.726562 0.460938 5.238281 0.460938 C 4.742188 0.460938 4.339844 0.308594 4.03125 0 C 3.722656 -0.308594 3.570312 -0.683594 3.570312 -1.132812 L 3.570312 -3.308594 C 3.570312 -3.507812 3.542969 -3.652344 3.484375 -3.738281 C 3.472656 -3.753906 3.464844 -3.761719 3.453125 -3.769531 C 3.4375 -3.777344 3.414062 -3.78125 3.378906 -3.78125 C 3.332031 -3.78125 3.292969 -3.773438 3.269531 -3.761719 C 3.257812 -3.757812 3.25 -3.746094 3.238281 -3.730469 C 3.171875 -3.621094 3.140625 -3.472656 3.140625 -3.28125 L 3.140625 -1.132812 C 3.140625 -0.6875 2.996094 -0.316406 2.707031 -0.0078125 C 2.410156 0.304688 2.015625 0.460938 1.523438 0.460938 Z M 1.523438 -0.460938 C 1.753906 -0.460938 1.921875 -0.519531 2.039062 -0.640625 C 2.160156 -0.769531 2.21875 -0.933594 2.21875 -1.132812 L 2.21875 -3.28125 C 2.21875 -3.648438 2.296875 -3.957031 2.453125 -4.210938 C 2.554688 -4.375 2.6875 -4.5 2.855469 -4.585938 C 3.007812 -4.664062 3.183594 -4.703125 3.378906 -4.703125 C 3.558594 -4.703125 3.722656 -4.664062 3.871094 -4.589844 C 4.023438 -4.511719 4.148438 -4.402344 4.246094 -4.253906 C 4.410156 -4.011719 4.492188 -3.695312 4.492188 -3.308594 L 4.492188 -1.132812 C 4.492188 -0.9375 4.554688 -0.777344 4.683594 -0.652344 C 4.8125 -0.523438 4.996094 -0.460938 5.238281 -0.460938 C 5.46875 -0.460938 5.644531 -0.523438 5.769531 -0.648438 C 5.894531 -0.777344 5.957031 -0.9375 5.957031 -1.132812 L 5.957031 -3.8125 C 5.957031 -4.554688 5.832031 -5.117188 5.585938 -5.496094 C 5.484375 -5.652344 5.359375 -5.769531 5.203125 -5.84375 C 5.035156 -5.925781 4.828125 -5.96875 4.585938 -5.96875 C 4.390625 -5.96875 4.191406 -5.921875 3.988281 -5.832031 C 3.8125 -5.75 3.664062 -5.613281 3.542969 -5.421875 C 3.421875 -5.226562 3.363281 -4.941406 3.363281 -4.558594 L 3.363281 -4.097656 L 2.21875 -4.097656 L 2.21875 -5.175781 C 2.21875 -5.425781 2.15625 -5.625 2.03125 -5.777344 C 1.925781 -5.90625 1.757812 -5.96875 1.523438 -5.96875 C 1.28125 -5.96875 1.101562 -5.902344 0.988281 -5.769531 C 0.859375 -5.621094 0.792969 -5.429688 0.792969 -5.199219 L 0.792969 -1.132812 C 0.792969 -0.9375 0.855469 -0.777344 0.984375 -0.652344 C 1.109375 -0.523438 1.289062 -0.460938 1.523438 -0.460938 Z M 1.523438 -0.460938 "/></g></g><g style="fill:#808080;fill-opacity:1;"><g transform="translate(22.101935, 13.613607)"><path style="stroke:none" d="M -0.179688 -7.855469 C -0.179688 -8.335938 -0.0234375 -8.726562 0.28125 -9.035156 C 0.589844 -9.34375 1 -9.496094 1.511719 -9.496094 C 2.054688 -9.496094 2.472656 -9.339844 2.761719 -9.03125 C 3.046875 -8.730469 3.191406 -8.339844 3.191406 -7.867188 C 3.191406 -7.398438 3.046875 -7.015625 2.761719 -6.71875 C 2.46875 -6.414062 2.050781 -6.261719 1.511719 -6.261719 C 0.984375 -6.261719 0.570312 -6.414062 0.269531 -6.710938 C -0.0273438 -7.011719 -0.179688 -7.390625 -0.179688 -7.855469 Z M 0.742188 -7.855469 C 0.742188 -7.644531 0.804688 -7.480469 0.921875 -7.363281 C 1.042969 -7.246094 1.238281 -7.183594 1.511719 -7.183594 C 1.789062 -7.183594 1.984375 -7.242188 2.09375 -7.355469 C 2.210938 -7.476562 2.269531 -7.648438 2.269531 -7.867188 C 2.269531 -8.097656 2.210938 -8.273438 2.09375 -8.398438 C 1.984375 -8.515625 1.789062 -8.574219 1.511719 -8.574219 C 1.253906 -8.574219 1.0625 -8.511719 0.933594 -8.382812 C 0.808594 -8.257812 0.742188 -8.078125 0.742188 -7.855469 Z M 1.511719 0.460938 C 0.988281 0.460938 0.585938 0.300781 0.304688 -0.015625 C 0.0390625 -0.3125 -0.09375 -0.683594 -0.09375 -1.117188 L -0.09375 -5.324219 C -0.09375 -5.792969 0.0429688 -6.175781 0.3125 -6.46875 C 0.59375 -6.773438 0.992188 -6.925781 1.511719 -6.925781 C 2.03125 -6.925781 2.429688 -6.777344 2.714844 -6.472656 C 2.992188 -6.179688 3.128906 -5.804688 3.128906 -5.347656 L 3.128906 -1.117188 C 3.128906 -0.675781 2.984375 -0.304688 2.703125 -0.00390625 C 2.410156 0.304688 2.011719 0.460938 1.511719 0.460938 Z M 1.511719 -0.460938 C 1.75 -0.460938 1.921875 -0.519531 2.03125 -0.636719 C 2.148438 -0.761719 2.207031 -0.921875 2.207031 -1.117188 L 2.207031 -5.347656 C 2.207031 -5.5625 2.152344 -5.726562 2.042969 -5.84375 C 1.941406 -5.949219 1.765625 -6.003906 1.511719 -6.003906 C 1.261719 -6.003906 1.089844 -5.953125 0.992188 -5.847656 C 0.882812 -5.730469 0.828125 -5.554688 0.828125 -5.324219 L 0.828125 -1.117188 C 0.828125 -0.914062 0.886719 -0.75 0.996094 -0.625 C 1.09375 -0.515625 1.265625 -0.460938 1.511719 -0.460938 Z M 1.511719 -0.460938 "/></g></g><g style="fill:#808080;fill-opacity:1;"><g transform="translate(25.113599, 13.613607)"><path style="stroke:none" d="M 3.429688 0.621094 C 2.828125 0.621094 2.273438 0.5625 1.757812 0.441406 C 1.207031 0.316406 0.757812 0.105469 0.414062 -0.183594 C 0.0195312 -0.515625 -0.179688 -0.957031 -0.179688 -1.5 C -0.179688 -1.972656 -0.03125 -2.367188 0.265625 -2.6875 C 0.570312 -3.015625 0.964844 -3.175781 1.449219 -3.175781 C 1.71875 -3.175781 1.988281 -3.136719 2.257812 -3.050781 C 2.476562 -2.984375 2.707031 -2.917969 2.953125 -2.855469 C 3.171875 -2.800781 3.40625 -2.773438 3.664062 -2.773438 C 3.878906 -2.773438 4.007812 -2.777344 4.050781 -2.792969 C 4.011719 -2.78125 3.972656 -2.75 3.9375 -2.707031 C 3.890625 -2.652344 3.867188 -2.589844 3.867188 -2.519531 C 3.867188 -2.457031 3.886719 -2.398438 3.933594 -2.34375 C 3.964844 -2.308594 3.996094 -2.285156 4.03125 -2.273438 C 3.933594 -2.304688 3.761719 -2.339844 3.515625 -2.386719 L 2.628906 -2.558594 C 2.238281 -2.636719 1.859375 -2.738281 1.492188 -2.863281 C 1.070312 -3.007812 0.722656 -3.226562 0.445312 -3.519531 C 0.136719 -3.84375 -0.0195312 -4.273438 -0.0195312 -4.804688 C -0.0195312 -5.167969 0.0625 -5.492188 0.226562 -5.777344 C 0.390625 -6.0625 0.628906 -6.304688 0.941406 -6.5 C 1.511719 -6.859375 2.3125 -7.039062 3.34375 -7.039062 C 3.921875 -7.039062 4.445312 -6.980469 4.910156 -6.863281 C 5.410156 -6.742188 5.8125 -6.550781 6.121094 -6.300781 C 6.484375 -6 6.667969 -5.621094 6.667969 -5.164062 L 6.207031 -5.164062 L 6.667969 -5.175781 C 6.679688 -4.714844 6.550781 -4.335938 6.277344 -4.039062 C 5.996094 -3.734375 5.644531 -3.582031 5.222656 -3.582031 C 4.980469 -3.582031 4.734375 -3.613281 4.488281 -3.675781 L 3.8125 -3.847656 C 3.605469 -3.902344 3.363281 -3.933594 3.085938 -3.941406 L 3.0625 -3.941406 C 2.898438 -3.953125 2.773438 -3.945312 2.6875 -3.921875 C 2.683594 -3.921875 2.675781 -3.917969 2.675781 -3.917969 C 2.6875 -3.925781 2.703125 -3.933594 2.714844 -3.949219 C 2.777344 -4.007812 2.808594 -4.078125 2.808594 -4.167969 C 2.808594 -4.261719 2.773438 -4.339844 2.703125 -4.398438 C 2.6875 -4.410156 2.675781 -4.417969 2.667969 -4.421875 C 2.671875 -4.417969 2.679688 -4.417969 2.695312 -4.414062 C 2.851562 -4.378906 3.089844 -4.332031 3.410156 -4.277344 L 4.285156 -4.117188 C 4.851562 -4.019531 5.308594 -3.898438 5.65625 -3.75 C 6.066406 -3.574219 6.367188 -3.324219 6.554688 -3 C 6.738281 -2.6875 6.828125 -2.285156 6.828125 -1.78125 C 6.828125 -1.234375 6.667969 -0.769531 6.34375 -0.394531 C 6.035156 -0.0351562 5.617188 0.226562 5.09375 0.390625 C 4.605469 0.542969 4.050781 0.621094 3.429688 0.621094 Z M 3.429688 -0.300781 C 3.957031 -0.300781 4.417969 -0.363281 4.816406 -0.488281 C 5.175781 -0.601562 5.449219 -0.769531 5.644531 -0.996094 C 5.820312 -1.199219 5.90625 -1.460938 5.90625 -1.78125 C 5.90625 -2.117188 5.859375 -2.367188 5.761719 -2.53125 C 5.671875 -2.683594 5.515625 -2.804688 5.292969 -2.902344 C 5.011719 -3.023438 4.621094 -3.125 4.121094 -3.210938 L 3.25 -3.367188 C 2.917969 -3.425781 2.664062 -3.476562 2.492188 -3.515625 C 2.339844 -3.550781 2.214844 -3.605469 2.117188 -3.6875 C 1.964844 -3.8125 1.886719 -3.972656 1.886719 -4.167969 C 1.886719 -4.34375 1.953125 -4.496094 2.085938 -4.621094 C 2.171875 -4.703125 2.285156 -4.765625 2.425781 -4.804688 C 2.621094 -4.863281 2.855469 -4.882812 3.132812 -4.859375 L 3.097656 -4.402344 L 3.109375 -4.863281 C 3.457031 -4.851562 3.765625 -4.8125 4.042969 -4.742188 L 4.71875 -4.570312 C 4.890625 -4.527344 5.058594 -4.503906 5.222656 -4.503906 C 5.375 -4.503906 5.5 -4.558594 5.597656 -4.664062 C 5.703125 -4.777344 5.753906 -4.941406 5.746094 -5.152344 L 5.746094 -5.164062 C 5.746094 -5.328125 5.675781 -5.46875 5.535156 -5.585938 C 5.332031 -5.753906 5.050781 -5.878906 4.6875 -5.96875 C 4.296875 -6.066406 3.847656 -6.117188 3.34375 -6.117188 C 2.488281 -6.117188 1.851562 -5.984375 1.429688 -5.71875 C 1.25 -5.605469 1.113281 -5.472656 1.027344 -5.320312 C 0.945312 -5.175781 0.902344 -5.003906 0.902344 -4.804688 C 0.902344 -4.519531 0.972656 -4.300781 1.113281 -4.152344 C 1.289062 -3.96875 1.511719 -3.832031 1.789062 -3.738281 C 2.117188 -3.625 2.457031 -3.535156 2.804688 -3.464844 L 3.6875 -3.292969 C 3.964844 -3.242188 4.167969 -3.195312 4.292969 -3.160156 C 4.433594 -3.117188 4.550781 -3.042969 4.636719 -2.941406 C 4.738281 -2.820312 4.789062 -2.679688 4.789062 -2.519531 C 4.789062 -2.371094 4.742188 -2.238281 4.652344 -2.125 C 4.570312 -2.027344 4.464844 -1.957031 4.332031 -1.914062 C 4.195312 -1.871094 3.972656 -1.851562 3.664062 -1.851562 C 3.328125 -1.851562 3.015625 -1.886719 2.722656 -1.964844 C 2.464844 -2.03125 2.214844 -2.101562 1.984375 -2.171875 C 1.804688 -2.226562 1.625 -2.253906 1.449219 -2.253906 C 1.230469 -2.253906 1.0625 -2.191406 0.941406 -2.058594 C 0.808594 -1.917969 0.742188 -1.730469 0.742188 -1.5 C 0.742188 -1.242188 0.832031 -1.035156 1.011719 -0.886719 C 1.238281 -0.691406 1.558594 -0.550781 1.964844 -0.457031 C 2.410156 -0.351562 2.898438 -0.300781 3.429688 -0.300781 Z M 3.429688 -0.300781 "/></g></g><g style="fill:#808080;fill-opacity:1;"><g transform="translate(31.628637, 13.613607)"><path style="stroke:none" d="M -0.179688 -7.855469 C -0.179688 -8.335938 -0.0234375 -8.726562 0.28125 -9.035156 C 0.589844 -9.34375 1 -9.496094 1.511719 -9.496094 C 2.054688 -9.496094 2.472656 -9.339844 2.761719 -9.03125 C 3.046875 -8.730469 3.191406 -8.339844 3.191406 -7.867188 C 3.191406 -7.398438 3.046875 -7.015625 2.761719 -6.71875 C 2.46875 -6.414062 2.050781 -6.261719 1.511719 -6.261719 C 0.984375 -6.261719 0.570312 -6.414062 0.269531 -6.710938 C -0.0273438 -7.011719 -0.179688 -7.390625 -0.179688 -7.855469 Z M 0.742188 -7.855469 C 0.742188 -7.644531 0.804688 -7.480469 0.921875 -7.363281 C 1.042969 -7.246094 1.238281 -7.183594 1.511719 -7.183594 C 1.789062 -7.183594 1.984375 -7.242188 2.09375 -7.355469 C 2.210938 -7.476562 2.269531 -7.648438 2.269531 -7.867188 C 2.269531 -8.097656 2.210938 -8.273438 2.09375 -8.398438 C 1.984375 -8.515625 1.789062 -8.574219 1.511719 -8.574219 C 1.253906 -8.574219 1.0625 -8.511719 0.933594 -8.382812 C 0.808594 -8.257812 0.742188 -8.078125 0.742188 -7.855469 Z M 1.511719 0.460938 C 0.988281 0.460938 0.585938 0.300781 0.304688 -0.015625 C 0.0390625 -0.3125 -0.09375 -0.683594 -0.09375 -1.117188 L -0.09375 -5.324219 C -0.09375 -5.792969 0.0429688 -6.175781 0.3125 -6.46875 C 0.59375 -6.773438 0.992188 -6.925781 1.511719 -6.925781 C 2.03125 -6.925781 2.429688 -6.777344 2.714844 -6.472656 C 2.992188 -6.179688 3.128906 -5.804688 3.128906 -5.347656 L 3.128906 -1.117188 C 3.128906 -0.675781 2.984375 -0.304688 2.703125 -0.00390625 C 2.410156 0.304688 2.011719 0.460938 1.511719 0.460938 Z M 1.511719 -0.460938 C 1.75 -0.460938 1.921875 -0.519531 2.03125 -0.636719 C 2.148438 -0.761719 2.207031 -0.921875 2.207031 -1.117188 L 2.207031 -5.347656 C 2.207031 -5.5625 2.152344 -5.726562 2.042969 -5.84375 C 1.941406 -5.949219 1.765625 -6.003906 1.511719 -6.003906 C 1.261719 -6.003906 1.089844 -5.953125 0.992188 -5.847656 C 0.882812 -5.730469 0.828125 -5.554688 0.828125 -5.324219 L 0.828125 -1.117188 C 0.828125 -0.914062 0.886719 -0.75 0.996094 -0.625 C 1.09375 -0.515625 1.265625 -0.460938 1.511719 -0.460938 Z M 1.511719 -0.460938 "/></g></g><g style="fill:#808080;fill-opacity:1;"><g transform="translate(34.640302, 13.613607)"><path style="stroke:none" d="M -0.179688 -3.195312 C -0.179688 -3.917969 -0.03125 -4.558594 0.261719 -5.117188 C 0.5625 -5.6875 0.988281 -6.136719 1.542969 -6.457031 C 2.09375 -6.777344 2.746094 -6.9375 3.492188 -6.9375 C 4.074219 -6.9375 4.601562 -6.832031 5.078125 -6.613281 C 5.5625 -6.394531 5.945312 -6.09375 6.230469 -5.714844 C 6.53125 -5.320312 6.679688 -4.878906 6.679688 -4.402344 C 6.679688 -3.847656 6.5 -3.445312 6.144531 -3.191406 C 5.835938 -2.96875 5.40625 -2.859375 4.855469 -2.859375 L 2.273438 -2.859375 L 2.273438 -3.320312 L 2.734375 -3.320312 C 2.734375 -3.25 2.761719 -3.191406 2.820312 -3.144531 C 2.851562 -3.121094 2.902344 -3.097656 2.976562 -3.082031 C 3.082031 -3.054688 3.214844 -3.042969 3.378906 -3.042969 C 3.550781 -3.042969 3.707031 -3.058594 3.847656 -3.09375 C 4.027344 -3.132812 4.214844 -3.175781 4.402344 -3.210938 C 4.617188 -3.253906 4.855469 -3.277344 5.113281 -3.277344 C 5.578125 -3.277344 5.960938 -3.109375 6.265625 -2.773438 C 6.558594 -2.453125 6.707031 -2.027344 6.707031 -1.5 C 6.707031 -1.164062 6.617188 -0.867188 6.445312 -0.601562 C 6.277344 -0.347656 6.035156 -0.136719 5.722656 0.0351562 C 5.15625 0.34375 4.433594 0.496094 3.550781 0.496094 C 2.921875 0.496094 2.328125 0.375 1.773438 0.125 C 1.195312 -0.132812 0.722656 -0.539062 0.363281 -1.09375 C 0.00390625 -1.652344 -0.179688 -2.351562 -0.179688 -3.195312 Z M 0.742188 -3.195312 C 0.742188 -2.53125 0.875 -2 1.136719 -1.597656 C 1.398438 -1.195312 1.734375 -0.898438 2.148438 -0.714844 C 2.585938 -0.519531 3.050781 -0.425781 3.550781 -0.425781 C 4.277344 -0.425781 4.851562 -0.539062 5.28125 -0.773438 C 5.460938 -0.871094 5.589844 -0.984375 5.671875 -1.109375 C 5.746094 -1.21875 5.785156 -1.351562 5.785156 -1.5 C 5.785156 -1.789062 5.71875 -2.007812 5.585938 -2.152344 C 5.460938 -2.289062 5.304688 -2.355469 5.113281 -2.355469 C 4.914062 -2.355469 4.738281 -2.339844 4.582031 -2.308594 C 4.402344 -2.273438 4.226562 -2.234375 4.054688 -2.195312 C 3.847656 -2.144531 3.621094 -2.121094 3.378906 -2.121094 C 2.867188 -2.121094 2.484375 -2.226562 2.230469 -2.4375 C 1.953125 -2.667969 1.8125 -2.960938 1.8125 -3.320312 L 1.8125 -3.78125 L 4.855469 -3.78125 C 5.207031 -3.78125 5.457031 -3.832031 5.609375 -3.941406 C 5.707031 -4.011719 5.757812 -4.164062 5.757812 -4.402344 C 5.757812 -4.675781 5.671875 -4.929688 5.496094 -5.160156 C 5.304688 -5.414062 5.039062 -5.621094 4.695312 -5.777344 C 4.34375 -5.9375 3.941406 -6.015625 3.492188 -6.015625 C 2.910156 -6.015625 2.414062 -5.898438 2.007812 -5.660156 C 1.605469 -5.425781 1.296875 -5.105469 1.078125 -4.691406 C 0.855469 -4.265625 0.742188 -3.769531 0.742188 -3.195312 Z M 4.265625 -4.1875 C 4.242188 -4.1875 4.21875 -4.179688 4.191406 -4.171875 C 4.117188 -4.144531 4.058594 -4.101562 4.011719 -4.035156 C 3.964844 -3.96875 3.941406 -3.898438 3.941406 -3.820312 C 3.941406 -3.789062 3.945312 -3.761719 3.953125 -3.742188 L 3.949219 -3.753906 L 3.945312 -3.769531 C 3.945312 -3.765625 3.949219 -3.761719 3.949219 -3.757812 C 3.945312 -3.761719 3.941406 -3.769531 3.933594 -3.777344 C 3.910156 -3.808594 3.871094 -3.84375 3.816406 -3.882812 C 3.734375 -3.945312 3.589844 -3.976562 3.378906 -3.976562 C 3.136719 -3.976562 2.96875 -3.9375 2.878906 -3.859375 C 2.832031 -3.816406 2.800781 -3.777344 2.78125 -3.746094 C 2.773438 -3.734375 2.773438 -3.726562 2.773438 -3.722656 L 2.3125 -3.722656 L 2.3125 -4.1875 Z M 4.265625 -3.261719 L 1.851562 -3.261719 L 1.851562 -3.722656 C 1.851562 -4.027344 1.988281 -4.300781 2.269531 -4.550781 C 2.535156 -4.78125 2.902344 -4.898438 3.378906 -4.898438 C 3.792969 -4.898438 4.125 -4.804688 4.371094 -4.621094 C 4.617188 -4.4375 4.769531 -4.238281 4.832031 -4.023438 L 4.386719 -3.898438 L 4.824219 -4.050781 C 4.898438 -3.84375 4.878906 -3.660156 4.761719 -3.5 C 4.652344 -3.34375 4.484375 -3.261719 4.265625 -3.261719 Z M 4.265625 -3.261719 "/></g></g><g style="fill:#808080;fill-opacity:1;"><g transform="translate(41.106166, 13.613607)"><path style="stroke:none" d=""/></g></g><g style="fill:#808080;fill-opacity:1;"><g transform="translate(43.318823, 13.613607)"><path style="stroke:none" d="M 1.5 -5.757812 C 0.96875 -5.757812 0.53125 -5.917969 0.1875 -6.238281 C -0.171875 -6.566406 -0.351562 -7.007812 -0.351562 -7.558594 C -0.351562 -8.089844 -0.191406 -8.527344 0.125 -8.863281 C 0.449219 -9.210938 0.90625 -9.386719 1.5 -9.386719 L 6.796875 -9.386719 C 7.390625 -9.386719 7.847656 -9.210938 8.171875 -8.863281 C 8.488281 -8.527344 8.648438 -8.089844 8.648438 -7.558594 C 8.648438 -7.007812 8.46875 -6.566406 8.113281 -6.238281 C 7.765625 -5.917969 7.328125 -5.757812 6.796875 -5.757812 C 6.464844 -5.757812 6.1875 -5.800781 5.96875 -5.878906 C 5.753906 -5.957031 5.574219 -6.058594 5.425781 -6.175781 C 5.335938 -6.25 5.246094 -6.3125 5.164062 -6.363281 C 5.140625 -6.378906 5.097656 -6.386719 5.039062 -6.386719 L 5.039062 -6.847656 L 5.453125 -6.640625 L 5.339844 -6.417969 L 4.929688 -6.625 L 5.351562 -6.8125 C 5.375 -6.757812 5.421875 -6.667969 5.496094 -6.550781 C 5.597656 -6.382812 5.691406 -6.152344 5.777344 -5.863281 C 5.863281 -5.574219 5.90625 -5.191406 5.90625 -4.71875 L 5.90625 -1.167969 C 5.90625 -0.695312 5.730469 -0.300781 5.375 0.0117188 C 5.039062 0.3125 4.632812 0.460938 4.15625 0.460938 C 3.667969 0.460938 3.257812 0.3125 2.921875 0.0117188 C 2.566406 -0.300781 2.390625 -0.695312 2.390625 -1.167969 L 2.390625 -4.71875 C 2.390625 -5.191406 2.433594 -5.574219 2.519531 -5.863281 C 2.605469 -6.15625 2.703125 -6.386719 2.8125 -6.558594 C 2.886719 -6.675781 2.9375 -6.761719 2.960938 -6.8125 L 3.378906 -6.625 L 2.976562 -6.402344 L 2.855469 -6.621094 L 3.257812 -6.847656 L 3.257812 -6.386719 C 3.199219 -6.386719 3.15625 -6.378906 3.132812 -6.363281 C 3.050781 -6.3125 2.964844 -6.25 2.871094 -6.175781 C 2.726562 -6.058594 2.546875 -5.960938 2.335938 -5.878906 C 2.121094 -5.800781 1.84375 -5.757812 1.5 -5.757812 Z M 1.5 -6.679688 C 1.730469 -6.679688 1.902344 -6.703125 2.015625 -6.742188 C 2.132812 -6.789062 2.222656 -6.835938 2.292969 -6.890625 C 2.414062 -6.988281 2.53125 -7.074219 2.644531 -7.144531 C 2.816406 -7.253906 3.023438 -7.308594 3.257812 -7.308594 L 3.527344 -7.308594 L 3.894531 -6.648438 L 3.800781 -6.4375 C 3.757812 -6.34375 3.6875 -6.21875 3.589844 -6.066406 C 3.527344 -5.964844 3.464844 -5.8125 3.40625 -5.605469 C 3.34375 -5.398438 3.3125 -5.101562 3.3125 -4.71875 L 3.3125 -1.167969 C 3.3125 -0.96875 3.386719 -0.804688 3.53125 -0.675781 C 3.695312 -0.53125 3.902344 -0.460938 4.15625 -0.460938 C 4.398438 -0.460938 4.601562 -0.53125 4.765625 -0.675781 C 4.910156 -0.804688 4.984375 -0.96875 4.984375 -1.167969 L 4.984375 -4.71875 C 4.984375 -5.101562 4.953125 -5.398438 4.894531 -5.605469 C 4.832031 -5.816406 4.769531 -5.972656 4.707031 -6.074219 C 4.613281 -6.226562 4.546875 -6.347656 4.507812 -6.4375 L 4.417969 -6.636719 L 4.753906 -7.308594 L 5.039062 -7.308594 C 5.277344 -7.308594 5.480469 -7.253906 5.652344 -7.144531 C 5.765625 -7.074219 5.882812 -6.988281 6.003906 -6.890625 C 6.074219 -6.839844 6.167969 -6.789062 6.285156 -6.746094 C 6.402344 -6.703125 6.574219 -6.679688 6.796875 -6.679688 C 7.085938 -6.679688 7.316406 -6.757812 7.488281 -6.914062 C 7.644531 -7.0625 7.726562 -7.277344 7.726562 -7.558594 C 7.726562 -7.847656 7.652344 -8.074219 7.5 -8.234375 C 7.355469 -8.386719 7.125 -8.464844 6.796875 -8.464844 L 1.5 -8.464844 C 1.175781 -8.464844 0.941406 -8.386719 0.796875 -8.234375 C 0.648438 -8.074219 0.570312 -7.847656 0.570312 -7.558594 C 0.570312 -7.277344 0.652344 -7.0625 0.808594 -6.914062 C 0.980469 -6.757812 1.210938 -6.679688 1.5 -6.679688 Z M 1.5 -6.679688 "/></g></g><g style="fill:#808080;fill-opacity:1;"><g transform="translate(49.526563, 13.613607)"><path style="stroke:none" d="M -0.179688 -3.195312 C -0.179688 -3.917969 -0.03125 -4.558594 0.261719 -5.117188 C 0.5625 -5.6875 0.988281 -6.136719 1.542969 -6.457031 C 2.09375 -6.777344 2.746094 -6.9375 3.492188 -6.9375 C 4.074219 -6.9375 4.601562 -6.832031 5.078125 -6.613281 C 5.5625 -6.394531 5.945312 -6.09375 6.230469 -5.714844 C 6.53125 -5.320312 6.679688 -4.878906 6.679688 -4.402344 C 6.679688 -3.847656 6.5 -3.445312 6.144531 -3.191406 C 5.835938 -2.96875 5.40625 -2.859375 4.855469 -2.859375 L 2.273438 -2.859375 L 2.273438 -3.320312 L 2.734375 -3.320312 C 2.734375 -3.25 2.761719 -3.191406 2.820312 -3.144531 C 2.851562 -3.121094 2.902344 -3.097656 2.976562 -3.082031 C 3.082031 -3.054688 3.214844 -3.042969 3.378906 -3.042969 C 3.550781 -3.042969 3.707031 -3.058594 3.847656 -3.09375 C 4.027344 -3.132812 4.214844 -3.175781 4.402344 -3.210938 C 4.617188 -3.253906 4.855469 -3.277344 5.113281 -3.277344 C 5.578125 -3.277344 5.960938 -3.109375 6.265625 -2.773438 C 6.558594 -2.453125 6.707031 -2.027344 6.707031 -1.5 C 6.707031 -1.164062 6.617188 -0.867188 6.445312 -0.601562 C 6.277344 -0.347656 6.035156 -0.136719 5.722656 0.0351562 C 5.15625 0.34375 4.433594 0.496094 3.550781 0.496094 C 2.921875 0.496094 2.328125 0.375 1.773438 0.125 C 1.195312 -0.132812 0.722656 -0.539062 0.363281 -1.09375 C 0.00390625 -1.652344 -0.179688 -2.351562 -0.179688 -3.195312 Z M 0.742188 -3.195312 C 0.742188 -2.53125 0.875 -2 1.136719 -1.597656 C 1.398438 -1.195312 1.734375 -0.898438 2.148438 -0.714844 C 2.585938 -0.519531 3.050781 -0.425781 3.550781 -0.425781 C 4.277344 -0.425781 4.851562 -0.539062 5.28125 -0.773438 C 5.460938 -0.871094 5.589844 -0.984375 5.671875 -1.109375 C 5.746094 -1.21875 5.785156 -1.351562 5.785156 -1.5 C 5.785156 -1.789062 5.71875 -2.007812 5.585938 -2.152344 C 5.460938 -2.289062 5.304688 -2.355469 5.113281 -2.355469 C 4.914062 -2.355469 4.738281 -2.339844 4.582031 -2.308594 C 4.402344 -2.273438 4.226562 -2.234375 4.054688 -2.195312 C 3.847656 -2.144531 3.621094 -2.121094 3.378906 -2.121094 C 2.867188 -2.121094 2.484375 -2.226562 2.230469 -2.4375 C 1.953125 -2.667969 1.8125 -2.960938 1.8125 -3.320312 L 1.8125 -3.78125 L 4.855469 -3.78125 C 5.207031 -3.78125 5.457031 -3.832031 5.609375 -3.941406 C 5.707031 -4.011719 5.757812 -4.164062 5.757812 -4.402344 C 5.757812 -4.675781 5.671875 -4.929688 5.496094 -5.160156 C 5.304688 -5.414062 5.039062 -5.621094 4.695312 -5.777344 C 4.34375 -5.9375 3.941406 -6.015625 3.492188 -6.015625 C 2.910156 -6.015625 2.414062 -5.898438 2.007812 -5.660156 C 1.605469 -5.425781 1.296875 -5.105469 1.078125 -4.691406 C 0.855469 -4.265625 0.742188 -3.769531 0.742188 -3.195312 Z M 4.265625 -4.1875 C 4.242188 -4.1875 4.21875 -4.179688 4.191406 -4.171875 C 4.117188 -4.144531 4.058594 -4.101562 4.011719 -4.035156 C 3.964844 -3.96875 3.941406 -3.898438 3.941406 -3.820312 C 3.941406 -3.789062 3.945312 -3.761719 3.953125 -3.742188 L 3.949219 -3.753906 L 3.945312 -3.769531 C 3.945312 -3.765625 3.949219 -3.761719 3.949219 -3.757812 C 3.945312 -3.761719 3.941406 -3.769531 3.933594 -3.777344 C 3.910156 -3.808594 3.871094 -3.84375 3.816406 -3.882812 C 3.734375 -3.945312 3.589844 -3.976562 3.378906 -3.976562 C 3.136719 -3.976562 2.96875 -3.9375 2.878906 -3.859375 C 2.832031 -3.816406 2.800781 -3.777344 2.78125 -3.746094 C 2.773438 -3.734375 2.773438 -3.726562 2.773438 -3.722656 L 2.3125 -3.722656 L 2.3125 -4.1875 Z M 4.265625 -3.261719 L 1.851562 -3.261719 L 1.851562 -3.722656 C 1.851562 -4.027344 1.988281 -4.300781 2.269531 -4.550781 C 2.535156 -4.78125 2.902344 -4.898438 3.378906 -4.898438 C 3.792969 -4.898438 4.125 -4.804688 4.371094 -4.621094 C 4.617188 -4.4375 4.769531 -4.238281 4.832031 -4.023438 L 4.386719 -3.898438 L 4.824219 -4.050781 C 4.898438 -3.84375 4.878906 -3.660156 4.761719 -3.5 C 4.652344 -3.34375 4.484375 -3.261719 4.265625 -3.261719 Z M 4.265625 -3.261719 "/></g></g><g style="fill:#808080;fill-opacity:1;"><g transform="translate(55.992426, 13.613607)"><path style="stroke:none" d="M 1.488281 0.460938 C 0.953125 0.460938 0.539062 0.304688 0.25 -0.00390625 C -0.0351562 -0.304688 -0.179688 -0.675781 -0.179688 -1.117188 L -0.179688 -8.25 C -0.179688 -8.714844 -0.0390625 -9.109375 0.234375 -9.425781 C 0.527344 -9.769531 0.945312 -9.9375 1.488281 -9.9375 C 1.992188 -9.9375 2.386719 -9.765625 2.675781 -9.425781 C 2.945312 -9.105469 3.078125 -8.722656 3.078125 -8.273438 L 3.078125 -1.117188 C 3.078125 -0.679688 2.941406 -0.308594 2.660156 -0.0078125 C 2.375 0.304688 1.984375 0.460938 1.488281 0.460938 Z M 1.488281 -0.460938 C 1.714844 -0.460938 1.878906 -0.519531 1.984375 -0.632812 C 2.101562 -0.757812 2.15625 -0.917969 2.15625 -1.117188 L 2.15625 -8.273438 C 2.15625 -8.496094 2.09375 -8.683594 1.96875 -8.832031 C 1.867188 -8.953125 1.703125 -9.015625 1.488281 -9.015625 C 1.226562 -9.015625 1.042969 -8.953125 0.933594 -8.828125 C 0.808594 -8.679688 0.742188 -8.488281 0.742188 -8.25 L 0.742188 -1.117188 C 0.742188 -0.921875 0.800781 -0.761719 0.917969 -0.636719 C 1.027344 -0.519531 1.21875 -0.460938 1.488281 -0.460938 Z M 1.488281 -0.460938 "/></g></g><g style="fill:#808080;fill-opacity:1;"><g transform="translate(58.893457, 13.613607)"><path style="stroke:none" d="M -0.179688 -3.195312 C -0.179688 -3.917969 -0.03125 -4.558594 0.261719 -5.117188 C 0.5625 -5.6875 0.988281 -6.136719 1.542969 -6.457031 C 2.09375 -6.777344 2.746094 -6.9375 3.492188 -6.9375 C 4.074219 -6.9375 4.601562 -6.832031 5.078125 -6.613281 C 5.5625 -6.394531 5.945312 -6.09375 6.230469 -5.714844 C 6.53125 -5.320312 6.679688 -4.878906 6.679688 -4.402344 C 6.679688 -3.847656 6.5 -3.445312 6.144531 -3.191406 C 5.835938 -2.96875 5.40625 -2.859375 4.855469 -2.859375 L 2.273438 -2.859375 L 2.273438 -3.320312 L 2.734375 -3.320312 C 2.734375 -3.25 2.761719 -3.191406 2.820312 -3.144531 C 2.851562 -3.121094 2.902344 -3.097656 2.976562 -3.082031 C 3.082031 -3.054688 3.214844 -3.042969 3.378906 -3.042969 C 3.550781 -3.042969 3.707031 -3.058594 3.847656 -3.09375 C 4.027344 -3.132812 4.214844 -3.175781 4.402344 -3.210938 C 4.617188 -3.253906 4.855469 -3.277344 5.113281 -3.277344 C 5.578125 -3.277344 5.960938 -3.109375 6.265625 -2.773438 C 6.558594 -2.453125 6.707031 -2.027344 6.707031 -1.5 C 6.707031 -1.164062 6.617188 -0.867188 6.445312 -0.601562 C 6.277344 -0.347656 6.035156 -0.136719 5.722656 0.0351562 C 5.15625 0.34375 4.433594 0.496094 3.550781 0.496094 C 2.921875 0.496094 2.328125 0.375 1.773438 0.125 C 1.195312 -0.132812 0.722656 -0.539062 0.363281 -1.09375 C 0.00390625 -1.652344 -0.179688 -2.351562 -0.179688 -3.195312 Z M 0.742188 -3.195312 C 0.742188 -2.53125 0.875 -2 1.136719 -1.597656 C 1.398438 -1.195312 1.734375 -0.898438 2.148438 -0.714844 C 2.585938 -0.519531 3.050781 -0.425781 3.550781 -0.425781 C 4.277344 -0.425781 4.851562 -0.539062 5.28125 -0.773438 C 5.460938 -0.871094 5.589844 -0.984375 5.671875 -1.109375 C 5.746094 -1.21875 5.785156 -1.351562 5.785156 -1.5 C 5.785156 -1.789062 5.71875 -2.007812 5.585938 -2.152344 C 5.460938 -2.289062 5.304688 -2.355469 5.113281 -2.355469 C 4.914062 -2.355469 4.738281 -2.339844 4.582031 -2.308594 C 4.402344 -2.273438 4.226562 -2.234375 4.054688 -2.195312 C 3.847656 -2.144531 3.621094 -2.121094 3.378906 -2.121094 C 2.867188 -2.121094 2.484375 -2.226562 2.230469 -2.4375 C 1.953125 -2.667969 1.8125 -2.960938 1.8125 -3.320312 L 1.8125 -3.78125 L 4.855469 -3.78125 C 5.207031 -3.78125 5.457031 -3.832031 5.609375 -3.941406 C 5.707031 -4.011719 5.757812 -4.164062 5.757812 -4.402344 C 5.757812 -4.675781 5.671875 -4.929688 5.496094 -5.160156 C 5.304688 -5.414062 5.039062 -5.621094 4.695312 -5.777344 C 4.34375 -5.9375 3.941406 -6.015625 3.492188 -6.015625 C 2.910156 -6.015625 2.414062 -5.898438 2.007812 -5.660156 C 1.605469 -5.425781 1.296875 -5.105469 1.078125 -4.691406 C 0.855469 -4.265625 0.742188 -3.769531 0.742188 -3.195312 Z M 4.265625 -4.1875 C 4.242188 -4.1875 4.21875 -4.179688 4.191406 -4.171875 C 4.117188 -4.144531 4.058594 -4.101562 4.011719 -4.035156 C 3.964844 -3.96875 3.941406 -3.898438 3.941406 -3.820312 C 3.941406 -3.789062 3.945312 -3.761719 3.953125 -3.742188 L 3.949219 -3.753906 L 3.945312 -3.769531 C 3.945312 -3.765625 3.949219 -3.761719 3.949219 -3.757812 C 3.945312 -3.761719 3.941406 -3.769531 3.933594 -3.777344 C 3.910156 -3.808594 3.871094 -3.84375 3.816406 -3.882812 C 3.734375 -3.945312 3.589844 -3.976562 3.378906 -3.976562 C 3.136719 -3.976562 2.96875 -3.9375 2.878906 -3.859375 C 2.832031 -3.816406 2.800781 -3.777344 2.78125 -3.746094 C 2.773438 -3.734375 2.773438 -3.726562 2.773438 -3.722656 L 2.3125 -3.722656 L 2.3125 -4.1875 Z M 4.265625 -3.261719 L 1.851562 -3.261719 L 1.851562 -3.722656 C 1.851562 -4.027344 1.988281 -4.300781 2.269531 -4.550781 C 2.535156 -4.78125 2.902344 -4.898438 3.378906 -4.898438 C 3.792969 -4.898438 4.125 -4.804688 4.371094 -4.621094 C 4.617188 -4.4375 4.769531 -4.238281 4.832031 -4.023438 L 4.386719 -3.898438 L 4.824219 -4.050781 C 4.898438 -3.84375 4.878906 -3.660156 4.761719 -3.5 C 4.652344 -3.34375 4.484375 -3.261719 4.265625 -3.261719 Z M 4.265625 -3.261719 "/></g></g><g style="fill:#808080;fill-opacity:1;"><g transform="translate(65.236402, 13.613607)"><path style="stroke:none" d="M 3.492188 0.496094 C 2.773438 0.496094 2.136719 0.347656 1.574219 0.0429688 C 1.007812 -0.265625 0.558594 -0.703125 0.238281 -1.273438 C -0.0820312 -1.835938 -0.238281 -2.488281 -0.238281 -3.234375 C -0.238281 -3.976562 -0.0820312 -4.632812 0.238281 -5.195312 C 0.558594 -5.761719 1.007812 -6.203125 1.582031 -6.515625 C 2.144531 -6.820312 2.789062 -6.976562 3.515625 -6.976562 C 4.066406 -6.976562 4.554688 -6.917969 4.984375 -6.800781 C 5.445312 -6.671875 5.820312 -6.476562 6.101562 -6.210938 C 6.421875 -5.90625 6.582031 -5.527344 6.582031 -5.078125 C 6.582031 -4.574219 6.445312 -4.167969 6.167969 -3.863281 C 5.878906 -3.546875 5.484375 -3.386719 4.976562 -3.386719 C 4.6875 -3.386719 4.398438 -3.429688 4.113281 -3.515625 C 3.914062 -3.578125 3.648438 -3.609375 3.320312 -3.609375 C 3.074219 -3.609375 2.878906 -3.574219 2.726562 -3.503906 C 2.707031 -3.492188 2.695312 -3.484375 2.6875 -3.476562 C 2.679688 -3.460938 2.671875 -3.425781 2.671875 -3.378906 C 2.671875 -3.324219 2.679688 -3.28125 2.695312 -3.253906 C 2.707031 -3.234375 2.726562 -3.214844 2.757812 -3.199219 C 2.898438 -3.121094 3.085938 -3.078125 3.320312 -3.078125 C 3.53125 -3.078125 3.699219 -3.097656 3.832031 -3.136719 C 4 -3.183594 4.160156 -3.230469 4.3125 -3.277344 C 4.511719 -3.34375 4.734375 -3.375 4.976562 -3.375 C 5.539062 -3.375 5.96875 -3.199219 6.261719 -2.84375 C 6.53125 -2.519531 6.667969 -2.109375 6.667969 -1.621094 C 6.667969 -1.179688 6.507812 -0.789062 6.183594 -0.449219 C 5.894531 -0.148438 5.511719 0.0898438 5.03125 0.257812 C 4.574219 0.417969 4.058594 0.496094 3.492188 0.496094 Z M 3.492188 -0.425781 C 3.957031 -0.425781 4.367188 -0.488281 4.726562 -0.613281 C 5.066406 -0.730469 5.332031 -0.890625 5.515625 -1.085938 C 5.671875 -1.246094 5.746094 -1.425781 5.746094 -1.621094 C 5.746094 -1.886719 5.683594 -2.101562 5.550781 -2.257812 C 5.441406 -2.386719 5.253906 -2.453125 4.976562 -2.453125 C 4.828125 -2.453125 4.699219 -2.433594 4.589844 -2.398438 C 4.429688 -2.347656 4.261719 -2.300781 4.085938 -2.25 C 3.871094 -2.1875 3.617188 -2.15625 3.320312 -2.15625 C 2.925781 -2.15625 2.589844 -2.234375 2.308594 -2.394531 C 2.125 -2.496094 1.984375 -2.636719 1.886719 -2.808594 C 1.796875 -2.976562 1.75 -3.167969 1.75 -3.378906 C 1.75 -3.59375 1.800781 -3.785156 1.894531 -3.945312 C 1.996094 -4.121094 2.144531 -4.25 2.339844 -4.339844 C 2.613281 -4.464844 2.941406 -4.53125 3.320312 -4.53125 C 3.742188 -4.53125 4.097656 -4.484375 4.382812 -4.398438 C 4.578125 -4.339844 4.777344 -4.308594 4.976562 -4.308594 C 5.210938 -4.308594 5.378906 -4.367188 5.484375 -4.484375 C 5.601562 -4.613281 5.660156 -4.808594 5.660156 -5.078125 C 5.660156 -5.265625 5.597656 -5.417969 5.46875 -5.539062 C 5.296875 -5.699219 5.054688 -5.824219 4.738281 -5.910156 C 4.390625 -6.007812 3.984375 -6.054688 3.515625 -6.054688 C 2.945312 -6.054688 2.449219 -5.9375 2.023438 -5.703125 C 1.601562 -5.476562 1.277344 -5.152344 1.039062 -4.738281 C 0.800781 -4.316406 0.683594 -3.816406 0.683594 -3.234375 C 0.683594 -2.648438 0.800781 -2.148438 1.039062 -1.726562 C 1.277344 -1.3125 1.601562 -0.992188 2.015625 -0.769531 C 2.4375 -0.539062 2.929688 -0.425781 3.492188 -0.425781 Z M 3.492188 -0.425781 "/></g></g><g style="fill:#808080;fill-opacity:1;"><g transform="translate(71.481014, 13.613607)"><path style="stroke:none" d="M 3.429688 0.484375 C 2.34375 0.484375 1.46875 0.15625 0.8125 -0.503906 C 0.152344 -1.164062 -0.179688 -2.078125 -0.179688 -3.246094 C -0.179688 -3.960938 -0.0273438 -4.597656 0.269531 -5.148438 C 0.574219 -5.707031 1 -6.148438 1.542969 -6.464844 C 2.085938 -6.78125 2.714844 -6.9375 3.429688 -6.9375 C 4.21875 -6.9375 4.882812 -6.78125 5.421875 -6.464844 C 5.96875 -6.140625 6.378906 -5.699219 6.652344 -5.128906 C 6.917969 -4.582031 7.050781 -3.953125 7.050781 -3.246094 C 7.050781 -2.085938 6.75 -1.175781 6.148438 -0.519531 C 5.535156 0.152344 4.628906 0.484375 3.429688 0.484375 Z M 3.429688 -0.4375 C 4.359375 -0.4375 5.039062 -0.671875 5.46875 -1.140625 C 5.90625 -1.621094 6.128906 -2.324219 6.128906 -3.246094 C 6.128906 -3.8125 6.027344 -4.308594 5.824219 -4.730469 C 5.628906 -5.128906 5.339844 -5.441406 4.953125 -5.667969 C 4.558594 -5.902344 4.050781 -6.015625 3.429688 -6.015625 C 2.882812 -6.015625 2.40625 -5.902344 2.007812 -5.667969 C 1.613281 -5.4375 1.300781 -5.117188 1.082031 -4.710938 C 0.855469 -4.292969 0.742188 -3.804688 0.742188 -3.246094 C 0.742188 -2.332031 0.984375 -1.636719 1.464844 -1.15625 C 1.941406 -0.675781 2.597656 -0.4375 3.429688 -0.4375 Z M 2.207031 -3.453125 C 2.207031 -3.425781 2.210938 -3.40625 2.214844 -3.398438 C 2.226562 -3.382812 2.253906 -3.363281 2.300781 -3.347656 C 2.496094 -3.265625 2.875 -3.226562 3.429688 -3.226562 C 3.984375 -3.226562 4.363281 -3.265625 4.558594 -3.347656 C 4.605469 -3.363281 4.632812 -3.382812 4.644531 -3.398438 C 4.648438 -3.40625 4.652344 -3.425781 4.652344 -3.453125 C 4.652344 -3.476562 4.652344 -3.488281 4.648438 -3.492188 C 4.636719 -3.507812 4.609375 -3.523438 4.566406 -3.539062 C 4.367188 -3.617188 3.988281 -3.65625 3.429688 -3.65625 C 2.871094 -3.65625 2.492188 -3.617188 2.292969 -3.539062 C 2.25 -3.523438 2.222656 -3.507812 2.210938 -3.492188 C 2.207031 -3.488281 2.207031 -3.476562 2.207031 -3.453125 Z M 1.285156 -3.453125 C 1.285156 -3.679688 1.347656 -3.875 1.46875 -4.042969 C 1.585938 -4.199219 1.75 -4.320312 1.960938 -4.398438 C 2.269531 -4.519531 2.757812 -4.578125 3.429688 -4.578125 C 4.101562 -4.578125 4.589844 -4.519531 4.898438 -4.398438 C 5.109375 -4.320312 5.273438 -4.199219 5.390625 -4.042969 C 5.511719 -3.875 5.574219 -3.679688 5.574219 -3.453125 C 5.574219 -3.230469 5.515625 -3.03125 5.394531 -2.863281 C 5.277344 -2.699219 5.117188 -2.578125 4.90625 -2.492188 C 4.59375 -2.367188 4.105469 -2.304688 3.429688 -2.304688 C 2.753906 -2.304688 2.261719 -2.367188 1.953125 -2.492188 C 1.742188 -2.578125 1.582031 -2.699219 1.464844 -2.863281 C 1.34375 -3.03125 1.285156 -3.230469 1.285156 -3.453125 Z M 1.285156 -3.453125 "/></g></g><g style="fill:#808080;fill-opacity:1;"><g transform="translate(78.340238, 13.613607)"><path style="stroke:none" d="M 1.488281 0.460938 C 0.992188 0.460938 0.589844 0.308594 0.28125 0 C -0.0234375 -0.308594 -0.179688 -0.683594 -0.179688 -1.132812 L -0.179688 -5.199219 C -0.179688 -5.660156 -0.0351562 -6.050781 0.25 -6.375 C 0.550781 -6.71875 0.964844 -6.890625 1.488281 -6.890625 C 2.011719 -6.890625 2.414062 -6.714844 2.695312 -6.359375 C 2.953125 -6.039062 3.078125 -5.644531 3.078125 -5.175781 L 3.078125 -4.558594 L 2.617188 -4.558594 L 2.617188 -5.019531 L 2.839844 -5.019531 L 2.839844 -4.558594 L 2.378906 -4.558594 C 2.378906 -5.390625 2.574219 -5.988281 2.96875 -6.355469 C 3.351562 -6.710938 3.820312 -6.890625 4.375 -6.890625 C 5.085938 -6.890625 5.617188 -6.65625 5.972656 -6.191406 C 6.296875 -5.765625 6.460938 -5.222656 6.460938 -4.558594 L 6 -4.558594 L 6 -5.019531 L 6.21875 -5.019531 L 6.21875 -4.558594 L 5.757812 -4.558594 C 5.757812 -5.109375 5.855469 -5.554688 6.054688 -5.898438 C 6.257812 -6.25 6.519531 -6.503906 6.847656 -6.664062 C 7.152344 -6.816406 7.472656 -6.890625 7.804688 -6.890625 C 8.46875 -6.890625 8.96875 -6.71875 9.308594 -6.371094 C 9.625 -6.046875 9.828125 -5.628906 9.917969 -5.105469 C 9.996094 -4.652344 10.035156 -4.148438 10.035156 -3.589844 L 10.035156 -1.132812 C 10.035156 -0.683594 9.882812 -0.308594 9.574219 0 C 9.269531 0.308594 8.871094 0.460938 8.382812 0.460938 C 7.898438 0.460938 7.5 0.308594 7.1875 0.00390625 C 6.875 -0.304688 6.71875 -0.683594 6.71875 -1.132812 L 6.71875 -3.308594 C 6.71875 -3.535156 6.695312 -3.703125 6.648438 -3.804688 C 6.652344 -3.792969 6.664062 -3.785156 6.679688 -3.777344 C 6.664062 -3.777344 6.648438 -3.78125 6.625 -3.78125 C 6.601562 -3.78125 6.582031 -3.777344 6.566406 -3.773438 L 6.566406 -3.777344 C 6.582031 -3.785156 6.589844 -3.792969 6.59375 -3.804688 C 6.546875 -3.675781 6.519531 -3.503906 6.519531 -3.28125 L 6.519531 -1.132812 C 6.519531 -0.6875 6.375 -0.316406 6.089844 -0.0078125 C 5.792969 0.304688 5.398438 0.460938 4.90625 0.460938 C 4.410156 0.460938 4.007812 0.308594 3.699219 0 C 3.394531 -0.308594 3.238281 -0.683594 3.238281 -1.132812 L 3.238281 -3.308594 C 3.238281 -3.535156 3.214844 -3.703125 3.167969 -3.804688 C 3.171875 -3.796875 3.183594 -3.789062 3.199219 -3.777344 C 3.199219 -3.777344 3.203125 -3.777344 3.203125 -3.777344 C 3.191406 -3.777344 3.175781 -3.78125 3.160156 -3.78125 C 3.136719 -3.78125 3.117188 -3.777344 3.101562 -3.773438 C 3.101562 -3.773438 3.097656 -3.773438 3.097656 -3.773438 C 3.101562 -3.773438 3.101562 -3.777344 3.105469 -3.777344 C 3.128906 -3.792969 3.140625 -3.804688 3.148438 -3.820312 C 3.101562 -3.691406 3.078125 -3.507812 3.078125 -3.28125 L 3.078125 -1.132812 C 3.078125 -0.691406 2.941406 -0.320312 2.664062 -0.015625 C 2.375 0.300781 1.984375 0.460938 1.488281 0.460938 Z M 1.488281 -0.460938 C 1.710938 -0.460938 1.875 -0.519531 1.980469 -0.636719 C 2.097656 -0.765625 2.15625 -0.929688 2.15625 -1.132812 L 2.15625 -3.28125 C 2.15625 -3.613281 2.195312 -3.890625 2.273438 -4.121094 C 2.339844 -4.316406 2.460938 -4.464844 2.628906 -4.566406 C 2.777344 -4.65625 2.953125 -4.703125 3.160156 -4.703125 C 3.347656 -4.703125 3.511719 -4.660156 3.65625 -4.578125 C 3.8125 -4.488281 3.933594 -4.355469 4.007812 -4.183594 C 4.109375 -3.960938 4.160156 -3.667969 4.160156 -3.308594 L 4.160156 -1.132812 C 4.160156 -0.9375 4.222656 -0.777344 4.351562 -0.652344 C 4.480469 -0.523438 4.664062 -0.460938 4.90625 -0.460938 C 5.132812 -0.460938 5.304688 -0.519531 5.417969 -0.640625 C 5.539062 -0.769531 5.597656 -0.933594 5.597656 -1.132812 L 5.597656 -3.28125 C 5.597656 -3.617188 5.644531 -3.902344 5.734375 -4.136719 C 5.808594 -4.328125 5.929688 -4.472656 6.097656 -4.570312 C 6.246094 -4.65625 6.421875 -4.703125 6.625 -4.703125 C 6.816406 -4.703125 6.984375 -4.660156 7.125 -4.582031 C 7.289062 -4.492188 7.410156 -4.359375 7.488281 -4.183594 C 7.589844 -3.960938 7.640625 -3.667969 7.640625 -3.308594 L 7.640625 -1.132812 C 7.640625 -0.941406 7.703125 -0.78125 7.832031 -0.65625 C 7.964844 -0.527344 8.148438 -0.460938 8.382812 -0.460938 C 8.617188 -0.460938 8.796875 -0.523438 8.925781 -0.652344 C 9.050781 -0.777344 9.113281 -0.9375 9.113281 -1.132812 L 9.113281 -3.589844 C 9.113281 -4.09375 9.082031 -4.550781 9.011719 -4.949219 C 8.953125 -5.28125 8.832031 -5.539062 8.652344 -5.722656 C 8.492188 -5.886719 8.210938 -5.96875 7.804688 -5.96875 C 7.613281 -5.96875 7.429688 -5.925781 7.253906 -5.835938 C 7.09375 -5.757812 6.960938 -5.625 6.851562 -5.4375 C 6.738281 -5.238281 6.679688 -4.945312 6.679688 -4.558594 L 6.679688 -4.097656 L 5.539062 -4.097656 L 5.539062 -4.558594 C 5.539062 -5.015625 5.4375 -5.371094 5.238281 -5.632812 C 5.070312 -5.855469 4.78125 -5.96875 4.375 -5.96875 C 4.0625 -5.96875 3.800781 -5.871094 3.597656 -5.679688 C 3.398438 -5.496094 3.300781 -5.125 3.300781 -4.558594 L 3.300781 -4.097656 L 2.15625 -4.097656 L 2.15625 -5.175781 C 2.15625 -5.429688 2.097656 -5.632812 1.972656 -5.785156 C 1.878906 -5.90625 1.714844 -5.96875 1.488281 -5.96875 C 1.242188 -5.96875 1.058594 -5.902344 0.941406 -5.769531 C 0.808594 -5.617188 0.742188 -5.429688 0.742188 -5.199219 L 0.742188 -1.132812 C 0.742188 -0.9375 0.808594 -0.777344 0.933594 -0.652344 C 1.0625 -0.523438 1.246094 -0.460938 1.488281 -0.460938 Z M 1.488281 -0.460938 "/></g></g><g style="fill:#ffffff;fill-opacity:1;"><g transform="translate(1.450501, 13.613607)"><path style="stroke:none" d="M 1.5 -6.21875 C 1.09375 -6.21875 0.757812 -6.335938 0.5 -6.578125 C 0.238281 -6.816406 0.109375 -7.144531 0.109375 -7.5625 C 0.109375 -7.96875 0.222656 -8.296875 0.453125 -8.546875 C 0.691406 -8.796875 1.039062 -8.921875 1.5 -8.921875 L 6.796875 -8.921875 C 7.253906 -8.921875 7.597656 -8.796875 7.828125 -8.546875 C 8.066406 -8.296875 8.1875 -7.96875 8.1875 -7.5625 C 8.1875 -7.144531 8.054688 -6.816406 7.796875 -6.578125 C 7.546875 -6.335938 7.210938 -6.21875 6.796875 -6.21875 C 6.515625 -6.21875 6.289062 -6.25 6.125 -6.3125 C 5.957031 -6.375 5.820312 -6.445312 5.71875 -6.53125 C 5.613281 -6.625 5.507812 -6.695312 5.40625 -6.75 C 5.3125 -6.8125 5.191406 -6.84375 5.046875 -6.84375 L 4.9375 -6.625 C 4.96875 -6.550781 5.019531 -6.445312 5.09375 -6.3125 C 5.175781 -6.175781 5.253906 -5.984375 5.328125 -5.734375 C 5.410156 -5.484375 5.453125 -5.144531 5.453125 -4.71875 L 5.453125 -1.171875 C 5.453125 -0.828125 5.328125 -0.546875 5.078125 -0.328125 C 4.828125 -0.109375 4.519531 0 4.15625 0 C 3.789062 0 3.484375 -0.109375 3.234375 -0.328125 C 2.984375 -0.546875 2.859375 -0.828125 2.859375 -1.171875 L 2.859375 -4.71875 C 2.859375 -5.144531 2.894531 -5.484375 2.96875 -5.734375 C 3.039062 -5.984375 3.117188 -6.175781 3.203125 -6.3125 C 3.285156 -6.445312 3.34375 -6.550781 3.375 -6.625 L 3.265625 -6.84375 C 3.109375 -6.84375 2.984375 -6.8125 2.890625 -6.75 C 2.796875 -6.695312 2.691406 -6.625 2.578125 -6.53125 C 2.472656 -6.445312 2.335938 -6.375 2.171875 -6.3125 C 2.015625 -6.25 1.789062 -6.21875 1.5 -6.21875 Z M 1.5 -6.21875 "/></g></g><g style="fill:#ffffff;fill-opacity:1;"><g transform="translate(8.641626, 13.613607)"><path style="stroke:none" d="M 2.296875 0 C 1.722656 0 1.253906 -0.210938 0.890625 -0.640625 C 0.535156 -1.078125 0.351562 -1.691406 0.34375 -2.484375 L 0.328125 -5.328125 C 0.328125 -5.679688 0.4375 -5.957031 0.65625 -6.15625 C 0.875 -6.351562 1.171875 -6.453125 1.546875 -6.453125 C 1.910156 -6.453125 2.203125 -6.351562 2.421875 -6.15625 C 2.640625 -5.957031 2.75 -5.679688 2.75 -5.328125 L 2.75 -2.75 C 2.75 -2.132812 2.992188 -1.828125 3.484375 -1.828125 C 3.722656 -1.828125 3.878906 -1.914062 3.953125 -2.09375 C 4.035156 -2.269531 4.078125 -2.5 4.078125 -2.78125 L 4.078125 -5.328125 C 4.078125 -5.640625 4.1875 -5.90625 4.40625 -6.125 C 4.632812 -6.34375 4.925781 -6.453125 5.28125 -6.453125 C 5.644531 -6.453125 5.925781 -6.34375 6.125 -6.125 C 6.332031 -5.90625 6.4375 -5.640625 6.4375 -5.328125 L 6.4375 -1.296875 C 6.4375 -0.898438 6.347656 -0.582031 6.171875 -0.34375 C 5.992188 -0.113281 5.707031 0 5.3125 0 C 4.925781 0 4.625 -0.113281 4.40625 -0.34375 C 4.1875 -0.582031 4.078125 -0.898438 4.078125 -1.296875 L 4.078125 -1.5 L 3.859375 -1.5 C 3.859375 -1.019531 3.71875 -0.648438 3.4375 -0.390625 C 3.15625 -0.128906 2.773438 0 2.296875 0 Z M 2.296875 0 "/></g></g><g style="fill:#ffffff;fill-opacity:1;"><g transform="translate(15.377931, 13.613607)"><path style="stroke:none" d="M 1.53125 0 C 1.164062 0 0.875 -0.109375 0.65625 -0.328125 C 0.4375 -0.546875 0.328125 -0.8125 0.328125 -1.125 L 0.328125 -5.203125 C 0.328125 -5.546875 0.429688 -5.835938 0.640625 -6.078125 C 0.847656 -6.316406 1.144531 -6.4375 1.53125 -6.4375 C 1.90625 -6.4375 2.191406 -6.316406 2.390625 -6.078125 C 2.585938 -5.835938 2.6875 -5.535156 2.6875 -5.171875 L 2.6875 -4.5625 L 2.90625 -4.5625 C 2.90625 -5.03125 2.988281 -5.398438 3.15625 -5.671875 C 3.320312 -5.941406 3.535156 -6.132812 3.796875 -6.25 C 4.054688 -6.375 4.320312 -6.4375 4.59375 -6.4375 C 5.21875 -6.4375 5.675781 -6.207031 5.96875 -5.75 C 6.269531 -5.289062 6.421875 -4.644531 6.421875 -3.8125 L 6.421875 -1.125 C 6.421875 -0.8125 6.3125 -0.546875 6.09375 -0.328125 C 5.882812 -0.109375 5.597656 0 5.234375 0 C 4.867188 0 4.578125 -0.109375 4.359375 -0.328125 C 4.140625 -0.546875 4.03125 -0.8125 4.03125 -1.125 L 4.03125 -3.3125 C 4.03125 -3.601562 3.972656 -3.832031 3.859375 -4 C 3.753906 -4.164062 3.59375 -4.25 3.375 -4.25 C 3.132812 -4.25 2.957031 -4.15625 2.84375 -3.96875 C 2.738281 -3.789062 2.6875 -3.5625 2.6875 -3.28125 L 2.6875 -1.125 C 2.6875 -0.8125 2.582031 -0.546875 2.375 -0.328125 C 2.164062 -0.109375 1.882812 0 1.53125 0 Z M 1.53125 0 "/></g></g><g style="fill:#ffffff;fill-opacity:1;"><g transform="translate(22.101935, 13.613607)"><path style="stroke:none" d="M 0.28125 -7.859375 C 0.28125 -8.210938 0.390625 -8.492188 0.609375 -8.703125 C 0.828125 -8.921875 1.128906 -9.03125 1.515625 -9.03125 C 1.921875 -9.03125 2.222656 -8.925781 2.421875 -8.71875 C 2.628906 -8.507812 2.734375 -8.226562 2.734375 -7.875 C 2.734375 -7.53125 2.628906 -7.25 2.421875 -7.03125 C 2.222656 -6.820312 1.921875 -6.71875 1.515625 -6.71875 C 1.109375 -6.71875 0.800781 -6.820312 0.59375 -7.03125 C 0.382812 -7.25 0.28125 -7.523438 0.28125 -7.859375 Z M 1.515625 0 C 1.128906 0 0.84375 -0.101562 0.65625 -0.3125 C 0.46875 -0.53125 0.375 -0.800781 0.375 -1.125 L 0.375 -5.328125 C 0.375 -5.679688 0.46875 -5.957031 0.65625 -6.15625 C 0.84375 -6.363281 1.128906 -6.46875 1.515625 -6.46875 C 1.898438 -6.46875 2.1875 -6.363281 2.375 -6.15625 C 2.570312 -5.957031 2.671875 -5.6875 2.671875 -5.34375 L 2.671875 -1.125 C 2.671875 -0.800781 2.566406 -0.53125 2.359375 -0.3125 C 2.160156 -0.101562 1.878906 0 1.515625 0 Z M 1.515625 0 "/></g></g><g style="fill:#ffffff;fill-opacity:1;"><g transform="translate(25.113599, 13.613607)"><path style="stroke:none" d="M 3.4375 0.15625 C 2.863281 0.15625 2.335938 0.101562 1.859375 0 C 1.378906 -0.113281 0.992188 -0.289062 0.703125 -0.53125 C 0.421875 -0.769531 0.28125 -1.09375 0.28125 -1.5 C 0.28125 -1.851562 0.382812 -2.144531 0.59375 -2.375 C 0.8125 -2.601562 1.097656 -2.71875 1.453125 -2.71875 C 1.671875 -2.71875 1.890625 -2.679688 2.109375 -2.609375 C 2.335938 -2.546875 2.578125 -2.476562 2.828125 -2.40625 C 3.085938 -2.34375 3.367188 -2.3125 3.671875 -2.3125 C 3.929688 -2.3125 4.101562 -2.320312 4.1875 -2.34375 C 4.28125 -2.375 4.328125 -2.429688 4.328125 -2.515625 C 4.328125 -2.617188 4.269531 -2.6875 4.15625 -2.71875 C 4.050781 -2.75 3.867188 -2.789062 3.609375 -2.84375 L 2.71875 -3.015625 C 2.351562 -3.085938 1.992188 -3.179688 1.640625 -3.296875 C 1.296875 -3.421875 1.007812 -3.597656 0.78125 -3.828125 C 0.550781 -4.066406 0.4375 -4.394531 0.4375 -4.8125 C 0.4375 -5.363281 0.6875 -5.796875 1.1875 -6.109375 C 1.6875 -6.421875 2.40625 -6.578125 3.34375 -6.578125 C 3.882812 -6.578125 4.367188 -6.523438 4.796875 -6.421875 C 5.234375 -6.316406 5.578125 -6.15625 5.828125 -5.9375 C 6.078125 -5.726562 6.203125 -5.472656 6.203125 -5.171875 C 6.210938 -4.828125 6.125 -4.550781 5.9375 -4.34375 C 5.75 -4.144531 5.507812 -4.046875 5.21875 -4.046875 C 5.019531 -4.046875 4.816406 -4.070312 4.609375 -4.125 C 4.398438 -4.175781 4.171875 -4.234375 3.921875 -4.296875 C 3.679688 -4.359375 3.40625 -4.394531 3.09375 -4.40625 C 2.875 -4.414062 2.691406 -4.398438 2.546875 -4.359375 C 2.410156 -4.316406 2.34375 -4.253906 2.34375 -4.171875 C 2.34375 -4.066406 2.425781 -3.992188 2.59375 -3.953125 C 2.757812 -3.921875 3.003906 -3.878906 3.328125 -3.828125 L 4.203125 -3.671875 C 4.734375 -3.578125 5.15625 -3.460938 5.46875 -3.328125 C 5.789062 -3.191406 6.019531 -3.003906 6.15625 -2.765625 C 6.300781 -2.523438 6.375 -2.195312 6.375 -1.78125 C 6.375 -1.34375 6.25 -0.976562 6 -0.6875 C 5.75 -0.40625 5.398438 -0.191406 4.953125 -0.046875 C 4.515625 0.0859375 4.007812 0.15625 3.4375 0.15625 Z M 3.4375 0.15625 "/></g></g><g style="fill:#ffffff;fill-opacity:1;"><g transform="translate(31.628637, 13.613607)"><path style="stroke:none" d="M 0.28125 -7.859375 C 0.28125 -8.210938 0.390625 -8.492188 0.609375 -8.703125 C 0.828125 -8.921875 1.128906 -9.03125 1.515625 -9.03125 C 1.921875 -9.03125 2.222656 -8.925781 2.421875 -8.71875 C 2.628906 -8.507812 2.734375 -8.226562 2.734375 -7.875 C 2.734375 -7.53125 2.628906 -7.25 2.421875 -7.03125 C 2.222656 -6.820312 1.921875 -6.71875 1.515625 -6.71875 C 1.109375 -6.71875 0.800781 -6.820312 0.59375 -7.03125 C 0.382812 -7.25 0.28125 -7.523438 0.28125 -7.859375 Z M 1.515625 0 C 1.128906 0 0.84375 -0.101562 0.65625 -0.3125 C 0.46875 -0.53125 0.375 -0.800781 0.375 -1.125 L 0.375 -5.328125 C 0.375 -5.679688 0.46875 -5.957031 0.65625 -6.15625 C 0.84375 -6.363281 1.128906 -6.46875 1.515625 -6.46875 C 1.898438 -6.46875 2.1875 -6.363281 2.375 -6.15625 C 2.570312 -5.957031 2.671875 -5.6875 2.671875 -5.34375 L 2.671875 -1.125 C 2.671875 -0.800781 2.566406 -0.53125 2.359375 -0.3125 C 2.160156 -0.101562 1.878906 0 1.515625 0 Z M 1.515625 0 "/></g></g><g style="fill:#ffffff;fill-opacity:1;"><g transform="translate(34.640302, 13.613607)"><path style="stroke:none" d="M 0.28125 -3.203125 C 0.28125 -3.847656 0.410156 -4.414062 0.671875 -4.90625 C 0.929688 -5.394531 1.300781 -5.78125 1.78125 -6.0625 C 2.257812 -6.34375 2.832031 -6.484375 3.5 -6.484375 C 4.007812 -6.484375 4.472656 -6.390625 4.890625 -6.203125 C 5.304688 -6.015625 5.628906 -5.757812 5.859375 -5.4375 C 6.097656 -5.125 6.21875 -4.78125 6.21875 -4.40625 C 6.21875 -4.007812 6.101562 -3.726562 5.875 -3.5625 C 5.644531 -3.394531 5.304688 -3.3125 4.859375 -3.3125 L 2.28125 -3.3125 C 2.28125 -3.101562 2.363281 -2.925781 2.53125 -2.78125 C 2.695312 -2.644531 2.976562 -2.578125 3.375 -2.578125 C 3.582031 -2.578125 3.773438 -2.597656 3.953125 -2.640625 C 4.128906 -2.679688 4.304688 -2.71875 4.484375 -2.75 C 4.671875 -2.789062 4.878906 -2.8125 5.109375 -2.8125 C 5.441406 -2.8125 5.710938 -2.691406 5.921875 -2.453125 C 6.140625 -2.222656 6.25 -1.90625 6.25 -1.5 C 6.25 -1.019531 6 -0.644531 5.5 -0.375 C 5.007812 -0.101562 4.359375 0.03125 3.546875 0.03125 C 2.984375 0.03125 2.453125 -0.078125 1.953125 -0.296875 C 1.460938 -0.515625 1.0625 -0.863281 0.75 -1.34375 C 0.4375 -1.820312 0.28125 -2.441406 0.28125 -3.203125 Z M 4.265625 -3.71875 C 4.390625 -3.71875 4.429688 -3.773438 4.390625 -3.890625 C 4.359375 -4.003906 4.257812 -4.125 4.09375 -4.25 C 3.925781 -4.375 3.6875 -4.4375 3.375 -4.4375 C 3.019531 -4.4375 2.753906 -4.359375 2.578125 -4.203125 C 2.398438 -4.046875 2.3125 -3.882812 2.3125 -3.71875 Z M 4.265625 -3.71875 "/></g></g><g style="fill:#ffffff;fill-opacity:1;"><g transform="translate(41.106166, 13.613607)"><path style="stroke:none" d=""/></g></g><g style="fill:#ffffff;fill-opacity:1;"><g transform="translate(43.318823, 13.613607)"><path style="stroke:none" d="M 1.5 -6.21875 C 1.09375 -6.21875 0.757812 -6.335938 0.5 -6.578125 C 0.238281 -6.816406 0.109375 -7.144531 0.109375 -7.5625 C 0.109375 -7.96875 0.222656 -8.296875 0.453125 -8.546875 C 0.691406 -8.796875 1.039062 -8.921875 1.5 -8.921875 L 6.796875 -8.921875 C 7.253906 -8.921875 7.597656 -8.796875 7.828125 -8.546875 C 8.066406 -8.296875 8.1875 -7.96875 8.1875 -7.5625 C 8.1875 -7.144531 8.054688 -6.816406 7.796875 -6.578125 C 7.546875 -6.335938 7.210938 -6.21875 6.796875 -6.21875 C 6.515625 -6.21875 6.289062 -6.25 6.125 -6.3125 C 5.957031 -6.375 5.820312 -6.445312 5.71875 -6.53125 C 5.613281 -6.625 5.507812 -6.695312 5.40625 -6.75 C 5.3125 -6.8125 5.191406 -6.84375 5.046875 -6.84375 L 4.9375 -6.625 C 4.96875 -6.550781 5.019531 -6.445312 5.09375 -6.3125 C 5.175781 -6.175781 5.253906 -5.984375 5.328125 -5.734375 C 5.410156 -5.484375 5.453125 -5.144531 5.453125 -4.71875 L 5.453125 -1.171875 C 5.453125 -0.828125 5.328125 -0.546875 5.078125 -0.328125 C 4.828125 -0.109375 4.519531 0 4.15625 0 C 3.789062 0 3.484375 -0.109375 3.234375 -0.328125 C 2.984375 -0.546875 2.859375 -0.828125 2.859375 -1.171875 L 2.859375 -4.71875 C 2.859375 -5.144531 2.894531 -5.484375 2.96875 -5.734375 C 3.039062 -5.984375 3.117188 -6.175781 3.203125 -6.3125 C 3.285156 -6.445312 3.34375 -6.550781 3.375 -6.625 L 3.265625 -6.84375 C 3.109375 -6.84375 2.984375 -6.8125 2.890625 -6.75 C 2.796875 -6.695312 2.691406 -6.625 2.578125 -6.53125 C 2.472656 -6.445312 2.335938 -6.375 2.171875 -6.3125 C 2.015625 -6.25 1.789062 -6.21875 1.5 -6.21875 Z M 1.5 -6.21875 "/></g></g><g style="fill:#ffffff;fill-opacity:1;"><g transform="translate(49.526563, 13.613607)"><path style="stroke:none" d="M 0.28125 -3.203125 C 0.28125 -3.847656 0.410156 -4.414062 0.671875 -4.90625 C 0.929688 -5.394531 1.300781 -5.78125 1.78125 -6.0625 C 2.257812 -6.34375 2.832031 -6.484375 3.5 -6.484375 C 4.007812 -6.484375 4.472656 -6.390625 4.890625 -6.203125 C 5.304688 -6.015625 5.628906 -5.757812 5.859375 -5.4375 C 6.097656 -5.125 6.21875 -4.78125 6.21875 -4.40625 C 6.21875 -4.007812 6.101562 -3.726562 5.875 -3.5625 C 5.644531 -3.394531 5.304688 -3.3125 4.859375 -3.3125 L 2.28125 -3.3125 C 2.28125 -3.101562 2.363281 -2.925781 2.53125 -2.78125 C 2.695312 -2.644531 2.976562 -2.578125 3.375 -2.578125 C 3.582031 -2.578125 3.773438 -2.597656 3.953125 -2.640625 C 4.128906 -2.679688 4.304688 -2.71875 4.484375 -2.75 C 4.671875 -2.789062 4.878906 -2.8125 5.109375 -2.8125 C 5.441406 -2.8125 5.710938 -2.691406 5.921875 -2.453125 C 6.140625 -2.222656 6.25 -1.90625 6.25 -1.5 C 6.25 -1.019531 6 -0.644531 5.5 -0.375 C 5.007812 -0.101562 4.359375 0.03125 3.546875 0.03125 C 2.984375 0.03125 2.453125 -0.078125 1.953125 -0.296875 C 1.460938 -0.515625 1.0625 -0.863281 0.75 -1.34375 C 0.4375 -1.820312 0.28125 -2.441406 0.28125 -3.203125 Z M 4.265625 -3.71875 C 4.390625 -3.71875 4.429688 -3.773438 4.390625 -3.890625 C 4.359375 -4.003906 4.257812 -4.125 4.09375 -4.25 C 3.925781 -4.375 3.6875 -4.4375 3.375 -4.4375 C 3.019531 -4.4375 2.753906 -4.359375 2.578125 -4.203125 C 2.398438 -4.046875 2.3125 -3.882812 2.3125 -3.71875 Z M 4.265625 -3.71875 "/></g></g><g style="fill:#ffffff;fill-opacity:1;"><g transform="translate(55.992426, 13.613607)"><path style="stroke:none" d="M 1.484375 0 C 1.085938 0 0.785156 -0.101562 0.578125 -0.3125 C 0.378906 -0.53125 0.28125 -0.800781 0.28125 -1.125 L 0.28125 -8.25 C 0.28125 -8.601562 0.378906 -8.894531 0.578125 -9.125 C 0.785156 -9.363281 1.085938 -9.484375 1.484375 -9.484375 C 1.847656 -9.484375 2.128906 -9.363281 2.328125 -9.125 C 2.523438 -8.894531 2.625 -8.613281 2.625 -8.28125 L 2.625 -1.125 C 2.625 -0.800781 2.523438 -0.53125 2.328125 -0.3125 C 2.128906 -0.101562 1.847656 0 1.484375 0 Z M 1.484375 0 "/></g></g><g style="fill:#ffffff;fill-opacity:1;"><g transform="translate(58.893457, 13.613607)"><path style="stroke:none" d="M 0.28125 -3.203125 C 0.28125 -3.847656 0.410156 -4.414062 0.671875 -4.90625 C 0.929688 -5.394531 1.300781 -5.78125 1.78125 -6.0625 C 2.257812 -6.34375 2.832031 -6.484375 3.5 -6.484375 C 4.007812 -6.484375 4.472656 -6.390625 4.890625 -6.203125 C 5.304688 -6.015625 5.628906 -5.757812 5.859375 -5.4375 C 6.097656 -5.125 6.21875 -4.78125 6.21875 -4.40625 C 6.21875 -4.007812 6.101562 -3.726562 5.875 -3.5625 C 5.644531 -3.394531 5.304688 -3.3125 4.859375 -3.3125 L 2.28125 -3.3125 C 2.28125 -3.101562 2.363281 -2.925781 2.53125 -2.78125 C 2.695312 -2.644531 2.976562 -2.578125 3.375 -2.578125 C 3.582031 -2.578125 3.773438 -2.597656 3.953125 -2.640625 C 4.128906 -2.679688 4.304688 -2.71875 4.484375 -2.75 C 4.671875 -2.789062 4.878906 -2.8125 5.109375 -2.8125 C 5.441406 -2.8125 5.710938 -2.691406 5.921875 -2.453125 C 6.140625 -2.222656 6.25 -1.90625 6.25 -1.5 C 6.25 -1.019531 6 -0.644531 5.5 -0.375 C 5.007812 -0.101562 4.359375 0.03125 3.546875 0.03125 C 2.984375 0.03125 2.453125 -0.078125 1.953125 -0.296875 C 1.460938 -0.515625 1.0625 -0.863281 0.75 -1.34375 C 0.4375 -1.820312 0.28125 -2.441406 0.28125 -3.203125 Z M 4.265625 -3.71875 C 4.390625 -3.71875 4.429688 -3.773438 4.390625 -3.890625 C 4.359375 -4.003906 4.257812 -4.125 4.09375 -4.25 C 3.925781 -4.375 3.6875 -4.4375 3.375 -4.4375 C 3.019531 -4.4375 2.753906 -4.359375 2.578125 -4.203125 C 2.398438 -4.046875 2.3125 -3.882812 2.3125 -3.71875 Z M 4.265625 -3.71875 "/></g></g><g style="fill:#ffffff;fill-opacity:1;"><g transform="translate(65.236402, 13.613607)"><path style="stroke:none" d="M 3.5 0.03125 C 2.851562 0.03125 2.285156 -0.0976562 1.796875 -0.359375 C 1.304688 -0.628906 0.921875 -1.007812 0.640625 -1.5 C 0.359375 -1.988281 0.21875 -2.566406 0.21875 -3.234375 C 0.21875 -3.898438 0.359375 -4.476562 0.640625 -4.96875 C 0.921875 -5.457031 1.304688 -5.835938 1.796875 -6.109375 C 2.296875 -6.378906 2.867188 -6.515625 3.515625 -6.515625 C 4.023438 -6.515625 4.472656 -6.460938 4.859375 -6.359375 C 5.253906 -6.253906 5.5625 -6.09375 5.78125 -5.875 C 6.007812 -5.664062 6.125 -5.398438 6.125 -5.078125 C 6.125 -4.691406 6.023438 -4.390625 5.828125 -4.171875 C 5.628906 -3.953125 5.347656 -3.84375 4.984375 -3.84375 C 4.734375 -3.84375 4.488281 -3.878906 4.25 -3.953125 C 4.007812 -4.023438 3.695312 -4.0625 3.3125 -4.0625 C 3.007812 -4.0625 2.75 -4.015625 2.53125 -3.921875 C 2.320312 -3.828125 2.21875 -3.644531 2.21875 -3.375 C 2.21875 -3.101562 2.320312 -2.910156 2.53125 -2.796875 C 2.75 -2.679688 3.007812 -2.625 3.3125 -2.625 C 3.570312 -2.625 3.785156 -2.644531 3.953125 -2.6875 C 4.128906 -2.738281 4.296875 -2.789062 4.453125 -2.84375 C 4.609375 -2.894531 4.785156 -2.921875 4.984375 -2.921875 C 5.398438 -2.921875 5.707031 -2.796875 5.90625 -2.546875 C 6.101562 -2.304688 6.203125 -2 6.203125 -1.625 C 6.203125 -1.300781 6.082031 -1.015625 5.84375 -0.765625 C 5.613281 -0.515625 5.289062 -0.316406 4.875 -0.171875 C 4.46875 -0.0351562 4.007812 0.03125 3.5 0.03125 Z M 3.5 0.03125 "/></g></g><g style="fill:#ffffff;fill-opacity:1;"><g transform="translate(71.481014, 13.613607)"><path style="stroke:none" d="M 3.4375 0.03125 C 2.46875 0.03125 1.695312 -0.253906 1.125 -0.828125 C 0.5625 -1.398438 0.28125 -2.207031 0.28125 -3.25 C 0.28125 -3.882812 0.410156 -4.441406 0.671875 -4.921875 C 0.929688 -5.410156 1.296875 -5.789062 1.765625 -6.0625 C 2.242188 -6.34375 2.800781 -6.484375 3.4375 -6.484375 C 4.132812 -6.484375 4.71875 -6.34375 5.1875 -6.0625 C 5.65625 -5.789062 6.003906 -5.410156 6.234375 -4.921875 C 6.472656 -4.441406 6.59375 -3.882812 6.59375 -3.25 C 6.59375 -2.207031 6.332031 -1.398438 5.8125 -0.828125 C 5.289062 -0.253906 4.5 0.03125 3.4375 0.03125 Z M 1.75 -3.453125 C 1.75 -3.203125 1.875 -3.023438 2.125 -2.921875 C 2.382812 -2.816406 2.820312 -2.765625 3.4375 -2.765625 C 4.050781 -2.765625 4.484375 -2.816406 4.734375 -2.921875 C 4.984375 -3.023438 5.109375 -3.203125 5.109375 -3.453125 C 5.109375 -3.703125 4.984375 -3.875 4.734375 -3.96875 C 4.484375 -4.070312 4.050781 -4.125 3.4375 -4.125 C 2.820312 -4.125 2.382812 -4.070312 2.125 -3.96875 C 1.875 -3.875 1.75 -3.703125 1.75 -3.453125 Z M 1.75 -3.453125 "/></g></g><g style="fill:#ffffff;fill-opacity:1;"><g transform="translate(78.340238, 13.613607)"><path style="stroke:none" d="M 1.484375 0 C 1.117188 0 0.828125 -0.109375 0.609375 -0.328125 C 0.390625 -0.546875 0.28125 -0.8125 0.28125 -1.125 L 0.28125 -5.203125 C 0.28125 -5.546875 0.382812 -5.835938 0.59375 -6.078125 C 0.800781 -6.316406 1.097656 -6.4375 1.484375 -6.4375 C 1.859375 -6.4375 2.140625 -6.316406 2.328125 -6.078125 C 2.523438 -5.835938 2.625 -5.535156 2.625 -5.171875 L 2.625 -4.5625 L 2.84375 -4.5625 C 2.84375 -5.257812 2.988281 -5.742188 3.28125 -6.015625 C 3.570312 -6.296875 3.9375 -6.4375 4.375 -6.4375 C 4.9375 -6.4375 5.347656 -6.257812 5.609375 -5.90625 C 5.867188 -5.5625 6 -5.113281 6 -4.5625 L 6.21875 -4.5625 C 6.21875 -5.03125 6.296875 -5.398438 6.453125 -5.671875 C 6.609375 -5.941406 6.804688 -6.132812 7.046875 -6.25 C 7.296875 -6.375 7.550781 -6.4375 7.8125 -6.4375 C 8.34375 -6.4375 8.734375 -6.304688 8.984375 -6.046875 C 9.234375 -5.796875 9.394531 -5.457031 9.46875 -5.03125 C 9.539062 -4.601562 9.578125 -4.125 9.578125 -3.59375 L 9.578125 -1.125 C 9.578125 -0.8125 9.46875 -0.546875 9.25 -0.328125 C 9.03125 -0.109375 8.742188 0 8.390625 0 C 8.023438 0 7.734375 -0.109375 7.515625 -0.328125 C 7.296875 -0.546875 7.1875 -0.8125 7.1875 -1.125 L 7.1875 -3.3125 C 7.1875 -3.601562 7.144531 -3.832031 7.0625 -4 C 6.988281 -4.164062 6.84375 -4.25 6.625 -4.25 C 6.382812 -4.25 6.226562 -4.15625 6.15625 -3.96875 C 6.09375 -3.789062 6.0625 -3.5625 6.0625 -3.28125 L 6.0625 -1.125 C 6.0625 -0.8125 5.957031 -0.546875 5.75 -0.328125 C 5.550781 -0.109375 5.269531 0 4.90625 0 C 4.539062 0 4.25 -0.109375 4.03125 -0.328125 C 3.8125 -0.546875 3.703125 -0.8125 3.703125 -1.125 L 3.703125 -3.3125 C 3.703125 -3.601562 3.664062 -3.832031 3.59375 -4 C 3.519531 -4.164062 3.375 -4.25 3.15625 -4.25 C 2.914062 -4.25 2.765625 -4.15625 2.703125 -3.96875 C 2.648438 -3.789062 2.625 -3.5625 2.625 -3.28125 L 2.625 -1.125 C 2.625 -0.8125 2.523438 -0.546875 2.328125 -0.328125 C 2.128906 -0.109375 1.847656 0 1.484375 0 Z M 1.484375 0 "/></g></g></g></g></g></g></svg>