<svg xmlns="http://www.w3.org/2000/svg" xmlns:xlink="http://www.w3.org/1999/xlink" width="168" zoomAndPan="magnify" viewBox="0 0 126 30.000001" height="40" preserveAspectRatio="xMidYMid meet" version="1.2"><defs><clipPath id="653cd85568"><path d="M 39.574219 6 L 57 6 L 57 15 L 39.574219 15 Z M 39.574219 6 "/></clipPath><clipPath id="410ee3a3a5"><path d="M 56 9 L 84.460938 9 L 84.460938 15 L 56 15 Z M 56 9 "/></clipPath><clipPath id="f3c9bf3bb5"><path d="M 56 14 L 84.460938 14 L 84.460938 20 L 56 20 Z M 56 14 "/></clipPath><clipPath id="cfa5684c6e"><path d="M 39.574219 14 L 57 14 L 57 23 L 39.574219 23 Z M 39.574219 14 "/></clipPath><clipPath id="d9c7e3238b"><path d="M 51 14 L 60 14 L 60 29.03125 L 51 29.03125 Z M 51 14 "/></clipPath><clipPath id="0581fa3089"><path d="M 39.574219 14 L 57 14 L 57 20 L 39.574219 20 Z M 39.574219 14 "/></clipPath><clipPath id="08388006a5"><path d="M 39.574219 9 L 57 9 L 57 15 L 39.574219 15 Z M 39.574219 9 "/></clipPath></defs><g id="2573c5fa1d"><path style=" stroke:none;fill-rule:nonzero;fill:#1374b1;fill-opacity:1;" d="M 51.730469 0.210938 C 51.550781 0.253906 50.855469 0.398438 50.679688 0.441406 C 49.261719 0.808594 47.929688 1.371094 46.679688 2.128906 L 56.023438 14.476562 Z M 51.730469 0.210938 "/><path style=" stroke:none;fill-rule:nonzero;fill:#40a6dd;fill-opacity:1;" d="M 46.679688 2.128906 C 45.082031 3.101562 43.71875 4.328125 42.585938 5.8125 C 42.421875 6.019531 42.261719 6.257812 42.105469 6.457031 L 56.023438 14.476562 Z M 46.679688 2.128906 "/><g clip-rule="nonzero" clip-path="url(#653cd85568)"><path style=" stroke:none;fill-rule:nonzero;fill:#2956a0;fill-opacity:1;" d="M 56.023438 14.476562 L 42.105469 6.460938 C 41.199219 7.785156 40.53125 9.21875 40.101562 10.761719 C 39.808594 11.972656 39.640625 13.195312 39.589844 14.4375 Z M 56.023438 14.476562 "/></g><path style=" stroke:none;fill-rule:nonzero;fill:#32b099;fill-opacity:1;" d="M 55.925781 0.046875 C 54.523438 -0.0507812 53.121094 0.00390625 51.730469 0.210938 L 56.023438 14.476562 L 59.996094 0.925781 C 58.664062 0.519531 57.308594 0.226562 55.925781 0.046875 "/><path style=" stroke:none;fill-rule:nonzero;fill:#238044;fill-opacity:1;" d="M 56.023438 14.476562 L 69.84375 5.246094 L 67.152344 3.859375 L 65.367188 3.011719 Z M 56.023438 14.476562 "/><path style=" stroke:none;fill-rule:nonzero;fill:#269595;fill-opacity:1;" d="M 65.367188 3.011719 C 64.628906 2.640625 63.875 2.308594 63.101562 2.019531 C 61.742188 1.472656 61.285156 1.34375 60.011719 0.925781 L 56.023438 14.476562 Z M 65.367188 3.011719 "/><path style=" stroke:none;fill-rule:nonzero;fill:#319b52;fill-opacity:1;" d="M 77.550781 9.792969 C 74.671875 7.957031 72.113281 6.460938 69.84375 5.246094 C 69.390625 5 68.929688 4.769531 68.5 4.550781 L 56.03125 14.476562 Z M 77.550781 9.792969 "/><g clip-rule="nonzero" clip-path="url(#410ee3a3a5)"><path style=" stroke:none;fill-rule:nonzero;fill:#ffea00;fill-opacity:1;" d="M 84.460938 14.457031 C 82.382812 12.980469 80.425781 11.648438 78.597656 10.464844 L 77.550781 9.792969 L 56.015625 14.476562 Z M 84.460938 14.457031 "/></g><path style=" stroke:none;fill-rule:nonzero;fill:#89bd54;fill-opacity:1;" d="M 77.550781 9.792969 L 77.121094 9.523438 L 76.382812 9.0625 L 75.519531 8.523438 L 74.5 7.898438 L 73.207031 7.132812 L 72.042969 6.460938 L 56.023438 14.476562 Z M 77.550781 9.792969 "/><path style=" stroke:none;fill-rule:nonzero;fill:#de161f;fill-opacity:1;" d="M 56.023438 14.476562 L 69.839844 23.703125 L 67.152344 25.089844 L 65.378906 25.945312 Z M 56.023438 14.476562 "/><path style=" stroke:none;fill-rule:nonzero;fill:#e85f32;fill-opacity:1;" d="M 77.550781 19.15625 C 75.558594 20.429688 73.742188 21.523438 72.042969 22.492188 C 71.289062 22.921875 70.535156 23.316406 69.859375 23.695312 C 69.40625 23.9375 68.941406 24.167969 68.515625 24.382812 L 56.023438 14.472656 Z M 77.550781 19.15625 "/><g clip-rule="nonzero" clip-path="url(#f3c9bf3bb5)"><path style=" stroke:none;fill-rule:nonzero;fill:#f9bc0b;fill-opacity:1;" d="M 84.460938 14.457031 C 82.382812 15.925781 80.429688 17.292969 78.597656 18.484375 L 77.550781 19.15625 L 56.015625 14.476562 Z M 84.460938 14.457031 "/></g><path style=" stroke:none;fill-rule:nonzero;fill:#f29d5a;fill-opacity:1;" d="M 77.550781 19.15625 L 76.011719 20.125 L 74.5 21.050781 L 73.179688 21.832031 L 72.042969 22.492188 L 56.023438 14.476562 Z M 77.550781 19.15625 "/><path style=" stroke:none;fill-rule:nonzero;fill:#e42175;fill-opacity:1;" d="M 51.742188 28.78125 C 51.5625 28.738281 50.867188 28.597656 50.6875 28.546875 C 49.269531 28.183594 47.933594 27.625 46.683594 26.863281 L 56.023438 14.472656 Z M 51.742188 28.78125 "/><path style=" stroke:none;fill-rule:nonzero;fill:#772680;fill-opacity:1;" d="M 46.6875 26.847656 C 45.085938 25.871094 43.71875 24.636719 42.589844 23.148438 C 42.429688 22.941406 42.269531 22.726562 42.121094 22.503906 L 56.023438 14.476562 Z M 46.6875 26.847656 "/><g clip-rule="nonzero" clip-path="url(#cfa5684c6e)"><path style=" stroke:none;fill-rule:nonzero;fill:#552673;fill-opacity:1;" d="M 56.023438 14.476562 L 42.105469 22.519531 C 41.195312 21.191406 40.527344 19.75 40.09375 18.203125 C 39.800781 16.984375 39.625 15.75 39.574219 14.496094 Z M 56.023438 14.476562 "/></g><g clip-rule="nonzero" clip-path="url(#d9c7e3238b)"><path style=" stroke:none;fill-rule:nonzero;fill:#d75871;fill-opacity:1;" d="M 55.929688 28.964844 C 55.585938 29 55.121094 29.03125 55.121094 29.03125 L 54.398438 29.03125 C 53.511719 29.019531 52.628906 28.933594 51.753906 28.765625 L 56.023438 14.476562 L 59.554688 28.1875 L 59.320312 28.265625 C 58.210938 28.617188 57.078125 28.851562 55.917969 28.964844 "/></g><path style=" stroke:none;fill-rule:nonzero;fill:#e3342a;fill-opacity:1;" d="M 65.390625 25.9375 C 64.640625 26.3125 63.871094 26.640625 63.085938 26.929688 C 61.726562 27.476562 60.820312 27.765625 59.554688 28.1875 L 56.023438 14.472656 Z M 65.390625 25.9375 "/><path style=" stroke:none;fill-rule:nonzero;fill:#e54420;fill-opacity:1;" d="M 56.023438 14.476562 L 68.515625 24.386719 C 68.515625 24.128906 67.832031 21.089844 67.71875 20.324219 Z M 56.023438 14.476562 "/><path style=" stroke:none;fill-rule:nonzero;fill:#e22923;fill-opacity:1;" d="M 56.023438 14.476562 L 63.164062 23.230469 C 65.011719 23.582031 67.253906 24.148438 68.515625 24.386719 Z M 56.023438 14.476562 "/><path style=" stroke:none;fill-rule:nonzero;fill:#e13d8b;fill-opacity:1;" d="M 46.6875 26.84375 L 56.023438 14.476562 L 53.050781 24.382812 Z M 46.6875 26.84375 "/><path style=" stroke:none;fill-rule:nonzero;fill:#b63280;fill-opacity:1;" d="M 56.023438 14.472656 L 47.902344 19.171875 C 47.804688 19.804688 47.125 25.339844 46.6875 26.847656 L 56.023438 14.460938 "/><g clip-rule="nonzero" clip-path="url(#0581fa3089)"><path style=" stroke:none;fill-rule:nonzero;fill:#6d247a;fill-opacity:1;" d="M 39.585938 14.476562 L 56.023438 14.476562 L 47.902344 19.171875 Z M 39.585938 14.476562 "/></g><path style=" stroke:none;fill-rule:nonzero;fill:#e42175;fill-opacity:1;" d="M 53.050781 24.382812 L 56.023438 14.476562 L 59.554688 28.1875 Z M 53.050781 24.382812 "/><path style=" stroke:none;fill-rule:nonzero;fill:#d0161a;fill-opacity:1;" d="M 63.164062 23.230469 L 56.023438 14.476562 L 59.550781 28.1875 Z M 63.164062 23.230469 "/><path style=" stroke:none;fill-rule:nonzero;fill:#2ba7da;fill-opacity:1;" d="M 46.679688 2.128906 L 56.023438 14.476562 L 52.878906 4.03125 Z M 46.679688 2.128906 "/><path style=" stroke:none;fill-rule:nonzero;fill:#2295bd;fill-opacity:1;" d="M 46.679688 2.128906 C 47.132812 5.527344 48.003906 9.859375 48.003906 9.859375 L 56.023438 14.476562 Z M 46.679688 2.128906 "/><g clip-rule="nonzero" clip-path="url(#08388006a5)"><path style=" stroke:none;fill-rule:nonzero;fill:#223b7b;fill-opacity:1;" d="M 39.585938 14.476562 L 56.023438 14.476562 L 48.003906 9.859375 Z M 39.585938 14.476562 "/></g><path style=" stroke:none;fill-rule:nonzero;fill:#28a294;fill-opacity:1;" d="M 52.878906 4.03125 L 56.023438 14.476562 L 59.996094 0.929688 Z M 52.878906 4.03125 "/><path style=" stroke:none;fill-rule:nonzero;fill:#319b52;fill-opacity:1;" d="M 68.5 4.550781 L 63.199219 5.675781 L 56.023438 14.476562 Z M 68.5 4.550781 "/><path style=" stroke:none;fill-rule:nonzero;fill:#32b099;fill-opacity:1;" d="M 59.996094 0.929688 L 63.199219 5.675781 L 56.058594 14.445312 Z M 59.996094 0.929688 "/><path style=" stroke:none;fill-rule:nonzero;fill:#2fa85f;fill-opacity:1;" d="M 68.5 4.550781 L 56.023438 14.476562 L 67.972656 8.496094 Z M 68.5 4.550781 "/><path style=" stroke:none;fill-rule:nonzero;fill:#ffd700;fill-opacity:1;" d="M 73.257812 14.464844 C 73.898438 13.714844 76.914062 10.644531 77.550781 9.792969 L 56.015625 14.476562 Z M 73.257812 14.464844 "/><path style=" stroke:none;fill-rule:nonzero;fill:#6fb556;fill-opacity:1;" d="M 77.550781 9.796875 L 67.972656 8.496094 L 56.023438 14.476562 Z M 77.550781 9.796875 "/><path style=" stroke:none;fill-rule:nonzero;fill:#f5a617;fill-opacity:1;" d="M 73.257812 14.464844 C 74.671875 15.898438 76.839844 18.484375 77.550781 19.15625 L 56.015625 14.472656 Z M 73.257812 14.464844 "/><path style=" stroke:none;fill-rule:nonzero;fill:#ef8d33;fill-opacity:1;" d="M 77.550781 19.15625 L 67.714844 20.324219 L 56.023438 14.476562 Z M 77.550781 19.15625 "/><path style=" stroke:none;fill-rule:nonzero;fill:#ffffff;fill-opacity:1;" d="M 45.34375 21.0625 L 44.75 21.0625 L 44.75 23.316406 C 44.75 23.363281 44.730469 23.386719 44.679688 23.390625 L 44.347656 23.390625 C 44.300781 23.386719 44.277344 23.363281 44.28125 23.316406 L 44.28125 21.0625 L 43.6875 21.0625 C 43.640625 21.0625 43.621094 21.039062 43.621094 20.996094 L 43.621094 20.703125 C 43.621094 20.65625 43.640625 20.636719 43.6875 20.636719 L 45.34375 20.636719 C 45.386719 20.632812 45.410156 20.652344 45.410156 20.695312 L 45.410156 20.996094 C 45.414062 21.039062 45.390625 21.0625 45.347656 21.066406 L 45.339844 21.066406 "/><path style=" stroke:none;fill-rule:nonzero;fill:#ffffff;fill-opacity:1;" d="M 47.121094 23.375 L 46.8125 23.375 C 46.765625 23.371094 46.742188 23.347656 46.742188 23.300781 L 46.742188 23.214844 C 46.589844 23.339844 46.410156 23.402344 46.210938 23.398438 C 46.050781 23.410156 45.914062 23.359375 45.796875 23.246094 C 45.65625 23.042969 45.601562 22.820312 45.628906 22.578125 L 45.628906 21.371094 C 45.625 21.320312 45.648438 21.296875 45.695312 21.289062 L 46.007812 21.289062 C 46.054688 21.296875 46.078125 21.320312 46.074219 21.371094 L 46.074219 22.574219 C 46.074219 22.757812 46.074219 22.863281 46.152344 22.925781 C 46.210938 22.976562 46.28125 23 46.363281 22.996094 C 46.5 22.972656 46.625 22.925781 46.738281 22.84375 L 46.738281 21.371094 C 46.738281 21.324219 46.761719 21.296875 46.808594 21.292969 L 47.117188 21.292969 C 47.164062 21.296875 47.1875 21.324219 47.1875 21.371094 L 47.1875 23.300781 C 47.1875 23.347656 47.164062 23.371094 47.117188 23.375 "/><path style=" stroke:none;fill-rule:nonzero;fill:#ffffff;fill-opacity:1;" d="M 49.035156 23.375 L 48.726562 23.375 C 48.675781 23.371094 48.65625 23.34375 48.65625 23.296875 L 48.65625 22.09375 C 48.65625 21.773438 48.628906 21.683594 48.371094 21.683594 C 48.230469 21.691406 48.105469 21.734375 47.992188 21.8125 L 47.992188 23.316406 C 47.996094 23.363281 47.972656 23.390625 47.925781 23.394531 L 47.617188 23.394531 C 47.566406 23.390625 47.546875 23.363281 47.546875 23.316406 L 47.546875 21.367188 C 47.546875 21.320312 47.566406 21.292969 47.617188 21.292969 L 47.90625 21.292969 C 47.953125 21.292969 47.976562 21.320312 47.976562 21.367188 L 47.976562 21.445312 C 48.136719 21.320312 48.320312 21.261719 48.527344 21.273438 C 49.015625 21.273438 49.109375 21.648438 49.109375 22.101562 L 49.109375 23.304688 C 49.113281 23.351562 49.089844 23.378906 49.042969 23.382812 "/><path style=" stroke:none;fill-rule:nonzero;fill:#ffffff;fill-opacity:1;" d="M 49.855469 21.019531 L 49.527344 21.019531 C 49.480469 21.011719 49.460938 20.988281 49.460938 20.941406 L 49.460938 20.621094 C 49.460938 20.574219 49.480469 20.550781 49.527344 20.542969 L 49.855469 20.542969 C 49.90625 20.546875 49.925781 20.570312 49.925781 20.621094 L 49.925781 20.941406 C 49.925781 20.988281 49.90625 21.015625 49.855469 21.019531 M 49.855469 23.375 L 49.542969 23.375 C 49.496094 23.367188 49.476562 23.34375 49.480469 23.296875 L 49.480469 21.367188 C 49.476562 21.320312 49.496094 21.296875 49.542969 21.292969 L 49.855469 21.292969 C 49.902344 21.296875 49.925781 21.320312 49.925781 21.367188 L 49.925781 23.296875 C 49.925781 23.34375 49.902344 23.367188 49.855469 23.375 "/><path style=" stroke:none;fill-rule:nonzero;fill:#ffffff;fill-opacity:1;" d="M 50.898438 23.40625 C 50.691406 23.40625 50.488281 23.378906 50.289062 23.332031 C 50.246094 23.320312 50.226562 23.289062 50.230469 23.246094 L 50.230469 23.027344 C 50.230469 22.988281 50.246094 22.96875 50.285156 22.964844 C 50.449219 22.984375 50.753906 23.003906 50.855469 23.003906 C 51.0625 23.003906 51.09375 22.929688 51.09375 22.832031 C 51.09375 22.734375 51.054688 22.714844 50.945312 22.644531 L 50.484375 22.332031 C 50.296875 22.210938 50.203125 22.042969 50.199219 21.820312 C 50.199219 21.445312 50.414062 21.269531 50.84375 21.269531 C 51.046875 21.265625 51.246094 21.289062 51.441406 21.339844 C 51.488281 21.351562 51.511719 21.378906 51.507812 21.425781 L 51.507812 21.648438 C 51.507812 21.695312 51.484375 21.714844 51.449219 21.714844 C 51.265625 21.691406 51.078125 21.679688 50.890625 21.675781 C 50.730469 21.675781 50.65625 21.710938 50.65625 21.828125 C 50.65625 21.890625 50.710938 21.921875 50.792969 21.976562 L 51.234375 22.273438 C 51.460938 22.394531 51.570312 22.582031 51.558594 22.839844 C 51.5625 22.996094 51.507812 23.132812 51.394531 23.246094 C 51.28125 23.359375 51.148438 23.417969 50.988281 23.417969 C 50.957031 23.417969 50.929688 23.417969 50.898438 23.414062 "/><path style=" stroke:none;fill-rule:nonzero;fill:#ffffff;fill-opacity:1;" d="M 52.246094 21.019531 L 51.925781 21.019531 C 51.882812 21.011719 51.859375 20.988281 51.859375 20.941406 L 51.859375 20.621094 C 51.859375 20.574219 51.882812 20.550781 51.925781 20.542969 L 52.257812 20.542969 C 52.304688 20.550781 52.324219 20.574219 52.324219 20.621094 L 52.324219 20.941406 C 52.324219 20.988281 52.304688 21.011719 52.257812 21.019531 M 52.257812 23.375 L 51.925781 23.375 C 51.878906 23.371094 51.855469 23.34375 51.859375 23.296875 L 51.859375 21.367188 C 51.855469 21.320312 51.878906 21.292969 51.925781 21.292969 L 52.234375 21.292969 C 52.285156 21.292969 52.304688 21.320312 52.304688 21.367188 L 52.304688 23.296875 C 52.304688 23.34375 52.285156 23.371094 52.234375 23.375 "/><path style=" stroke:none;fill-rule:nonzero;fill:#ffffff;fill-opacity:1;" d="M 54.160156 22.503906 L 53.058594 22.503906 C 53.058594 22.71875 53.144531 22.96875 53.464844 22.96875 C 53.671875 22.96875 53.878906 22.957031 54.085938 22.933594 C 54.125 22.933594 54.144531 22.953125 54.144531 22.988281 L 54.144531 23.234375 C 54.144531 23.292969 54.144531 23.320312 54.078125 23.332031 C 53.859375 23.378906 53.640625 23.402344 53.417969 23.394531 C 53.191406 23.394531 53 23.316406 52.839844 23.160156 C 52.675781 23 52.597656 22.808594 52.59375 22.585938 C 52.59375 22.546875 52.597656 22.507812 52.601562 22.46875 L 52.601562 22.191406 C 52.601562 21.617188 52.898438 21.253906 53.414062 21.253906 C 53.933594 21.253906 54.214844 21.628906 54.214844 22.191406 L 54.214844 22.398438 C 54.214844 22.460938 54.214844 22.492188 54.152344 22.492188 M 53.773438 22.117188 C 53.773438 21.832031 53.625 21.667969 53.417969 21.667969 C 53.210938 21.667969 53.039062 21.828125 53.039062 22.117188 Z M 53.773438 22.117188 "/><path style=" stroke:none;fill-rule:nonzero;fill:#ffffff;fill-opacity:1;" d="M 56.867188 21.0625 L 56.273438 21.0625 L 56.273438 23.316406 C 56.277344 23.363281 56.253906 23.386719 56.207031 23.390625 L 55.875 23.390625 C 55.824219 23.386719 55.804688 23.363281 55.804688 23.316406 L 55.804688 21.0625 L 55.214844 21.0625 C 55.171875 21.066406 55.148438 21.042969 55.144531 21 L 55.144531 20.703125 C 55.144531 20.65625 55.167969 20.636719 55.210938 20.636719 L 56.867188 20.636719 C 56.910156 20.632812 56.929688 20.65625 56.929688 20.699219 L 56.929688 20.996094 C 56.933594 21.039062 56.914062 21.0625 56.871094 21.0625 L 56.867188 21.0625 "/><path style=" stroke:none;fill-rule:nonzero;fill:#ffffff;fill-opacity:1;" d="M 58.644531 22.503906 L 57.539062 22.503906 C 57.539062 22.71875 57.621094 22.96875 57.949219 22.96875 C 58.15625 22.96875 58.363281 22.957031 58.570312 22.933594 C 58.609375 22.929688 58.628906 22.949219 58.632812 22.984375 L 58.632812 23.234375 C 58.632812 23.292969 58.632812 23.320312 58.5625 23.332031 C 58.347656 23.378906 58.128906 23.398438 57.90625 23.394531 C 57.679688 23.394531 57.488281 23.316406 57.328125 23.160156 C 57.164062 23 57.085938 22.808594 57.082031 22.585938 C 57.082031 22.546875 57.085938 22.507812 57.089844 22.46875 L 57.089844 22.191406 C 57.089844 21.617188 57.382812 21.253906 57.898438 21.253906 C 58.132812 21.257812 58.332031 21.339844 58.492188 21.507812 C 58.65625 21.671875 58.738281 21.871094 58.734375 22.101562 C 58.734375 22.136719 58.730469 22.171875 58.726562 22.203125 L 58.726562 22.398438 C 58.726562 22.460938 58.707031 22.492188 58.660156 22.492188 M 58.28125 22.117188 C 58.28125 21.832031 58.132812 21.667969 57.925781 21.667969 C 57.71875 21.667969 57.566406 21.828125 57.566406 22.117188 Z M 58.28125 22.117188 "/><path style=" stroke:none;fill-rule:nonzero;fill:#ffffff;fill-opacity:1;" d="M 59.40625 23.375 L 59.101562 23.375 C 59.054688 23.371094 59.03125 23.34375 59.035156 23.296875 L 59.035156 20.636719 C 59.035156 20.59375 59.058594 20.570312 59.101562 20.566406 L 59.417969 20.566406 C 59.460938 20.570312 59.484375 20.59375 59.480469 20.636719 L 59.480469 23.296875 C 59.484375 23.34375 59.464844 23.371094 59.417969 23.375 "/><path style=" stroke:none;fill-rule:nonzero;fill:#ffffff;fill-opacity:1;" d="M 61.332031 22.503906 L 60.238281 22.503906 C 60.238281 22.71875 60.320312 22.96875 60.644531 22.96875 C 60.851562 22.96875 61.058594 22.957031 61.265625 22.933594 C 61.304688 22.929688 61.324219 22.949219 61.328125 22.988281 L 61.328125 23.234375 C 61.328125 23.292969 61.328125 23.320312 61.257812 23.332031 C 61.039062 23.378906 60.820312 23.398438 60.597656 23.394531 C 60.371094 23.394531 60.179688 23.316406 60.019531 23.160156 C 59.855469 23 59.777344 22.808594 59.773438 22.585938 C 59.773438 22.546875 59.777344 22.507812 59.78125 22.46875 L 59.78125 22.191406 C 59.753906 21.96875 59.804688 21.769531 59.941406 21.59375 C 60.078125 21.414062 60.261719 21.308594 60.484375 21.28125 C 60.527344 21.273438 60.570312 21.273438 60.613281 21.273438 C 61.152344 21.273438 61.417969 21.648438 61.417969 22.210938 L 61.417969 22.398438 C 61.417969 22.460938 61.394531 22.492188 61.351562 22.492188 M 60.972656 22.117188 C 60.972656 21.832031 60.824219 21.667969 60.617188 21.667969 C 60.410156 21.667969 60.242188 21.828125 60.242188 22.117188 Z M 60.972656 22.117188 "/><path style=" stroke:none;fill-rule:nonzero;fill:#ffffff;fill-opacity:1;" d="M 62.835938 23.355469 C 62.691406 23.390625 62.546875 23.410156 62.398438 23.40625 C 61.960938 23.40625 61.640625 23.109375 61.640625 22.507812 L 61.640625 22.164062 C 61.640625 21.5625 61.972656 21.265625 62.398438 21.265625 C 62.546875 21.261719 62.691406 21.28125 62.835938 21.316406 C 62.890625 21.316406 62.902344 21.351562 62.902344 21.414062 L 62.902344 21.648438 C 62.902344 21.6875 62.878906 21.703125 62.84375 21.703125 C 62.695312 21.683594 62.550781 21.675781 62.40625 21.679688 C 62.246094 21.679688 62.078125 21.777344 62.078125 22.160156 L 62.078125 22.503906 C 62.078125 22.878906 62.246094 22.984375 62.40625 22.984375 C 62.550781 22.988281 62.695312 22.980469 62.84375 22.964844 C 62.875 22.964844 62.902344 22.964844 62.902344 23.015625 L 62.902344 23.253906 C 62.902344 23.316406 62.902344 23.339844 62.835938 23.351562 "/><path style=" stroke:none;fill-rule:nonzero;fill:#ffffff;fill-opacity:1;" d="M 63.941406 23.40625 C 63.71875 23.40625 63.527344 23.328125 63.367188 23.171875 C 63.207031 23.015625 63.128906 22.824219 63.125 22.601562 C 63.125 22.5625 63.128906 22.523438 63.132812 22.484375 L 63.132812 22.183594 C 63.105469 21.964844 63.160156 21.765625 63.296875 21.589844 C 63.433594 21.414062 63.613281 21.308594 63.832031 21.28125 C 63.871094 21.273438 63.90625 21.273438 63.941406 21.273438 C 64.472656 21.273438 64.746094 21.648438 64.746094 22.191406 L 64.746094 22.492188 C 64.746094 23.015625 64.46875 23.410156 63.941406 23.410156 M 64.320312 22.191406 C 64.320312 21.890625 64.191406 21.695312 63.941406 21.695312 C 63.691406 21.695312 63.566406 21.890625 63.566406 22.191406 L 63.566406 22.492188 C 63.566406 22.789062 63.691406 22.984375 63.941406 22.984375 C 64.195312 22.984375 64.320312 22.789062 64.320312 22.492188 Z M 64.320312 22.191406 "/><path style=" stroke:none;fill-rule:nonzero;fill:#ffffff;fill-opacity:1;" d="M 67.414062 23.375 L 67.101562 23.375 C 67.050781 23.371094 67.03125 23.34375 67.03125 23.296875 L 67.03125 22.042969 C 67.03125 21.757812 66.980469 21.6875 66.789062 21.6875 C 66.679688 21.691406 66.574219 21.722656 66.476562 21.777344 L 66.476562 23.296875 C 66.480469 23.34375 66.457031 23.371094 66.414062 23.378906 L 66.097656 23.378906 C 66.050781 23.371094 66.027344 23.347656 66.03125 23.296875 L 66.03125 22.046875 C 66.03125 21.761719 65.988281 21.6875 65.796875 21.6875 C 65.683594 21.703125 65.582031 21.742188 65.488281 21.808594 L 65.488281 23.308594 C 65.488281 23.359375 65.46875 23.382812 65.417969 23.390625 L 65.109375 23.390625 C 65.0625 23.386719 65.039062 23.359375 65.042969 23.308594 L 65.042969 21.371094 C 65.039062 21.324219 65.0625 21.296875 65.109375 21.292969 L 65.402344 21.292969 C 65.449219 21.300781 65.472656 21.324219 65.46875 21.371094 L 65.46875 21.449219 C 65.609375 21.335938 65.773438 21.277344 65.957031 21.277344 C 66.109375 21.265625 66.238281 21.324219 66.332031 21.445312 C 66.507812 21.328125 66.699219 21.269531 66.910156 21.277344 C 67.367188 21.277344 67.46875 21.621094 67.46875 22.054688 L 67.46875 23.304688 C 67.472656 23.351562 67.453125 23.378906 67.40625 23.382812 "/><path style=" stroke:none;fill-rule:nonzero;fill:#ffffff;fill-opacity:1;" d="M 43.664062 8.398438 L 43.664062 9.777344 L 47.441406 9.777344 L 47.441406 17.617188 C 47.441406 19.144531 48.398438 19.6875 49.492188 19.6875 L 51.078125 19.6875 L 51.078125 9.777344 L 52.96875 9.777344 C 53.226562 9.769531 53.476562 9.71875 53.714844 9.617188 C 53.953125 9.519531 54.167969 9.378906 54.355469 9.203125 C 54.542969 9.023438 54.691406 8.820312 54.804688 8.585938 C 54.914062 8.355469 54.980469 8.109375 55 7.855469 L 55 6.472656 L 45.714844 6.472656 C 45.453125 6.460938 45.199219 6.503906 44.953125 6.59375 C 44.707031 6.6875 44.484375 6.820312 44.292969 7 C 44.101562 7.179688 43.949219 7.386719 43.839844 7.625 C 43.730469 7.863281 43.671875 8.113281 43.664062 8.375 C 43.664062 8.382812 43.664062 8.390625 43.664062 8.398438 "/><path style=" stroke:none;fill-rule:nonzero;fill:#ffffff;fill-opacity:1;" d="M 58.191406 6.476562 C 57.929688 6.464844 57.675781 6.507812 57.429688 6.597656 C 57.183594 6.6875 56.964844 6.820312 56.769531 6.996094 C 56.578125 7.175781 56.425781 7.382812 56.316406 7.621094 C 56.207031 7.855469 56.148438 8.105469 56.136719 8.367188 C 56.136719 8.375 56.136719 8.386719 56.136719 8.398438 L 56.136719 9.777344 L 59.914062 9.777344 L 59.914062 17.617188 C 59.914062 19.144531 60.875 19.6875 61.96875 19.6875 L 63.558594 19.6875 L 63.558594 9.777344 L 65.445312 9.777344 C 65.703125 9.769531 65.953125 9.714844 66.191406 9.617188 C 66.429688 9.515625 66.644531 9.378906 66.832031 9.199219 C 67.019531 9.023438 67.167969 8.820312 67.277344 8.585938 C 67.390625 8.355469 67.457031 8.109375 67.476562 7.855469 L 67.476562 6.476562 Z M 58.191406 6.476562 "/></g></svg>