<svg xmlns="http://www.w3.org/2000/svg" xmlns:xlink="http://www.w3.org/1999/xlink" width="50" zoomAndPan="magnify" viewBox="0 0 37.5 37.499999" height="50" preserveAspectRatio="xMidYMid meet" version="1.2"><defs><clipPath id="9bafac4588"><path d="M 5 6.492188 L 14 6.492188 L 14 19 L 5 19 Z M 5 6.492188 "/></clipPath><clipPath id="b5d5538230"><path d="M 0.0507812 11 L 14 11 L 14 19 L 0.0507812 19 Z M 0.0507812 11 "/></clipPath><clipPath id="4389335cb1"><path d="M 10 6.492188 L 17 6.492188 L 17 19 L 10 19 Z M 10 6.492188 "/></clipPath><clipPath id="f4dd3704b1"><path d="M 13 14 L 36.957031 14 L 36.957031 19 L 13 19 Z M 13 14 "/></clipPath><clipPath id="7f068f366c"><path d="M 13 18 L 36.957031 18 L 36.957031 23 L 13 23 Z M 13 18 "/></clipPath><clipPath id="684342ffbb"><path d="M 0.0507812 18 L 14 18 L 14 25 L 0.0507812 25 Z M 0.0507812 18 "/></clipPath><clipPath id="eabc502db8"><path d="M 10 18 L 17 18 L 17 30.175781 L 10 30.175781 Z M 10 18 "/></clipPath><clipPath id="7b928da0e5"><path d="M 0.0507812 18 L 14 18 L 14 23 L 0.0507812 23 Z M 0.0507812 18 "/></clipPath><clipPath id="5264d2c206"><path d="M 0.0507812 14 L 14 14 L 14 19 L 0.0507812 19 Z M 0.0507812 14 "/></clipPath></defs><g id="02deaf838a"><g clip-rule="nonzero" clip-path="url(#9bafac4588)"><path style=" stroke:none;fill-rule:nonzero;fill:#1374b1;fill-opacity:1;" d="M 10.042969 6.664062 C 9.898438 6.699219 9.328125 6.816406 9.179688 6.855469 C 8.015625 7.152344 6.921875 7.609375 5.894531 8.230469 L 13.578125 18.300781 Z M 10.042969 6.664062 "/></g><path style=" stroke:none;fill-rule:nonzero;fill:#40a6dd;fill-opacity:1;" d="M 5.894531 8.230469 C 4.582031 9.023438 3.457031 10.023438 2.527344 11.234375 C 2.394531 11.40625 2.261719 11.597656 2.132812 11.761719 L 13.578125 18.300781 Z M 5.894531 8.230469 "/><g clip-rule="nonzero" clip-path="url(#b5d5538230)"><path style=" stroke:none;fill-rule:nonzero;fill:#2956a0;fill-opacity:1;" d="M 13.574219 18.300781 L 2.132812 11.761719 C 1.386719 12.84375 0.839844 14.015625 0.484375 15.273438 C 0.246094 16.257812 0.105469 17.257812 0.0625 18.269531 Z M 13.574219 18.300781 "/></g><g clip-rule="nonzero" clip-path="url(#4389335cb1)"><path style=" stroke:none;fill-rule:nonzero;fill:#32b099;fill-opacity:1;" d="M 13.496094 6.53125 C 12.339844 6.453125 11.191406 6.496094 10.046875 6.664062 L 13.578125 18.300781 L 16.839844 7.25 C 15.746094 6.917969 14.632812 6.675781 13.496094 6.53125 "/></g><path style=" stroke:none;fill-rule:nonzero;fill:#238044;fill-opacity:1;" d="M 13.578125 18.300781 L 24.9375 10.773438 L 22.726562 9.640625 L 21.257812 8.949219 Z M 13.578125 18.300781 "/><path style=" stroke:none;fill-rule:nonzero;fill:#269595;fill-opacity:1;" d="M 21.257812 8.949219 C 20.652344 8.648438 20.03125 8.378906 19.394531 8.140625 C 18.273438 7.695312 17.902344 7.589844 16.851562 7.25 L 13.574219 18.300781 Z M 21.257812 8.949219 "/><path style=" stroke:none;fill-rule:nonzero;fill:#319b52;fill-opacity:1;" d="M 31.273438 14.484375 C 28.90625 12.984375 26.804688 11.761719 24.9375 10.769531 C 24.5625 10.570312 24.183594 10.386719 23.832031 10.203125 L 13.582031 18.300781 Z M 31.273438 14.484375 "/><g clip-rule="nonzero" clip-path="url(#f4dd3704b1)"><path style=" stroke:none;fill-rule:nonzero;fill:#ffea00;fill-opacity:1;" d="M 36.957031 18.285156 C 35.246094 17.082031 33.636719 15.996094 32.132812 15.03125 L 31.273438 14.484375 L 13.570312 18.300781 Z M 36.957031 18.285156 "/></g><path style=" stroke:none;fill-rule:nonzero;fill:#89bd54;fill-opacity:1;" d="M 31.273438 14.484375 L 30.921875 14.261719 L 30.316406 13.886719 L 29.605469 13.445312 L 28.765625 12.9375 L 27.703125 12.3125 L 26.746094 11.761719 L 13.578125 18.300781 Z M 31.273438 14.484375 "/><path style=" stroke:none;fill-rule:nonzero;fill:#de161f;fill-opacity:1;" d="M 13.578125 18.300781 L 24.933594 25.828125 L 22.726562 26.960938 L 21.265625 27.660156 Z M 13.578125 18.300781 "/><path style=" stroke:none;fill-rule:nonzero;fill:#e85f32;fill-opacity:1;" d="M 31.273438 22.121094 C 29.636719 23.15625 28.140625 24.050781 26.746094 24.84375 C 26.125 25.191406 25.503906 25.515625 24.949219 25.824219 C 24.574219 26.023438 24.195312 26.207031 23.847656 26.386719 L 13.578125 18.300781 Z M 31.273438 22.121094 "/><g clip-rule="nonzero" clip-path="url(#7f068f366c)"><path style=" stroke:none;fill-rule:nonzero;fill:#f9bc0b;fill-opacity:1;" d="M 36.957031 18.285156 C 35.246094 19.488281 33.636719 20.601562 32.132812 21.570312 L 31.273438 22.121094 L 13.570312 18.300781 Z M 36.957031 18.285156 "/></g><path style=" stroke:none;fill-rule:nonzero;fill:#f29d5a;fill-opacity:1;" d="M 31.273438 22.121094 L 30.007812 22.910156 L 28.765625 23.667969 L 27.679688 24.304688 L 26.742188 24.84375 L 13.578125 18.300781 Z M 31.273438 22.121094 "/><path style=" stroke:none;fill-rule:nonzero;fill:#e42175;fill-opacity:1;" d="M 10.054688 29.972656 C 9.90625 29.9375 9.335938 29.820312 9.1875 29.78125 C 8.019531 29.484375 6.925781 29.027344 5.894531 28.40625 L 13.578125 18.300781 Z M 10.054688 29.972656 "/><path style=" stroke:none;fill-rule:nonzero;fill:#772680;fill-opacity:1;" d="M 5.898438 28.394531 C 4.582031 27.597656 3.460938 26.59375 2.527344 25.378906 C 2.398438 25.207031 2.269531 25.03125 2.144531 24.851562 L 13.578125 18.300781 Z M 5.898438 28.394531 "/><g clip-rule="nonzero" clip-path="url(#684342ffbb)"><path style=" stroke:none;fill-rule:nonzero;fill:#552673;fill-opacity:1;" d="M 13.578125 18.300781 L 2.132812 24.863281 C 1.386719 23.78125 0.835938 22.605469 0.480469 21.34375 C 0.238281 20.347656 0.09375 19.339844 0.0507812 18.320312 Z M 13.578125 18.300781 "/></g><g clip-rule="nonzero" clip-path="url(#eabc502db8)"><path style=" stroke:none;fill-rule:nonzero;fill:#d75871;fill-opacity:1;" d="M 13.5 30.121094 C 13.214844 30.148438 12.832031 30.175781 12.832031 30.175781 L 12.242188 30.175781 C 11.507812 30.167969 10.785156 30.097656 10.066406 29.960938 L 13.574219 18.300781 L 16.476562 29.488281 L 16.285156 29.550781 C 15.371094 29.839844 14.441406 30.027344 13.488281 30.121094 "/></g><path style=" stroke:none;fill-rule:nonzero;fill:#e3342a;fill-opacity:1;" d="M 21.277344 27.652344 C 20.660156 27.957031 20.027344 28.226562 19.382812 28.460938 C 18.261719 28.910156 17.515625 29.144531 16.476562 29.488281 L 13.578125 18.300781 Z M 21.277344 27.652344 "/><path style=" stroke:none;fill-rule:nonzero;fill:#e54420;fill-opacity:1;" d="M 13.578125 18.300781 L 23.847656 26.386719 C 23.847656 26.179688 23.285156 23.699219 23.1875 23.074219 Z M 13.578125 18.300781 "/><path style=" stroke:none;fill-rule:nonzero;fill:#e22923;fill-opacity:1;" d="M 13.578125 18.300781 L 19.445312 25.441406 C 20.964844 25.730469 22.808594 26.191406 23.847656 26.386719 Z M 13.578125 18.300781 "/><path style=" stroke:none;fill-rule:nonzero;fill:#e13d8b;fill-opacity:1;" d="M 5.898438 28.390625 L 13.578125 18.300781 L 11.132812 26.382812 Z M 5.898438 28.390625 "/><path style=" stroke:none;fill-rule:nonzero;fill:#b63280;fill-opacity:1;" d="M 13.578125 18.300781 L 6.898438 22.132812 C 6.820312 22.648438 6.257812 27.164062 5.898438 28.394531 L 13.578125 18.289062 "/><g clip-rule="nonzero" clip-path="url(#7b928da0e5)"><path style=" stroke:none;fill-rule:nonzero;fill:#6d247a;fill-opacity:1;" d="M 0.0585938 18.300781 L 13.578125 18.300781 L 6.898438 22.132812 Z M 0.0585938 18.300781 "/></g><path style=" stroke:none;fill-rule:nonzero;fill:#e42175;fill-opacity:1;" d="M 11.132812 26.382812 L 13.578125 18.300781 L 16.476562 29.488281 Z M 11.132812 26.382812 "/><path style=" stroke:none;fill-rule:nonzero;fill:#d0161a;fill-opacity:1;" d="M 19.445312 25.441406 L 13.578125 18.300781 L 16.476562 29.488281 Z M 19.445312 25.441406 "/><path style=" stroke:none;fill-rule:nonzero;fill:#2ba7da;fill-opacity:1;" d="M 5.894531 8.230469 L 13.574219 18.300781 L 10.988281 9.78125 Z M 5.894531 8.230469 "/><path style=" stroke:none;fill-rule:nonzero;fill:#2295bd;fill-opacity:1;" d="M 5.894531 8.230469 C 6.265625 11 6.984375 14.539062 6.984375 14.539062 L 13.578125 18.300781 Z M 5.894531 8.230469 "/><g clip-rule="nonzero" clip-path="url(#5264d2c206)"><path style=" stroke:none;fill-rule:nonzero;fill:#223b7b;fill-opacity:1;" d="M 0.0585938 18.300781 L 13.578125 18.300781 L 6.984375 14.535156 Z M 0.0585938 18.300781 "/></g><path style=" stroke:none;fill-rule:nonzero;fill:#28a294;fill-opacity:1;" d="M 10.988281 9.78125 L 13.578125 18.300781 L 16.839844 7.25 Z M 10.988281 9.78125 "/><path style=" stroke:none;fill-rule:nonzero;fill:#319b52;fill-opacity:1;" d="M 23.832031 10.203125 L 19.472656 11.125 L 13.578125 18.300781 Z M 23.832031 10.203125 "/><path style=" stroke:none;fill-rule:nonzero;fill:#32b099;fill-opacity:1;" d="M 16.839844 7.25 L 19.472656 11.125 L 13.605469 18.277344 Z M 16.839844 7.25 "/><path style=" stroke:none;fill-rule:nonzero;fill:#2fa85f;fill-opacity:1;" d="M 23.832031 10.203125 L 13.578125 18.300781 L 23.398438 13.421875 Z M 23.832031 10.203125 "/><path style=" stroke:none;fill-rule:nonzero;fill:#ffd700;fill-opacity:1;" d="M 27.746094 18.292969 C 28.269531 17.679688 30.75 15.179688 31.273438 14.484375 L 13.570312 18.300781 Z M 27.746094 18.292969 "/><path style=" stroke:none;fill-rule:nonzero;fill:#6fb556;fill-opacity:1;" d="M 31.273438 14.484375 L 23.398438 13.425781 L 13.578125 18.300781 Z M 31.273438 14.484375 "/><path style=" stroke:none;fill-rule:nonzero;fill:#f5a617;fill-opacity:1;" d="M 27.746094 18.292969 C 28.90625 19.460938 30.6875 21.574219 31.273438 22.121094 L 13.570312 18.300781 Z M 27.746094 18.292969 "/><path style=" stroke:none;fill-rule:nonzero;fill:#ef8d33;fill-opacity:1;" d="M 31.273438 22.121094 L 23.1875 23.074219 L 13.578125 18.300781 Z M 31.273438 22.121094 "/><path style=" stroke:none;fill-rule:nonzero;fill:#ffffff;fill-opacity:1;" d="M 4.792969 23.675781 L 4.304688 23.675781 L 4.304688 25.511719 C 4.308594 25.550781 4.289062 25.574219 4.25 25.574219 L 3.976562 25.574219 C 3.9375 25.574219 3.917969 25.550781 3.921875 25.511719 L 3.921875 23.675781 L 3.433594 23.675781 C 3.394531 23.675781 3.378906 23.65625 3.378906 23.621094 L 3.378906 23.382812 C 3.378906 23.34375 3.394531 23.328125 3.433594 23.328125 L 4.792969 23.328125 C 4.828125 23.324219 4.847656 23.339844 4.851562 23.375 L 4.851562 23.621094 C 4.851562 23.65625 4.835938 23.675781 4.800781 23.675781 L 4.792969 23.675781 "/><path style=" stroke:none;fill-rule:nonzero;fill:#ffffff;fill-opacity:1;" d="M 6.253906 25.5625 L 6 25.5625 C 5.960938 25.558594 5.945312 25.539062 5.945312 25.5 L 5.945312 25.429688 C 5.816406 25.535156 5.671875 25.585938 5.507812 25.582031 C 5.375 25.589844 5.261719 25.546875 5.167969 25.457031 C 5.050781 25.292969 5.003906 25.109375 5.03125 24.910156 L 5.03125 23.925781 C 5.027344 23.886719 5.046875 23.867188 5.085938 23.863281 L 5.339844 23.863281 C 5.378906 23.867188 5.398438 23.886719 5.394531 23.925781 L 5.394531 24.910156 C 5.394531 25.058594 5.394531 25.144531 5.457031 25.195312 C 5.507812 25.238281 5.566406 25.257812 5.632812 25.253906 C 5.746094 25.234375 5.847656 25.195312 5.941406 25.128906 L 5.941406 23.925781 C 5.941406 23.886719 5.960938 23.867188 6 23.863281 L 6.253906 23.863281 C 6.292969 23.867188 6.3125 23.886719 6.308594 23.925781 L 6.308594 25.5 C 6.3125 25.539062 6.292969 25.558594 6.253906 25.5625 "/><path style=" stroke:none;fill-rule:nonzero;fill:#ffffff;fill-opacity:1;" d="M 7.832031 25.5625 L 7.574219 25.5625 C 7.535156 25.558594 7.515625 25.535156 7.519531 25.496094 L 7.519531 24.519531 C 7.519531 24.253906 7.496094 24.179688 7.28125 24.179688 C 7.167969 24.1875 7.066406 24.226562 6.972656 24.289062 L 6.972656 25.511719 C 6.972656 25.550781 6.957031 25.574219 6.917969 25.578125 L 6.664062 25.578125 C 6.625 25.574219 6.605469 25.550781 6.605469 25.511719 L 6.605469 23.921875 C 6.605469 23.886719 6.625 23.863281 6.664062 23.863281 L 6.902344 23.863281 C 6.941406 23.863281 6.960938 23.882812 6.957031 23.921875 L 6.957031 23.988281 C 7.089844 23.886719 7.242188 23.839844 7.410156 23.847656 C 7.8125 23.847656 7.890625 24.152344 7.890625 24.523438 L 7.890625 25.503906 C 7.894531 25.542969 7.875 25.5625 7.835938 25.566406 "/><path style=" stroke:none;fill-rule:nonzero;fill:#ffffff;fill-opacity:1;" d="M 8.503906 23.640625 L 8.234375 23.640625 C 8.195312 23.636719 8.179688 23.613281 8.179688 23.578125 L 8.179688 23.316406 C 8.179688 23.277344 8.195312 23.257812 8.234375 23.253906 L 8.503906 23.253906 C 8.542969 23.253906 8.5625 23.277344 8.5625 23.316406 L 8.5625 23.578125 C 8.5625 23.617188 8.542969 23.636719 8.503906 23.640625 M 8.503906 25.5625 L 8.246094 25.5625 C 8.210938 25.558594 8.191406 25.535156 8.195312 25.496094 L 8.195312 23.921875 C 8.191406 23.886719 8.210938 23.867188 8.246094 23.863281 L 8.503906 23.863281 C 8.542969 23.867188 8.5625 23.886719 8.5625 23.921875 L 8.5625 25.496094 C 8.5625 25.535156 8.542969 25.558594 8.503906 25.5625 "/><path style=" stroke:none;fill-rule:nonzero;fill:#ffffff;fill-opacity:1;" d="M 9.363281 25.585938 C 9.191406 25.585938 9.027344 25.566406 8.863281 25.527344 C 8.824219 25.515625 8.808594 25.492188 8.8125 25.457031 L 8.8125 25.277344 C 8.8125 25.246094 8.828125 25.230469 8.859375 25.230469 C 8.992188 25.246094 9.242188 25.257812 9.328125 25.257812 C 9.496094 25.257812 9.523438 25.199219 9.523438 25.117188 C 9.523438 25.039062 9.492188 25.023438 9.402344 24.964844 L 9.019531 24.710938 C 8.867188 24.613281 8.789062 24.472656 8.789062 24.292969 C 8.789062 23.988281 8.964844 23.84375 9.316406 23.84375 C 9.484375 23.839844 9.648438 23.859375 9.808594 23.902344 C 9.847656 23.910156 9.863281 23.933594 9.863281 23.972656 L 9.863281 24.152344 C 9.863281 24.191406 9.84375 24.207031 9.816406 24.207031 C 9.664062 24.191406 9.507812 24.179688 9.355469 24.175781 C 9.222656 24.175781 9.164062 24.207031 9.164062 24.300781 C 9.164062 24.351562 9.207031 24.375 9.273438 24.421875 L 9.636719 24.664062 C 9.824219 24.761719 9.914062 24.914062 9.90625 25.125 C 9.90625 25.253906 9.859375 25.363281 9.769531 25.457031 C 9.675781 25.550781 9.566406 25.597656 9.433594 25.597656 C 9.410156 25.597656 9.386719 25.597656 9.363281 25.59375 "/><path style=" stroke:none;fill-rule:nonzero;fill:#ffffff;fill-opacity:1;" d="M 10.46875 23.640625 L 10.207031 23.640625 C 10.167969 23.636719 10.152344 23.613281 10.152344 23.578125 L 10.152344 23.316406 C 10.152344 23.277344 10.167969 23.257812 10.207031 23.253906 L 10.480469 23.253906 C 10.515625 23.257812 10.535156 23.277344 10.53125 23.316406 L 10.53125 23.578125 C 10.535156 23.613281 10.515625 23.636719 10.480469 23.640625 M 10.480469 25.5625 L 10.207031 25.5625 C 10.167969 25.558594 10.148438 25.539062 10.152344 25.496094 L 10.152344 23.921875 C 10.148438 23.886719 10.167969 23.863281 10.207031 23.863281 L 10.460938 23.863281 C 10.5 23.863281 10.519531 23.882812 10.515625 23.921875 L 10.515625 25.496094 C 10.519531 25.535156 10.5 25.558594 10.460938 25.5625 "/><path style=" stroke:none;fill-rule:nonzero;fill:#ffffff;fill-opacity:1;" d="M 12.042969 24.851562 L 11.136719 24.851562 C 11.136719 25.027344 11.207031 25.230469 11.46875 25.230469 C 11.640625 25.230469 11.8125 25.222656 11.984375 25.203125 C 12.015625 25.203125 12.03125 25.21875 12.03125 25.246094 L 12.03125 25.445312 C 12.03125 25.496094 12.03125 25.515625 11.972656 25.527344 C 11.796875 25.566406 11.617188 25.582031 11.433594 25.578125 C 11.246094 25.578125 11.089844 25.515625 10.957031 25.386719 C 10.824219 25.257812 10.757812 25.101562 10.757812 24.917969 C 10.757812 24.886719 10.757812 24.855469 10.761719 24.824219 L 10.761719 24.597656 C 10.761719 24.128906 11.003906 23.832031 11.429688 23.832031 C 11.855469 23.832031 12.089844 24.136719 12.089844 24.597656 L 12.089844 24.765625 C 12.089844 24.816406 12.089844 24.84375 12.035156 24.84375 M 11.722656 24.535156 C 11.722656 24.304688 11.601562 24.167969 11.433594 24.167969 C 11.261719 24.167969 11.121094 24.300781 11.121094 24.535156 L 11.726562 24.535156 Z M 11.722656 24.535156 "/><path style=" stroke:none;fill-rule:nonzero;fill:#ffffff;fill-opacity:1;" d="M 14.269531 23.675781 L 13.78125 23.675781 L 13.78125 25.511719 C 13.78125 25.550781 13.765625 25.574219 13.726562 25.574219 L 13.453125 25.574219 C 13.414062 25.574219 13.394531 25.550781 13.394531 25.511719 L 13.394531 23.675781 L 12.910156 23.675781 C 12.875 23.679688 12.855469 23.660156 12.851562 23.625 L 12.851562 23.382812 C 12.851562 23.34375 12.871094 23.328125 12.90625 23.328125 L 14.269531 23.328125 C 14.304688 23.328125 14.320312 23.34375 14.320312 23.378906 L 14.320312 23.621094 C 14.324219 23.65625 14.304688 23.675781 14.269531 23.675781 L 14.265625 23.675781 "/><path style=" stroke:none;fill-rule:nonzero;fill:#ffffff;fill-opacity:1;" d="M 15.726562 24.851562 L 14.820312 24.851562 C 14.820312 25.027344 14.890625 25.230469 15.15625 25.230469 C 15.328125 25.230469 15.5 25.21875 15.667969 25.203125 C 15.699219 25.199219 15.71875 25.214844 15.71875 25.242188 L 15.71875 25.445312 C 15.71875 25.496094 15.71875 25.515625 15.664062 25.527344 C 15.484375 25.566406 15.304688 25.582031 15.125 25.578125 C 14.9375 25.578125 14.777344 25.515625 14.644531 25.386719 C 14.515625 25.257812 14.445312 25.101562 14.445312 24.917969 C 14.445312 24.886719 14.449219 24.855469 14.453125 24.820312 L 14.453125 24.597656 C 14.453125 24.128906 14.691406 23.832031 15.117188 23.832031 C 15.308594 23.835938 15.472656 23.902344 15.605469 24.039062 C 15.738281 24.171875 15.804688 24.335938 15.804688 24.523438 C 15.804688 24.550781 15.800781 24.578125 15.796875 24.605469 L 15.796875 24.765625 C 15.796875 24.816406 15.78125 24.84375 15.742188 24.84375 M 15.429688 24.535156 C 15.429688 24.304688 15.308594 24.167969 15.140625 24.167969 C 14.96875 24.167969 14.84375 24.300781 14.84375 24.535156 Z M 15.429688 24.535156 "/><path style=" stroke:none;fill-rule:nonzero;fill:#ffffff;fill-opacity:1;" d="M 16.355469 25.5625 L 16.105469 25.5625 C 16.066406 25.558594 16.050781 25.535156 16.050781 25.496094 L 16.050781 23.328125 C 16.050781 23.292969 16.070312 23.273438 16.105469 23.269531 L 16.363281 23.269531 C 16.402344 23.273438 16.417969 23.292969 16.417969 23.328125 L 16.417969 25.496094 C 16.421875 25.535156 16.40625 25.558594 16.367188 25.5625 "/><path style=" stroke:none;fill-rule:nonzero;fill:#ffffff;fill-opacity:1;" d="M 17.941406 24.851562 L 17.039062 24.851562 C 17.039062 25.027344 17.105469 25.230469 17.375 25.230469 C 17.542969 25.230469 17.714844 25.21875 17.882812 25.199219 C 17.917969 25.199219 17.933594 25.214844 17.9375 25.246094 L 17.9375 25.445312 C 17.9375 25.496094 17.9375 25.515625 17.878906 25.527344 C 17.699219 25.566406 17.519531 25.582031 17.335938 25.578125 C 17.152344 25.578125 16.992188 25.515625 16.859375 25.386719 C 16.726562 25.257812 16.660156 25.101562 16.660156 24.917969 C 16.660156 24.886719 16.660156 24.851562 16.664062 24.820312 L 16.664062 24.597656 C 16.640625 24.417969 16.683594 24.253906 16.796875 24.105469 C 16.910156 23.960938 17.058594 23.878906 17.242188 23.851562 C 17.277344 23.847656 17.3125 23.847656 17.347656 23.847656 C 17.789062 23.847656 18.011719 24.152344 18.011719 24.613281 L 18.011719 24.765625 C 18.011719 24.816406 17.992188 24.84375 17.953125 24.84375 M 17.644531 24.535156 C 17.644531 24.304688 17.523438 24.167969 17.351562 24.167969 C 17.179688 24.167969 17.042969 24.300781 17.042969 24.535156 Z M 17.644531 24.535156 "/><path style=" stroke:none;fill-rule:nonzero;fill:#ffffff;fill-opacity:1;" d="M 19.175781 25.546875 C 19.058594 25.574219 18.9375 25.589844 18.816406 25.585938 C 18.453125 25.585938 18.195312 25.34375 18.195312 24.855469 L 18.195312 24.574219 C 18.195312 24.082031 18.46875 23.839844 18.816406 23.839844 C 18.9375 23.839844 19.058594 23.851562 19.175781 23.882812 C 19.222656 23.882812 19.230469 23.914062 19.230469 23.960938 L 19.230469 24.152344 C 19.230469 24.183594 19.210938 24.195312 19.179688 24.195312 C 19.0625 24.183594 18.941406 24.175781 18.820312 24.179688 C 18.691406 24.179688 18.554688 24.257812 18.554688 24.570312 L 18.554688 24.851562 C 18.554688 25.160156 18.691406 25.246094 18.820312 25.246094 C 18.941406 25.246094 19.0625 25.242188 19.179688 25.226562 C 19.210938 25.226562 19.230469 25.226562 19.230469 25.269531 L 19.230469 25.464844 C 19.230469 25.515625 19.230469 25.53125 19.175781 25.542969 "/><path style=" stroke:none;fill-rule:nonzero;fill:#ffffff;fill-opacity:1;" d="M 20.085938 25.585938 C 19.902344 25.585938 19.742188 25.523438 19.613281 25.394531 C 19.480469 25.269531 19.414062 25.113281 19.414062 24.933594 C 19.414062 24.898438 19.417969 24.867188 19.421875 24.835938 L 19.421875 24.589844 C 19.398438 24.410156 19.441406 24.25 19.554688 24.105469 C 19.664062 23.960938 19.8125 23.875 19.996094 23.851562 C 20.027344 23.847656 20.054688 23.847656 20.085938 23.847656 C 20.519531 23.847656 20.746094 24.152344 20.746094 24.59375 L 20.746094 24.839844 C 20.746094 25.269531 20.519531 25.589844 20.085938 25.589844 M 20.394531 24.59375 C 20.394531 24.351562 20.289062 24.191406 20.085938 24.191406 C 19.878906 24.191406 19.773438 24.351562 19.773438 24.59375 L 19.773438 24.839844 C 19.773438 25.085938 19.878906 25.246094 20.085938 25.246094 C 20.292969 25.246094 20.394531 25.085938 20.394531 24.839844 Z M 20.394531 24.59375 "/><path style=" stroke:none;fill-rule:nonzero;fill:#ffffff;fill-opacity:1;" d="M 22.941406 25.5625 L 22.683594 25.5625 C 22.640625 25.558594 22.625 25.535156 22.625 25.496094 L 22.625 24.476562 C 22.625 24.242188 22.582031 24.183594 22.425781 24.183594 C 22.335938 24.1875 22.25 24.214844 22.167969 24.257812 L 22.167969 25.5 C 22.171875 25.539062 22.152344 25.558594 22.117188 25.5625 L 21.859375 25.5625 C 21.820312 25.558594 21.800781 25.539062 21.804688 25.5 L 21.804688 24.476562 C 21.804688 24.246094 21.769531 24.1875 21.609375 24.1875 C 21.515625 24.199219 21.433594 24.230469 21.355469 24.285156 L 21.355469 25.507812 C 21.359375 25.546875 21.339844 25.570312 21.300781 25.574219 L 21.046875 25.574219 C 21.003906 25.570312 20.988281 25.546875 20.988281 25.507812 L 20.988281 23.925781 C 20.988281 23.886719 21.003906 23.867188 21.042969 23.863281 L 21.285156 23.863281 C 21.324219 23.867188 21.34375 23.890625 21.339844 23.925781 L 21.339844 23.992188 C 21.457031 23.898438 21.589844 23.851562 21.742188 23.847656 C 21.867188 23.84375 21.972656 23.886719 22.050781 23.988281 C 22.195312 23.890625 22.351562 23.84375 22.527344 23.847656 C 22.902344 23.847656 22.984375 24.132812 22.984375 24.484375 L 22.984375 25.503906 C 22.988281 25.542969 22.972656 25.5625 22.933594 25.570312 "/><path style=" stroke:none;fill-rule:nonzero;fill:#ffffff;fill-opacity:1;" d="M 3.414062 13.34375 L 3.414062 14.472656 L 6.519531 14.472656 L 6.519531 20.863281 C 6.519531 22.113281 7.304688 22.554688 8.207031 22.554688 L 9.511719 22.554688 L 9.511719 14.472656 L 11.0625 14.472656 C 11.277344 14.464844 11.480469 14.417969 11.675781 14.339844 C 11.875 14.257812 12.050781 14.144531 12.203125 14 C 12.355469 13.855469 12.480469 13.6875 12.570312 13.5 C 12.664062 13.308594 12.71875 13.109375 12.734375 12.898438 L 12.734375 11.773438 L 5.101562 11.773438 C 4.882812 11.765625 4.675781 11.800781 4.472656 11.875 C 4.269531 11.949219 4.089844 12.058594 3.929688 12.203125 C 3.773438 12.347656 3.648438 12.519531 3.558594 12.714844 C 3.46875 12.90625 3.421875 13.109375 3.414062 13.324219 C 3.414062 13.332031 3.414062 13.335938 3.414062 13.34375 "/><path style=" stroke:none;fill-rule:nonzero;fill:#ffffff;fill-opacity:1;" d="M 15.359375 11.777344 C 15.140625 11.769531 14.933594 11.800781 14.730469 11.875 C 14.527344 11.949219 14.347656 12.058594 14.1875 12.203125 C 14.03125 12.347656 13.90625 12.515625 13.816406 12.707031 C 13.726562 12.902344 13.675781 13.105469 13.667969 13.316406 C 13.667969 13.328125 13.667969 13.335938 13.667969 13.34375 L 13.667969 14.472656 L 16.773438 14.472656 L 16.773438 20.863281 C 16.773438 22.113281 17.5625 22.554688 18.464844 22.554688 L 19.769531 22.554688 L 19.769531 14.472656 L 21.320312 14.472656 C 21.535156 14.464844 21.738281 14.417969 21.933594 14.339844 C 22.132812 14.257812 22.304688 14.144531 22.460938 14 C 22.613281 13.855469 22.738281 13.6875 22.828125 13.496094 C 22.921875 13.308594 22.976562 13.109375 22.992188 12.898438 L 22.992188 11.777344 Z M 15.359375 11.777344 "/></g></svg>