<svg xmlns="http://www.w3.org/2000/svg" xmlns:xlink="http://www.w3.org/1999/xlink" width="917" zoomAndPan="magnify" viewBox="0 0 687.75 687.750001" height="917" preserveAspectRatio="xMidYMid meet" version="1.2"><defs><clipPath id="431a0ab189"><path d="M 13.507812 224 L 256 224 L 256 344 L 13.507812 344 Z M 13.507812 224 "/></clipPath><clipPath id="356d85df64"><path d="M 192 128.8125 L 314 128.8125 L 314 344 L 192 344 Z M 192 128.8125 "/></clipPath><clipPath id="3ec5fd55e3"><path d="M 255 273 L 673.730469 273 L 673.730469 343 L 255 343 Z M 255 273 "/></clipPath><clipPath id="095f95f247"><path d="M 255 342 L 673.730469 342 L 673.730469 413 L 255 413 Z M 255 342 "/></clipPath><clipPath id="546d8f8329"><path d="M 13.507812 343 L 256 343 L 256 463 L 13.507812 463 Z M 13.507812 343 "/></clipPath><clipPath id="121b87b3d4"><path d="M 192 343 L 308 343 L 308 558.40625 L 192 558.40625 Z M 192 343 "/></clipPath><clipPath id="cb6a7f207d"><path d="M 13.507812 343 L 256 343 L 256 413 L 13.507812 413 Z M 13.507812 343 "/></clipPath><clipPath id="867b5bdbb4"><path d="M 13.507812 274 L 256 274 L 256 343 L 13.507812 343 Z M 13.507812 274 "/></clipPath></defs><g id="87aebf9c3f"><path style=" stroke:none;fill-rule:nonzero;fill:#1374b1;fill-opacity:1;" d="M 192.296875 131.929688 C 189.683594 132.542969 179.464844 134.703125 176.851562 135.371094 C 156.011719 140.78125 136.398438 149.097656 118.015625 160.308594 L 255.472656 343 Z M 192.296875 131.929688 "/><path style=" stroke:none;fill-rule:nonzero;fill:#40a6dd;fill-opacity:1;" d="M 118.015625 160.3125 C 106.378906 167.449219 95.496094 175.597656 85.371094 184.757812 C 75.246094 193.917969 66.050781 203.929688 57.789062 214.800781 C 55.402344 217.910156 53.066406 221.410156 50.738281 224.355469 L 255.472656 343.003906 Z M 118.015625 160.3125 "/><g clip-rule="nonzero" clip-path="url(#431a0ab189)"><path style=" stroke:none;fill-rule:nonzero;fill:#2956a0;fill-opacity:1;" d="M 255.46875 343.003906 L 50.730469 224.414062 C 44.125 234.152344 38.355469 244.359375 33.414062 255.039062 C 28.476562 265.71875 24.433594 276.726562 21.289062 288.066406 C 16.992188 305.945312 14.472656 324.074219 13.730469 342.445312 Z M 255.46875 343.003906 "/></g><g clip-rule="nonzero" clip-path="url(#356d85df64)"><path style=" stroke:none;fill-rule:nonzero;fill:#32b099;fill-opacity:1;" d="M 254.03125 129.480469 C 233.367188 128.0625 212.789062 128.878906 192.300781 131.929688 L 255.472656 343.003906 L 313.867188 142.535156 C 294.292969 136.5 274.34375 132.148438 254.03125 129.480469 "/></g><path style=" stroke:none;fill-rule:nonzero;fill:#238044;fill-opacity:1;" d="M 255.472656 343 L 458.710938 206.433594 L 419.152344 185.9375 L 392.875 173.363281 Z M 255.472656 343 "/><path style=" stroke:none;fill-rule:nonzero;fill:#269595;fill-opacity:1;" d="M 392.875 173.363281 C 382.03125 167.875 370.921875 162.988281 359.542969 158.703125 C 339.539062 150.589844 332.859375 148.699219 314.085938 142.535156 L 255.46875 343.003906 Z M 392.875 173.363281 "/><path style=" stroke:none;fill-rule:nonzero;fill:#319b52;fill-opacity:1;" d="M 572.054688 273.734375 C 529.722656 246.570312 492.105469 224.414062 458.710938 206.414062 C 452.050781 202.796875 445.269531 199.414062 438.933594 196.140625 L 255.582031 343 Z M 572.054688 273.734375 "/><g clip-rule="nonzero" clip-path="url(#3ec5fd55e3)"><path style=" stroke:none;fill-rule:nonzero;fill:#ffea00;fill-opacity:1;" d="M 673.730469 342.722656 C 643.132812 320.875 614.371094 301.195312 587.445312 283.679688 L 572.066406 273.730469 L 255.359375 343 Z M 673.730469 342.722656 "/></g><path style=" stroke:none;fill-rule:nonzero;fill:#89bd54;fill-opacity:1;" d="M 572.054688 273.75 L 565.777344 269.75 L 554.921875 262.917969 L 542.203125 254.921875 L 527.175781 245.6875 L 508.179688 234.363281 L 491.0625 224.414062 L 255.472656 343.003906 Z M 572.054688 273.75 "/><path style=" stroke:none;fill-rule:nonzero;fill:#de161f;fill-opacity:1;" d="M 255.472656 343.003906 L 458.65625 479.53125 L 419.152344 500.085938 L 393.042969 512.746094 Z M 255.472656 343.003906 "/><path style=" stroke:none;fill-rule:nonzero;fill:#e85f32;fill-opacity:1;" d="M 572.054688 412.261719 C 542.777344 431.09375 516.046875 447.3125 491.089844 461.644531 C 479.980469 467.972656 468.867188 473.851562 458.921875 479.414062 C 452.257812 483.03125 445.472656 486.414062 439.199219 489.636719 L 255.472656 342.996094 Z M 572.054688 412.261719 "/><g clip-rule="nonzero" clip-path="url(#095f95f247)"><path style=" stroke:none;fill-rule:nonzero;fill:#f9bc0b;fill-opacity:1;" d="M 673.730469 342.722656 C 643.117188 364.496094 614.386719 384.714844 587.445312 402.324219 L 572.066406 412.273438 L 255.359375 343 Z M 673.730469 342.722656 "/></g><path style=" stroke:none;fill-rule:nonzero;fill:#f29d5a;fill-opacity:1;" d="M 572.054688 412.265625 L 549.4375 426.597656 L 527.175781 440.316406 L 507.769531 451.871094 L 491.035156 461.648438 L 255.472656 343 Z M 572.054688 412.265625 "/><path style=" stroke:none;fill-rule:nonzero;fill:#e42175;fill-opacity:1;" d="M 192.480469 554.679688 C 189.816406 554.066406 179.585938 551.96875 176.972656 551.238281 C 156.09375 545.871094 136.464844 537.558594 118.082031 526.300781 L 255.472656 342.996094 Z M 192.480469 554.679688 "/><path style=" stroke:none;fill-rule:nonzero;fill:#772680;fill-opacity:1;" d="M 118.125 526.078125 C 106.460938 518.917969 95.5625 510.734375 85.429688 501.539062 C 75.292969 492.339844 66.097656 482.28125 57.84375 471.367188 C 55.511719 468.253906 53.179688 465.089844 50.957031 461.8125 L 255.472656 343.003906 Z M 118.125 526.078125 "/><g clip-rule="nonzero" clip-path="url(#546d8f8329)"><path style=" stroke:none;fill-rule:nonzero;fill:#552673;fill-opacity:1;" d="M 255.472656 343.003906 L 50.734375 462.035156 C 44.101562 452.265625 38.304688 442.023438 33.34375 431.304688 C 28.386719 420.585938 24.328125 409.539062 21.175781 398.160156 C 16.84375 380.132812 14.289062 361.855469 13.507812 343.332031 Z M 255.472656 343.003906 "/></g><g clip-rule="nonzero" clip-path="url(#121b87b3d4)"><path style=" stroke:none;fill-rule:nonzero;fill:#d75871;fill-opacity:1;" d="M 254.082031 557.40625 C 249.027344 557.90625 242.195312 558.410156 242.195312 558.410156 L 231.578125 558.410156 C 218.496094 558.242188 205.527344 556.929688 192.679688 554.472656 L 255.460938 343.007812 L 307.363281 545.917969 L 303.921875 547.074219 C 287.613281 552.269531 270.945312 555.714844 253.914062 557.40625 "/></g><path style=" stroke:none;fill-rule:nonzero;fill:#e3342a;fill-opacity:1;" d="M 393.210938 512.632812 C 382.183594 518.144531 370.886719 523.03125 359.324219 527.300781 C 339.320312 535.410156 325.980469 539.691406 307.375 545.90625 L 255.472656 342.996094 Z M 393.210938 512.632812 "/><path style=" stroke:none;fill-rule:nonzero;fill:#e54420;fill-opacity:1;" d="M 255.472656 343.003906 L 439.210938 489.644531 C 439.210938 485.867188 429.15625 440.878906 427.453125 429.542969 Z M 255.472656 343.003906 "/><path style=" stroke:none;fill-rule:nonzero;fill:#e22923;fill-opacity:1;" d="M 255.472656 343.003906 L 360.480469 472.53125 C 387.652344 477.753906 420.640625 486.144531 439.207031 489.644531 Z M 255.472656 343.003906 "/><path style=" stroke:none;fill-rule:nonzero;fill:#e13d8b;fill-opacity:1;" d="M 118.125 526.023438 L 255.472656 343.003906 L 211.742188 489.589844 Z M 118.125 526.023438 "/><path style=" stroke:none;fill-rule:nonzero;fill:#b63280;fill-opacity:1;" d="M 255.472656 342.980469 L 136.019531 412.484375 C 134.589844 421.871094 124.570312 503.75 118.125 526.078125 L 255.472656 342.777344 "/><g clip-rule="nonzero" clip-path="url(#cb6a7f207d)"><path style=" stroke:none;fill-rule:nonzero;fill:#6d247a;fill-opacity:1;" d="M 13.675781 343.003906 L 255.472656 343.003906 L 136.019531 412.488281 Z M 13.675781 343.003906 "/></g><path style=" stroke:none;fill-rule:nonzero;fill:#e42175;fill-opacity:1;" d="M 211.746094 489.585938 L 255.472656 343.003906 L 307.367188 545.90625 Z M 211.746094 489.585938 "/><path style=" stroke:none;fill-rule:nonzero;fill:#d0161a;fill-opacity:1;" d="M 360.480469 472.53125 L 255.472656 343.003906 L 307.347656 545.90625 Z M 360.480469 472.53125 "/><path style=" stroke:none;fill-rule:nonzero;fill:#2ba7da;fill-opacity:1;" d="M 118.015625 160.3125 L 255.46875 343.003906 L 209.203125 188.472656 Z M 118.015625 160.3125 "/><path style=" stroke:none;fill-rule:nonzero;fill:#2295bd;fill-opacity:1;" d="M 118.015625 160.3125 C 124.683594 210.578125 137.519531 274.71875 137.519531 274.71875 L 255.472656 343.003906 Z M 118.015625 160.3125 "/><g clip-rule="nonzero" clip-path="url(#867b5bdbb4)"><path style=" stroke:none;fill-rule:nonzero;fill:#223b7b;fill-opacity:1;" d="M 13.675781 343 L 255.472656 343 L 137.515625 274.679688 Z M 13.675781 343 "/></g><path style=" stroke:none;fill-rule:nonzero;fill:#28a294;fill-opacity:1;" d="M 209.191406 188.472656 L 255.472656 343.003906 L 313.886719 142.554688 Z M 209.191406 188.472656 "/><path style=" stroke:none;fill-rule:nonzero;fill:#319b52;fill-opacity:1;" d="M 438.933594 196.136719 L 360.984375 212.800781 L 255.472656 343 Z M 438.933594 196.136719 "/><path style=" stroke:none;fill-rule:nonzero;fill:#32b099;fill-opacity:1;" d="M 313.863281 142.554688 L 360.976562 212.800781 L 255.972656 342.554688 Z M 313.863281 142.554688 "/><path style=" stroke:none;fill-rule:nonzero;fill:#2fa85f;fill-opacity:1;" d="M 438.933594 196.136719 L 255.472656 343 L 431.210938 254.515625 Z M 438.933594 196.136719 "/><path style=" stroke:none;fill-rule:nonzero;fill:#ffd700;fill-opacity:1;" d="M 508.9375 342.835938 C 518.328125 331.730469 562.71875 286.347656 572.054688 273.738281 L 255.359375 343.003906 Z M 508.9375 342.835938 "/><path style=" stroke:none;fill-rule:nonzero;fill:#6fb556;fill-opacity:1;" d="M 572.054688 273.753906 L 431.210938 254.535156 L 255.472656 343.003906 Z M 572.054688 273.753906 "/><path style=" stroke:none;fill-rule:nonzero;fill:#f5a617;fill-opacity:1;" d="M 508.9375 342.835938 C 529.71875 364.054688 561.605469 402.328125 572.054688 412.273438 L 255.359375 342.996094 Z M 508.9375 342.835938 "/><path style=" stroke:none;fill-rule:nonzero;fill:#ef8d33;fill-opacity:1;" d="M 572.054688 412.265625 L 427.433594 429.542969 L 255.472656 343 Z M 572.054688 412.265625 "/><path style=" stroke:none;fill-rule:nonzero;fill:#ffffff;fill-opacity:1;" d="M 98.351562 440.484375 L 89.628906 440.484375 L 89.628906 473.808594 C 89.636719 473.949219 89.617188 474.085938 89.570312 474.21875 C 89.523438 474.351562 89.453125 474.46875 89.359375 474.574219 C 89.265625 474.675781 89.152344 474.757812 89.027344 474.820312 C 88.898438 474.878906 88.765625 474.914062 88.625 474.921875 L 83.738281 474.921875 C 83.601562 474.914062 83.46875 474.882812 83.339844 474.820312 C 83.214844 474.761719 83.101562 474.679688 83.007812 474.578125 C 82.914062 474.472656 82.84375 474.355469 82.796875 474.222656 C 82.75 474.09375 82.730469 473.957031 82.734375 473.816406 L 82.734375 440.484375 L 74.019531 440.484375 C 73.886719 440.484375 73.757812 440.460938 73.632812 440.410156 C 73.511719 440.359375 73.402344 440.285156 73.308594 440.191406 C 73.214844 440.097656 73.140625 439.988281 73.089844 439.867188 C 73.039062 439.742188 73.015625 439.613281 73.015625 439.480469 L 73.015625 435.148438 C 73.015625 435.015625 73.042969 434.890625 73.09375 434.765625 C 73.144531 434.644531 73.21875 434.535156 73.3125 434.445312 C 73.40625 434.351562 73.515625 434.277344 73.636719 434.226562 C 73.757812 434.179688 73.886719 434.152344 74.019531 434.152344 L 98.355469 434.152344 C 98.480469 434.144531 98.605469 434.164062 98.726562 434.203125 C 98.84375 434.246094 98.953125 434.308594 99.046875 434.394531 C 99.140625 434.480469 99.214844 434.582031 99.269531 434.695312 C 99.324219 434.808594 99.355469 434.929688 99.359375 435.058594 L 99.359375 439.503906 C 99.375 439.769531 99.292969 440 99.117188 440.195312 C 98.9375 440.390625 98.71875 440.496094 98.453125 440.507812 L 98.339844 440.507812 "/><path style=" stroke:none;fill-rule:nonzero;fill:#ffffff;fill-opacity:1;" d="M 124.511719 474.699219 L 119.960938 474.699219 C 119.824219 474.691406 119.691406 474.660156 119.5625 474.597656 C 119.4375 474.539062 119.328125 474.457031 119.234375 474.355469 C 119.136719 474.25 119.066406 474.132812 119.019531 474 C 118.972656 473.871094 118.953125 473.734375 118.957031 473.59375 L 118.957031 472.320312 C 117.855469 473.226562 116.632812 473.914062 115.285156 474.378906 C 113.9375 474.847656 112.550781 475.0625 111.125 475.035156 C 110 475.109375 108.90625 474.949219 107.851562 474.554688 C 106.796875 474.160156 105.867188 473.566406 105.066406 472.773438 C 104.058594 471.332031 103.339844 469.757812 102.910156 468.054688 C 102.480469 466.351562 102.367188 464.625 102.570312 462.878906 L 102.570312 445.039062 C 102.558594 444.894531 102.578125 444.753906 102.621094 444.617188 C 102.664062 444.476562 102.734375 444.351562 102.828125 444.242188 C 102.921875 444.132812 103.03125 444.042969 103.160156 443.976562 C 103.289062 443.910156 103.425781 443.867188 103.570312 443.855469 L 108.125 443.855469 C 108.269531 443.867188 108.402344 443.90625 108.53125 443.972656 C 108.660156 444.039062 108.769531 444.125 108.863281 444.234375 C 108.957031 444.34375 109.027344 444.464844 109.074219 444.601562 C 109.117188 444.738281 109.136719 444.878906 109.128906 445.019531 L 109.128906 462.847656 C 109.128906 465.558594 109.128906 467.125 110.242188 468.070312 C 111.144531 468.824219 112.179688 469.160156 113.355469 469.074219 C 115.378906 468.765625 117.234375 468.027344 118.914062 466.851562 L 118.914062 445.039062 C 118.894531 444.742188 118.984375 444.480469 119.175781 444.253906 C 119.367188 444.03125 119.613281 443.902344 119.90625 443.871094 L 124.460938 443.871094 C 124.605469 443.886719 124.742188 443.925781 124.867188 443.992188 C 124.996094 444.054688 125.105469 444.144531 125.199219 444.253906 C 125.292969 444.363281 125.363281 444.484375 125.410156 444.621094 C 125.457031 444.753906 125.476562 444.894531 125.46875 445.039062 L 125.46875 473.585938 C 125.472656 473.726562 125.453125 473.863281 125.410156 473.992188 C 125.363281 474.125 125.292969 474.242188 125.199219 474.347656 C 125.105469 474.453125 124.996094 474.535156 124.871094 474.59375 C 124.746094 474.65625 124.613281 474.691406 124.472656 474.699219 "/><path style=" stroke:none;fill-rule:nonzero;fill:#ffffff;fill-opacity:1;" d="M 152.6875 474.699219 L 148.113281 474.699219 C 147.820312 474.667969 147.574219 474.542969 147.378906 474.316406 C 147.1875 474.089844 147.097656 473.828125 147.109375 473.53125 L 147.109375 455.761719 C 147.109375 450.984375 146.722656 449.648438 142.886719 449.648438 C 140.859375 449.789062 139.007812 450.4375 137.335938 451.59375 L 137.335938 473.8125 C 137.351562 474.109375 137.261719 474.371094 137.066406 474.59375 C 136.871094 474.820312 136.628906 474.945312 136.332031 474.976562 L 131.800781 474.976562 C 131.503906 474.945312 131.257812 474.820312 131.0625 474.597656 C 130.867188 474.371094 130.78125 474.109375 130.796875 473.8125 L 130.796875 444.980469 C 130.789062 444.839844 130.808594 444.703125 130.855469 444.574219 C 130.898438 444.441406 130.96875 444.324219 131.0625 444.21875 C 131.15625 444.113281 131.265625 444.03125 131.390625 443.972656 C 131.519531 443.910156 131.652344 443.875 131.789062 443.867188 L 136.070312 443.867188 C 136.210938 443.875 136.34375 443.90625 136.46875 443.964844 C 136.597656 444.027344 136.707031 444.109375 136.800781 444.210938 C 136.894531 444.3125 136.964844 444.433594 137.011719 444.5625 C 137.058594 444.695312 137.082031 444.832031 137.074219 444.972656 L 137.074219 446.136719 C 138.230469 445.238281 139.503906 444.570312 140.902344 444.128906 C 142.296875 443.6875 143.726562 443.503906 145.1875 443.578125 C 152.359375 443.578125 153.78125 449.136719 153.78125 455.859375 L 153.78125 473.636719 C 153.796875 473.933594 153.710938 474.195312 153.515625 474.417969 C 153.320312 474.644531 153.074219 474.769531 152.777344 474.796875 "/><path style=" stroke:none;fill-rule:nonzero;fill:#ffffff;fill-opacity:1;" d="M 164.738281 439.816406 L 159.910156 439.816406 C 159.625 439.785156 159.390625 439.664062 159.199219 439.453125 C 159.007812 439.238281 158.914062 438.988281 158.917969 438.703125 L 158.917969 433.929688 C 158.914062 433.640625 159.007812 433.390625 159.199219 433.179688 C 159.390625 432.964844 159.625 432.84375 159.910156 432.816406 L 164.746094 432.816406 C 164.886719 432.824219 165.019531 432.855469 165.148438 432.917969 C 165.273438 432.976562 165.386719 433.058594 165.480469 433.164062 C 165.574219 433.269531 165.644531 433.386719 165.691406 433.519531 C 165.738281 433.652344 165.757812 433.789062 165.75 433.929688 L 165.75 438.703125 C 165.757812 438.84375 165.738281 438.980469 165.691406 439.109375 C 165.644531 439.242188 165.578125 439.359375 165.484375 439.464844 C 165.390625 439.570312 165.28125 439.652344 165.152344 439.710938 C 165.027344 439.773438 164.894531 439.808594 164.757812 439.816406 M 164.757812 474.699219 L 160.140625 474.699219 C 159.855469 474.65625 159.625 474.523438 159.441406 474.300781 C 159.261719 474.074219 159.179688 473.820312 159.195312 473.53125 L 159.195312 444.980469 C 159.179688 444.699219 159.265625 444.449219 159.445312 444.234375 C 159.628906 444.019531 159.863281 443.898438 160.140625 443.867188 L 164.757812 443.867188 C 165.042969 443.898438 165.28125 444.015625 165.472656 444.230469 C 165.664062 444.441406 165.761719 444.691406 165.761719 444.980469 L 165.761719 473.527344 C 165.761719 473.820312 165.667969 474.078125 165.476562 474.300781 C 165.285156 474.519531 165.046875 474.652344 164.757812 474.695312 "/><path style=" stroke:none;fill-rule:nonzero;fill:#ffffff;fill-opacity:1;" d="M 180.074219 475.144531 C 177.050781 475.140625 174.070312 474.769531 171.132812 474.035156 C 170.847656 473.960938 170.617188 473.800781 170.449219 473.5625 C 170.277344 473.320312 170.203125 473.054688 170.230469 472.757812 L 170.230469 469.558594 C 170.226562 469.320312 170.308594 469.117188 170.46875 468.941406 C 170.628906 468.769531 170.824219 468.671875 171.0625 468.652344 C 173.449219 468.933594 177.953125 469.210938 179.449219 469.210938 C 182.503906 469.210938 182.949219 468.097656 182.949219 466.652344 C 182.949219 465.210938 182.390625 464.9375 180.78125 463.878906 L 173.964844 459.261719 C 173.335938 458.847656 172.765625 458.367188 172.253906 457.816406 C 171.742188 457.261719 171.308594 456.65625 170.945312 456 C 170.582031 455.339844 170.300781 454.648438 170.109375 453.921875 C 169.914062 453.195312 169.8125 452.457031 169.800781 451.703125 C 169.800781 446.148438 172.964844 443.539062 179.25 443.539062 C 182.238281 443.492188 185.183594 443.84375 188.078125 444.589844 C 188.371094 444.660156 188.605469 444.8125 188.785156 445.054688 C 188.964844 445.296875 189.042969 445.566406 189.023438 445.867188 L 189.023438 449.148438 C 189.023438 449.8125 188.691406 450.144531 188.191406 450.144531 C 185.460938 449.800781 182.71875 449.601562 179.96875 449.539062 C 177.578125 449.539062 176.515625 450.089844 176.515625 451.800781 C 176.515625 452.703125 177.292969 453.191406 178.515625 454.019531 L 185.019531 458.40625 C 185.773438 458.804688 186.453125 459.300781 187.066406 459.894531 C 187.679688 460.484375 188.195312 461.152344 188.617188 461.890625 C 189.039062 462.628906 189.351562 463.414062 189.550781 464.242188 C 189.753906 465.066406 189.835938 465.90625 189.796875 466.757812 C 189.800781 467.316406 189.753906 467.871094 189.652344 468.417969 C 189.546875 468.964844 189.390625 469.5 189.183594 470.015625 C 188.976562 470.535156 188.71875 471.027344 188.414062 471.496094 C 188.109375 471.960938 187.761719 472.394531 187.371094 472.792969 C 186.980469 473.195312 186.554688 473.550781 186.09375 473.867188 C 185.632812 474.179688 185.148438 474.449219 184.632812 474.667969 C 184.121094 474.886719 183.589844 475.054688 183.042969 475.167969 C 182.5 475.285156 181.945312 475.34375 181.386719 475.351562 C 180.949219 475.355469 180.511719 475.324219 180.074219 475.257812 "/><path style=" stroke:none;fill-rule:nonzero;fill:#ffffff;fill-opacity:1;" d="M 199.910156 439.816406 L 195.199219 439.816406 C 194.910156 439.789062 194.671875 439.667969 194.480469 439.453125 C 194.289062 439.242188 194.191406 438.992188 194.191406 438.703125 L 194.191406 433.929688 C 194.191406 433.640625 194.289062 433.390625 194.480469 433.175781 C 194.671875 432.964844 194.910156 432.84375 195.199219 432.816406 L 200.082031 432.816406 C 200.363281 432.84375 200.597656 432.964844 200.777344 433.183594 C 200.960938 433.398438 201.046875 433.644531 201.027344 433.929688 L 201.027344 438.703125 C 201.046875 438.984375 200.960938 439.234375 200.777344 439.449219 C 200.597656 439.664062 200.363281 439.789062 200.082031 439.816406 M 200.082031 474.699219 L 195.199219 474.699219 C 195.054688 474.6875 194.917969 474.644531 194.792969 474.582031 C 194.664062 474.515625 194.554688 474.425781 194.460938 474.316406 C 194.367188 474.210938 194.296875 474.085938 194.25 473.949219 C 194.203125 473.816406 194.183594 473.675781 194.191406 473.53125 L 194.191406 444.980469 C 194.1875 444.839844 194.207031 444.703125 194.25 444.574219 C 194.296875 444.441406 194.367188 444.324219 194.460938 444.21875 C 194.554688 444.113281 194.664062 444.03125 194.789062 443.972656 C 194.914062 443.910156 195.046875 443.875 195.1875 443.867188 L 199.746094 443.867188 C 199.886719 443.875 200.019531 443.90625 200.144531 443.96875 C 200.269531 444.027344 200.382812 444.109375 200.472656 444.210938 C 200.566406 444.316406 200.636719 444.433594 200.683594 444.566406 C 200.730469 444.695312 200.75 444.832031 200.742188 444.972656 L 200.742188 473.519531 C 200.761719 473.816406 200.671875 474.074219 200.480469 474.300781 C 200.285156 474.527344 200.042969 474.65625 199.746094 474.683594 "/><path style=" stroke:none;fill-rule:nonzero;fill:#ffffff;fill-opacity:1;" d="M 228.027344 461.824219 L 211.855469 461.824219 C 211.855469 464.988281 213.082031 468.710938 217.804688 468.710938 C 220.871094 468.691406 223.925781 468.503906 226.972656 468.15625 C 227.203125 468.15625 227.398438 468.238281 227.5625 468.398438 C 227.726562 468.5625 227.808594 468.757812 227.808594 468.988281 L 227.808594 472.605469 C 227.808594 473.507812 227.808594 473.878906 226.816406 474.046875 C 223.628906 474.757812 220.40625 475.074219 217.144531 474.992188 C 216.351562 474.996094 215.566406 474.921875 214.789062 474.773438 C 214.015625 474.621094 213.257812 474.398438 212.527344 474.097656 C 211.792969 473.800781 211.097656 473.433594 210.4375 472.996094 C 209.777344 472.558594 209.164062 472.0625 208.601562 471.507812 C 208.039062 470.949219 207.535156 470.34375 207.09375 469.6875 C 206.652344 469.03125 206.277344 468.339844 205.96875 467.609375 C 205.664062 466.878906 205.429688 466.125 205.273438 465.351562 C 205.113281 464.574219 205.035156 463.792969 205.03125 463 C 205.027344 462.421875 205.0625 461.847656 205.144531 461.277344 L 205.144531 457.207031 C 205.144531 448.707031 209.476562 443.324219 217.089844 443.324219 C 224.703125 443.324219 228.851562 448.875 228.851562 457.207031 L 228.851562 460.261719 C 228.851562 461.164062 228.851562 461.652344 227.90625 461.652344 M 222.347656 456.09375 C 222.347656 451.871094 220.179688 449.429688 217.121094 449.429688 C 214.0625 449.429688 211.570312 451.816406 211.570312 456.09375 L 222.351562 456.09375 Z M 222.347656 456.09375 "/><path style=" stroke:none;fill-rule:nonzero;fill:#ffffff;fill-opacity:1;" d="M 267.859375 440.484375 L 259.136719 440.484375 L 259.136719 473.808594 C 259.144531 473.949219 259.125 474.085938 259.078125 474.21875 C 259.03125 474.351562 258.960938 474.46875 258.867188 474.574219 C 258.773438 474.675781 258.660156 474.757812 258.535156 474.820312 C 258.40625 474.878906 258.273438 474.914062 258.132812 474.921875 L 253.25 474.921875 C 253.109375 474.914062 252.976562 474.882812 252.847656 474.820312 C 252.722656 474.761719 252.613281 474.679688 252.515625 474.578125 C 252.421875 474.472656 252.351562 474.355469 252.304688 474.222656 C 252.257812 474.09375 252.238281 473.957031 252.246094 473.816406 L 252.246094 440.484375 L 243.578125 440.484375 C 243.300781 440.5 243.0625 440.414062 242.855469 440.230469 C 242.652344 440.046875 242.539062 439.816406 242.523438 439.539062 L 242.523438 435.152344 C 242.523438 434.878906 242.621094 434.640625 242.816406 434.445312 C 243.007812 434.25 243.242188 434.152344 243.519531 434.148438 L 267.859375 434.148438 C 268.121094 434.148438 268.34375 434.238281 268.527344 434.421875 C 268.714844 434.605469 268.804688 434.828125 268.804688 435.089844 L 268.804688 439.476562 C 268.820312 439.742188 268.738281 439.972656 268.5625 440.167969 C 268.382812 440.363281 268.164062 440.46875 267.898438 440.480469 L 267.839844 440.480469 "/><path style=" stroke:none;fill-rule:nonzero;fill:#ffffff;fill-opacity:1;" d="M 293.976562 461.824219 L 277.75 461.824219 C 277.75 464.988281 278.976562 468.710938 283.753906 468.710938 C 286.820312 468.6875 289.875 468.5 292.921875 468.15625 C 293.152344 468.136719 293.359375 468.203125 293.535156 468.351562 C 293.710938 468.503906 293.808594 468.695312 293.828125 468.929688 L 293.828125 472.601562 C 293.828125 473.503906 293.828125 473.875 292.824219 474.042969 C 289.636719 474.75 286.417969 475.0625 283.15625 474.988281 C 282.363281 474.992188 281.582031 474.917969 280.804688 474.769531 C 280.027344 474.617188 279.269531 474.394531 278.539062 474.09375 C 277.804688 473.792969 277.109375 473.425781 276.449219 472.988281 C 275.789062 472.554688 275.175781 472.058594 274.613281 471.5 C 274.050781 470.945312 273.546875 470.335938 273.105469 469.679688 C 272.660156 469.027344 272.285156 468.332031 271.980469 467.601562 C 271.671875 466.875 271.441406 466.121094 271.28125 465.347656 C 271.125 464.570312 271.042969 463.789062 271.039062 462.996094 C 271.035156 462.417969 271.074219 461.84375 271.152344 461.273438 L 271.152344 457.203125 C 271.152344 448.703125 275.429688 443.320312 283.046875 443.320312 C 283.863281 443.328125 284.667969 443.417969 285.464844 443.585938 C 286.265625 443.753906 287.039062 443.996094 287.785156 444.316406 C 288.535156 444.636719 289.246094 445.027344 289.917969 445.488281 C 290.59375 445.949219 291.214844 446.472656 291.785156 447.054688 C 292.351562 447.636719 292.859375 448.269531 293.304688 448.953125 C 293.75 449.632812 294.125 450.351562 294.429688 451.109375 C 294.730469 451.867188 294.957031 452.644531 295.109375 453.445312 C 295.257812 454.246094 295.328125 455.054688 295.320312 455.867188 C 295.316406 456.371094 295.277344 456.871094 295.210938 457.371094 L 295.210938 460.253906 C 295.210938 461.160156 294.933594 461.648438 294.214844 461.648438 M 288.65625 456.089844 C 288.65625 451.867188 286.488281 449.425781 283.433594 449.425781 C 280.375 449.425781 278.152344 451.8125 278.152344 456.089844 Z M 288.65625 456.089844 "/><path style=" stroke:none;fill-rule:nonzero;fill:#ffffff;fill-opacity:1;" d="M 305.199219 474.699219 L 300.75 474.699219 C 300.457031 474.667969 300.210938 474.542969 300.019531 474.316406 C 299.828125 474.089844 299.738281 473.828125 299.757812 473.53125 L 299.757812 434.191406 C 299.757812 433.910156 299.851562 433.667969 300.046875 433.464844 C 300.238281 433.261719 300.472656 433.148438 300.75 433.132812 L 305.359375 433.132812 C 305.636719 433.148438 305.867188 433.261719 306.050781 433.464844 C 306.234375 433.671875 306.320312 433.910156 306.304688 434.1875 L 306.304688 473.527344 C 306.320312 473.667969 306.308594 473.804688 306.269531 473.9375 C 306.230469 474.070312 306.167969 474.191406 306.078125 474.300781 C 305.992188 474.410156 305.886719 474.5 305.765625 474.566406 C 305.644531 474.636719 305.511719 474.679688 305.375 474.695312 "/><path style=" stroke:none;fill-rule:nonzero;fill:#ffffff;fill-opacity:1;" d="M 333.53125 461.816406 L 317.417969 461.816406 C 317.417969 464.980469 318.640625 468.703125 323.417969 468.703125 C 326.464844 468.675781 329.503906 468.492188 332.53125 468.144531 C 332.773438 468.136719 332.988281 468.210938 333.171875 468.371094 C 333.351562 468.535156 333.453125 468.734375 333.472656 468.976562 L 333.472656 472.597656 C 333.472656 473.5 333.472656 473.871094 332.414062 474.039062 C 329.230469 474.75 326.007812 475.066406 322.75 474.984375 C 321.957031 474.988281 321.171875 474.914062 320.394531 474.761719 C 319.617188 474.613281 318.863281 474.386719 318.128906 474.089844 C 317.398438 473.789062 316.699219 473.421875 316.039062 472.984375 C 315.378906 472.550781 314.769531 472.050781 314.207031 471.496094 C 313.644531 470.9375 313.140625 470.332031 312.695312 469.675781 C 312.253906 469.019531 311.878906 468.328125 311.570312 467.597656 C 311.265625 466.871094 311.03125 466.117188 310.875 465.339844 C 310.714844 464.566406 310.632812 463.78125 310.628906 462.992188 C 310.628906 462.414062 310.664062 461.839844 310.742188 461.269531 L 310.742188 457.199219 C 310.636719 456.417969 310.609375 455.632812 310.660156 454.84375 C 310.710938 454.058594 310.835938 453.28125 311.039062 452.519531 C 311.242188 451.757812 311.515625 451.019531 311.863281 450.3125 C 312.210938 449.605469 312.621094 448.9375 313.101562 448.308594 C 313.582031 447.683594 314.117188 447.109375 314.707031 446.585938 C 315.300781 446.0625 315.9375 445.605469 316.621094 445.210938 C 317.300781 444.8125 318.015625 444.488281 318.761719 444.230469 C 319.511719 443.976562 320.273438 443.796875 321.054688 443.691406 C 321.691406 443.605469 322.328125 443.570312 322.96875 443.585938 C 330.859375 443.585938 334.800781 449.144531 334.800781 457.46875 L 334.800781 460.246094 C 334.800781 461.152344 334.472656 461.640625 333.808594 461.640625 M 328.253906 456.09375 C 328.253906 451.871094 326.085938 449.429688 323.027344 449.429688 C 319.972656 449.429688 317.480469 451.816406 317.480469 456.09375 L 328.257812 456.09375 Z M 328.253906 456.09375 "/><path style=" stroke:none;fill-rule:nonzero;fill:#ffffff;fill-opacity:1;" d="M 355.644531 474.425781 C 353.527344 474.949219 351.378906 475.191406 349.199219 475.152344 C 342.753906 475.152344 338.089844 470.765625 338.089844 461.875 L 338.089844 456.765625 C 338.089844 447.878906 342.976562 443.492188 349.199219 443.492188 C 351.378906 443.449219 353.527344 443.691406 355.644531 444.214844 C 356.476562 444.214844 356.648438 444.773438 356.648438 445.660156 L 356.648438 449.160156 C 356.648438 449.714844 356.261719 449.929688 355.746094 449.929688 C 353.605469 449.679688 351.457031 449.566406 349.304688 449.601562 C 346.964844 449.601562 344.527344 451.042969 344.527344 456.714844 L 344.527344 461.824219 C 344.527344 467.371094 346.96875 468.933594 349.304688 468.933594 C 351.457031 468.96875 353.605469 468.859375 355.746094 468.601562 C 356.246094 468.601562 356.648438 468.601562 356.648438 469.378906 L 356.648438 472.929688 C 356.648438 473.835938 356.648438 474.15625 355.644531 474.375 "/><path style=" stroke:none;fill-rule:nonzero;fill:#ffffff;fill-opacity:1;" d="M 371.925781 475.144531 C 371.140625 475.148438 370.363281 475.078125 369.59375 474.929688 C 368.824219 474.78125 368.074219 474.558594 367.351562 474.261719 C 366.625 473.964844 365.933594 473.601562 365.28125 473.167969 C 364.625 472.734375 364.019531 472.242188 363.460938 471.691406 C 362.90625 471.140625 362.40625 470.539062 361.96875 469.890625 C 361.527344 469.242188 361.15625 468.554688 360.851562 467.832031 C 360.550781 467.109375 360.320312 466.363281 360.160156 465.59375 C 360.003906 464.828125 359.925781 464.050781 359.921875 463.265625 C 359.914062 462.6875 359.953125 462.109375 360.03125 461.535156 L 360.03125 457.089844 C 359.929688 456.3125 359.90625 455.53125 359.957031 454.75 C 360.011719 453.96875 360.136719 453.199219 360.339844 452.441406 C 360.546875 451.683594 360.820312 450.953125 361.167969 450.25 C 361.515625 449.550781 361.925781 448.886719 362.40625 448.265625 C 362.882812 447.644531 363.417969 447.074219 364.007812 446.558594 C 364.597656 446.042969 365.230469 445.585938 365.910156 445.195312 C 366.589844 444.804688 367.300781 444.480469 368.042969 444.230469 C 368.785156 443.980469 369.546875 443.800781 370.324219 443.699219 C 370.851562 443.625 371.386719 443.589844 371.921875 443.597656 C 379.699219 443.597656 383.757812 449.152344 383.757812 457.164062 L 383.757812 461.609375 C 383.757812 469.382812 379.6875 475.21875 371.921875 475.21875 M 377.480469 457.164062 C 377.480469 452.71875 375.589844 449.832031 371.921875 449.832031 C 368.25 449.832031 366.371094 452.71875 366.371094 457.164062 L 366.371094 461.609375 C 366.371094 466.050781 368.203125 468.9375 371.921875 468.9375 C 375.636719 468.9375 377.480469 466.050781 377.480469 461.609375 Z M 377.480469 457.164062 "/><path style=" stroke:none;fill-rule:nonzero;fill:#ffffff;fill-opacity:1;" d="M 422.984375 474.699219 L 418.371094 474.699219 C 418.074219 474.667969 417.828125 474.542969 417.636719 474.316406 C 417.445312 474.089844 417.355469 473.828125 417.375 473.53125 L 417.375 454.992188 C 417.375 450.769531 416.597656 449.714844 413.816406 449.714844 C 412.160156 449.773438 410.621094 450.226562 409.199219 451.070312 L 409.199219 473.5625 C 409.21875 473.851562 409.136719 474.109375 408.957031 474.332031 C 408.773438 474.554688 408.539062 474.6875 408.253906 474.730469 L 403.640625 474.730469 C 403.347656 474.699219 403.101562 474.574219 402.910156 474.347656 C 402.71875 474.121094 402.628906 473.859375 402.648438 473.5625 L 402.648438 455.023438 C 402.648438 450.800781 402.03125 449.746094 399.203125 449.746094 C 397.535156 449.957031 396.015625 450.550781 394.644531 451.527344 L 394.644531 473.738281 C 394.664062 474.035156 394.574219 474.296875 394.382812 474.523438 C 394.1875 474.75 393.945312 474.878906 393.648438 474.90625 L 389.089844 474.90625 C 388.949219 474.894531 388.8125 474.855469 388.683594 474.789062 C 388.558594 474.722656 388.445312 474.636719 388.351562 474.527344 C 388.257812 474.417969 388.1875 474.296875 388.144531 474.160156 C 388.097656 474.023438 388.078125 473.882812 388.085938 473.738281 L 388.085938 445.023438 C 388.078125 444.886719 388.097656 444.75 388.144531 444.617188 C 388.191406 444.484375 388.257812 444.367188 388.351562 444.261719 C 388.445312 444.15625 388.554688 444.074219 388.683594 444.015625 C 388.808594 443.953125 388.941406 443.921875 389.082031 443.914062 L 393.417969 443.914062 C 393.699219 443.941406 393.933594 444.0625 394.117188 444.277344 C 394.296875 444.496094 394.382812 444.742188 394.363281 445.023438 L 394.363281 446.191406 C 395.386719 445.382812 396.511719 444.761719 397.738281 444.324219 C 398.964844 443.886719 400.230469 443.65625 401.535156 443.632812 C 402.609375 443.574219 403.636719 443.765625 404.621094 444.207031 C 405.601562 444.648438 406.425781 445.292969 407.09375 446.136719 C 408.339844 445.285156 409.691406 444.644531 411.140625 444.214844 C 412.59375 443.789062 414.074219 443.59375 415.585938 443.632812 C 422.3125 443.632812 423.8125 448.746094 423.8125 455.132812 L 423.8125 473.671875 C 423.832031 473.960938 423.75 474.214844 423.570312 474.4375 C 423.386719 474.660156 423.15625 474.792969 422.871094 474.835938 "/><path style=" stroke:none;fill-rule:nonzero;fill:#ffffff;fill-opacity:1;" d="M 73.671875 253.074219 L 73.671875 273.519531 L 129.238281 273.519531 L 129.238281 389.5 C 129.238281 412.109375 143.296875 420.160156 159.410156 420.160156 L 182.746094 420.160156 L 182.746094 273.519531 L 210.527344 273.519531 C 211.46875 273.488281 212.40625 273.414062 213.339844 273.296875 C 214.277344 273.179688 215.203125 273.023438 216.125 272.820312 C 217.046875 272.621094 217.953125 272.378906 218.851562 272.09375 C 219.75 271.808594 220.632812 271.484375 221.503906 271.121094 C 222.371094 270.757812 223.222656 270.355469 224.054688 269.914062 C 224.886719 269.46875 225.695312 268.992188 226.484375 268.476562 C 227.273438 267.960938 228.039062 267.410156 228.777344 266.824219 C 229.511719 266.238281 230.222656 265.621094 230.90625 264.972656 C 231.585938 264.320312 232.238281 263.640625 232.859375 262.933594 C 233.476562 262.222656 234.066406 261.488281 234.617188 260.726562 C 235.171875 259.960938 235.6875 259.175781 236.167969 258.367188 C 236.648438 257.554688 237.09375 256.726562 237.5 255.875 C 237.902344 255.027344 238.269531 254.160156 238.597656 253.277344 C 238.921875 252.390625 239.207031 251.496094 239.453125 250.585938 C 239.699219 249.675781 239.898438 248.757812 240.0625 247.828125 C 240.222656 246.902344 240.339844 245.96875 240.417969 245.027344 L 240.417969 224.582031 L 103.851562 224.582031 C 102.894531 224.546875 101.941406 224.558594 100.988281 224.621094 C 100.03125 224.679688 99.085938 224.789062 98.140625 224.941406 C 97.199219 225.09375 96.265625 225.292969 95.339844 225.539062 C 94.417969 225.785156 93.507812 226.074219 92.609375 226.40625 C 91.714844 226.742188 90.839844 227.121094 89.980469 227.542969 C 89.121094 227.960938 88.289062 228.421875 87.472656 228.925781 C 86.660156 229.429688 85.875 229.972656 85.117188 230.550781 C 84.355469 231.132812 83.628906 231.746094 82.929688 232.398438 C 82.230469 233.050781 81.5625 233.734375 80.933594 234.453125 C 80.300781 235.167969 79.707031 235.914062 79.148438 236.691406 C 78.589844 237.464844 78.070312 238.269531 77.589844 239.09375 C 77.109375 239.921875 76.671875 240.769531 76.277344 241.640625 C 75.882812 242.507812 75.527344 243.394531 75.21875 244.300781 C 74.910156 245.203125 74.648438 246.121094 74.429688 247.050781 C 74.210938 247.980469 74.035156 248.921875 73.910156 249.867188 C 73.785156 250.816406 73.703125 251.765625 73.671875 252.722656 C 73.671875 252.832031 73.671875 252.957031 73.671875 253.078125 "/><path style=" stroke:none;fill-rule:nonzero;fill:#ffffff;fill-opacity:1;" d="M 287.339844 224.632812 C 286.386719 224.597656 285.433594 224.609375 284.484375 224.664062 C 283.53125 224.722656 282.585938 224.824219 281.644531 224.976562 C 280.703125 225.125 279.769531 225.320312 278.847656 225.5625 C 277.925781 225.804688 277.015625 226.089844 276.121094 226.421875 C 275.226562 226.75 274.351562 227.125 273.496094 227.542969 C 272.636719 227.957031 271.800781 228.417969 270.988281 228.914062 C 270.175781 229.414062 269.390625 229.953125 268.632812 230.527344 C 267.871094 231.101562 267.140625 231.714844 266.441406 232.363281 C 265.742188 233.011719 265.078125 233.691406 264.445312 234.402344 C 263.8125 235.117188 263.214844 235.859375 262.65625 236.628906 C 262.09375 237.402344 261.574219 238.199219 261.09375 239.023438 C 260.613281 239.84375 260.171875 240.6875 259.773438 241.554688 C 259.375 242.421875 259.019531 243.304688 258.707031 244.203125 C 258.394531 245.105469 258.128906 246.019531 257.90625 246.945312 C 257.683594 247.875 257.507812 248.808594 257.378906 249.753906 C 257.25 250.699219 257.167969 251.644531 257.128906 252.597656 C 257.128906 252.757812 257.128906 252.914062 257.128906 253.074219 L 257.128906 273.519531 L 312.699219 273.519531 L 312.699219 389.496094 C 312.699219 412.105469 326.808594 420.152344 342.921875 420.152344 L 366.257812 420.152344 L 366.257812 273.519531 L 394.039062 273.519531 C 394.980469 273.484375 395.917969 273.410156 396.851562 273.292969 C 397.785156 273.175781 398.714844 273.015625 399.632812 272.8125 C 400.554688 272.609375 401.460938 272.367188 402.359375 272.082031 C 403.257812 271.796875 404.140625 271.472656 405.007812 271.109375 C 405.875 270.742188 406.726562 270.339844 407.558594 269.898438 C 408.390625 269.457031 409.199219 268.976562 409.988281 268.460938 C 410.773438 267.945312 411.539062 267.394531 412.273438 266.808594 C 413.011719 266.222656 413.722656 265.605469 414.402344 264.957031 C 415.085938 264.308594 415.738281 263.628906 416.355469 262.917969 C 416.976562 262.210938 417.5625 261.476562 418.117188 260.714844 C 418.667969 259.949219 419.183594 259.164062 419.667969 258.355469 C 420.148438 257.546875 420.59375 256.71875 421 255.867188 C 421.402344 255.019531 421.769531 254.152344 422.097656 253.269531 C 422.425781 252.386719 422.710938 251.492188 422.957031 250.582031 C 423.203125 249.671875 423.40625 248.753906 423.570312 247.828125 C 423.730469 246.898438 423.851562 245.96875 423.929688 245.027344 L 423.929688 224.632812 Z M 287.339844 224.632812 "/></g></svg>