<svg xmlns="http://www.w3.org/2000/svg" xmlns:xlink="http://www.w3.org/1999/xlink" width="168" zoomAndPan="magnify" viewBox="0 0 126 30.000001" height="40" preserveAspectRatio="xMidYMid meet" version="1.2"><defs><clipPath id="352c8e9ab2"><path d="M 10 0.394531 L 20 0.394531 L 20 15 L 10 15 Z M 10 0.394531 "/></clipPath><clipPath id="d6259d11bb"><path d="M 3.542969 6 L 20 6 L 20 15 L 3.542969 15 Z M 3.542969 6 "/></clipPath><clipPath id="45e75a127d"><path d="M 15 0.394531 L 24 0.394531 L 24 15 L 15 15 Z M 15 0.394531 "/></clipPath><clipPath id="ee3f093406"><path d="M 19 9 L 46.972656 9 L 46.972656 15 L 19 15 Z M 19 9 "/></clipPath><clipPath id="20d34de4c4"><path d="M 19 14 L 46.972656 14 L 46.972656 20 L 19 20 Z M 19 14 "/></clipPath><clipPath id="0fab6caea1"><path d="M 10 14 L 20 14 L 20 28.699219 L 10 28.699219 Z M 10 14 "/></clipPath><clipPath id="cf24242e57"><path d="M 3.542969 14 L 20 14 L 20 23 L 3.542969 23 Z M 3.542969 14 "/></clipPath><clipPath id="3db7594829"><path d="M 15 14 L 23 14 L 23 28.699219 L 15 28.699219 Z M 15 14 "/></clipPath><clipPath id="bfde428c3a"><path d="M 3.542969 14 L 20 14 L 20 20 L 3.542969 20 Z M 3.542969 14 "/></clipPath><clipPath id="b62c6d14ad"><path d="M 3.542969 10 L 20 10 L 20 15 L 3.542969 15 Z M 3.542969 10 "/></clipPath></defs><g id="e436d6dbd3"><g clip-rule="nonzero" clip-path="url(#352c8e9ab2)"><path style=" stroke:none;fill-rule:nonzero;fill:#1374b1;fill-opacity:1;" d="M 15.304688 0.597656 C 15.132812 0.640625 14.460938 0.78125 14.289062 0.828125 C 12.917969 1.183594 11.625 1.730469 10.417969 2.46875 L 19.460938 14.507812 Z M 15.304688 0.597656 "/></g><path style=" stroke:none;fill-rule:nonzero;fill:#40a6dd;fill-opacity:1;" d="M 10.417969 2.46875 C 8.871094 3.417969 7.550781 4.617188 6.457031 6.058594 C 6.296875 6.265625 6.144531 6.496094 5.992188 6.691406 L 19.460938 14.507812 Z M 10.417969 2.46875 "/><g clip-rule="nonzero" clip-path="url(#d6259d11bb)"><path style=" stroke:none;fill-rule:nonzero;fill:#2956a0;fill-opacity:1;" d="M 19.460938 14.507812 L 5.992188 6.695312 C 5.117188 7.984375 4.46875 9.382812 4.054688 10.886719 C 3.769531 12.066406 3.605469 13.261719 3.558594 14.472656 Z M 19.460938 14.507812 "/></g><g clip-rule="nonzero" clip-path="url(#45e75a127d)"><path style=" stroke:none;fill-rule:nonzero;fill:#32b099;fill-opacity:1;" d="M 19.363281 0.4375 C 18.003906 0.34375 16.652344 0.398438 15.304688 0.597656 L 19.460938 14.507812 L 23.300781 1.296875 C 22.011719 0.902344 20.699219 0.613281 19.363281 0.4375 "/></g><path style=" stroke:none;fill-rule:nonzero;fill:#238044;fill-opacity:1;" d="M 19.460938 14.507812 L 32.828125 5.507812 L 30.226562 4.160156 L 28.5 3.328125 Z M 19.460938 14.507812 "/><path style=" stroke:none;fill-rule:nonzero;fill:#269595;fill-opacity:1;" d="M 28.5 3.328125 C 27.785156 2.96875 27.054688 2.644531 26.304688 2.363281 C 24.988281 1.828125 24.550781 1.703125 23.316406 1.296875 L 19.460938 14.507812 Z M 28.5 3.328125 "/><path style=" stroke:none;fill-rule:nonzero;fill:#319b52;fill-opacity:1;" d="M 40.285156 9.945312 C 37.5 8.152344 35.027344 6.695312 32.828125 5.507812 C 32.390625 5.269531 31.945312 5.046875 31.527344 4.832031 L 19.464844 14.507812 Z M 40.285156 9.945312 "/><g clip-rule="nonzero" clip-path="url(#ee3f093406)"><path style=" stroke:none;fill-rule:nonzero;fill:#ffea00;fill-opacity:1;" d="M 46.972656 14.488281 C 44.960938 13.050781 43.070312 11.753906 41.296875 10.597656 L 40.285156 9.941406 L 19.453125 14.507812 Z M 46.972656 14.488281 "/></g><path style=" stroke:none;fill-rule:nonzero;fill:#89bd54;fill-opacity:1;" d="M 40.285156 9.945312 L 39.871094 9.679688 L 39.160156 9.230469 L 38.320312 8.703125 L 37.332031 8.09375 L 36.082031 7.347656 L 34.957031 6.695312 L 19.460938 14.507812 Z M 40.285156 9.945312 "/><path style=" stroke:none;fill-rule:nonzero;fill:#de161f;fill-opacity:1;" d="M 19.460938 14.507812 L 32.824219 23.503906 L 30.226562 24.859375 L 28.507812 25.691406 Z M 19.460938 14.507812 "/><path style=" stroke:none;fill-rule:nonzero;fill:#e85f32;fill-opacity:1;" d="M 40.285156 19.070312 C 38.359375 20.3125 36.601562 21.378906 34.960938 22.324219 C 34.226562 22.742188 33.496094 23.128906 32.84375 23.496094 C 32.40625 23.734375 31.957031 23.957031 31.546875 24.167969 L 19.460938 14.507812 Z M 40.285156 19.070312 "/><g clip-rule="nonzero" clip-path="url(#20d34de4c4)"><path style=" stroke:none;fill-rule:nonzero;fill:#f9bc0b;fill-opacity:1;" d="M 46.972656 14.488281 C 44.960938 15.921875 43.070312 17.257812 41.296875 18.417969 L 40.285156 19.070312 L 19.453125 14.507812 Z M 46.972656 14.488281 "/></g><path style=" stroke:none;fill-rule:nonzero;fill:#f29d5a;fill-opacity:1;" d="M 40.285156 19.070312 L 38.796875 20.015625 L 37.332031 20.917969 L 36.058594 21.679688 L 34.957031 22.324219 L 19.460938 14.507812 Z M 40.285156 19.070312 "/><g clip-rule="nonzero" clip-path="url(#0fab6caea1)"><path style=" stroke:none;fill-rule:nonzero;fill:#e42175;fill-opacity:1;" d="M 15.316406 28.457031 C 15.140625 28.414062 14.46875 28.277344 14.296875 28.226562 C 12.921875 27.875 11.628906 27.328125 10.421875 26.585938 L 19.460938 14.507812 Z M 15.316406 28.457031 "/></g><path style=" stroke:none;fill-rule:nonzero;fill:#772680;fill-opacity:1;" d="M 10.425781 26.570312 C 8.875 25.617188 7.554688 24.417969 6.457031 22.964844 C 6.304688 22.761719 6.152344 22.550781 6.003906 22.335938 L 19.460938 14.507812 Z M 10.425781 26.570312 "/><g clip-rule="nonzero" clip-path="url(#cf24242e57)"><path style=" stroke:none;fill-rule:nonzero;fill:#552673;fill-opacity:1;" d="M 19.460938 14.507812 L 5.992188 22.351562 C 5.113281 21.054688 4.464844 19.652344 4.046875 18.140625 C 3.761719 16.953125 3.59375 15.75 3.542969 14.53125 Z M 19.460938 14.507812 "/></g><g clip-rule="nonzero" clip-path="url(#3db7594829)"><path style=" stroke:none;fill-rule:nonzero;fill:#d75871;fill-opacity:1;" d="M 19.367188 28.636719 C 19.035156 28.667969 18.585938 28.699219 18.585938 28.699219 L 17.886719 28.699219 C 17.027344 28.691406 16.175781 28.601562 15.328125 28.441406 L 19.457031 14.507812 L 22.875 27.878906 L 22.648438 27.953125 C 21.574219 28.296875 20.476562 28.523438 19.355469 28.636719 "/></g><path style=" stroke:none;fill-rule:nonzero;fill:#e3342a;fill-opacity:1;" d="M 28.519531 25.683594 C 27.796875 26.046875 27.050781 26.371094 26.292969 26.652344 C 24.976562 27.1875 24.097656 27.46875 22.875 27.878906 L 19.460938 14.507812 Z M 28.519531 25.683594 "/><path style=" stroke:none;fill-rule:nonzero;fill:#e54420;fill-opacity:1;" d="M 19.460938 14.507812 L 31.546875 24.167969 C 31.546875 23.921875 30.886719 20.957031 30.773438 20.210938 Z M 19.460938 14.507812 "/><path style=" stroke:none;fill-rule:nonzero;fill:#e22923;fill-opacity:1;" d="M 19.460938 14.507812 L 26.367188 23.042969 C 28.15625 23.386719 30.324219 23.9375 31.546875 24.167969 Z M 19.460938 14.507812 "/><path style=" stroke:none;fill-rule:nonzero;fill:#e13d8b;fill-opacity:1;" d="M 10.425781 26.566406 L 19.460938 14.507812 L 16.582031 24.167969 Z M 10.425781 26.566406 "/><path style=" stroke:none;fill-rule:nonzero;fill:#b63280;fill-opacity:1;" d="M 19.460938 14.507812 L 11.601562 19.085938 C 11.507812 19.703125 10.847656 25.097656 10.425781 26.570312 L 19.460938 14.492188 "/><g clip-rule="nonzero" clip-path="url(#bfde428c3a)"><path style=" stroke:none;fill-rule:nonzero;fill:#6d247a;fill-opacity:1;" d="M 3.554688 14.507812 L 19.460938 14.507812 L 11.601562 19.085938 Z M 3.554688 14.507812 "/></g><path style=" stroke:none;fill-rule:nonzero;fill:#e42175;fill-opacity:1;" d="M 16.582031 24.167969 L 19.460938 14.507812 L 22.875 27.878906 Z M 16.582031 24.167969 "/><path style=" stroke:none;fill-rule:nonzero;fill:#d0161a;fill-opacity:1;" d="M 26.367188 23.042969 L 19.460938 14.507812 L 22.871094 27.878906 Z M 26.367188 23.042969 "/><path style=" stroke:none;fill-rule:nonzero;fill:#2ba7da;fill-opacity:1;" d="M 10.417969 2.46875 L 19.460938 14.507812 L 16.414062 4.324219 Z M 10.417969 2.46875 "/><path style=" stroke:none;fill-rule:nonzero;fill:#2295bd;fill-opacity:1;" d="M 10.417969 2.46875 C 10.855469 5.78125 11.699219 10.007812 11.699219 10.007812 L 19.460938 14.507812 Z M 10.417969 2.46875 "/><g clip-rule="nonzero" clip-path="url(#b62c6d14ad)"><path style=" stroke:none;fill-rule:nonzero;fill:#223b7b;fill-opacity:1;" d="M 3.554688 14.507812 L 19.460938 14.507812 L 11.699219 10.003906 Z M 3.554688 14.507812 "/></g><path style=" stroke:none;fill-rule:nonzero;fill:#28a294;fill-opacity:1;" d="M 16.414062 4.324219 L 19.460938 14.507812 L 23.300781 1.300781 Z M 16.414062 4.324219 "/><path style=" stroke:none;fill-rule:nonzero;fill:#319b52;fill-opacity:1;" d="M 31.527344 4.832031 L 26.398438 5.929688 L 19.460938 14.507812 Z M 31.527344 4.832031 "/><path style=" stroke:none;fill-rule:nonzero;fill:#32b099;fill-opacity:1;" d="M 23.300781 1.300781 L 26.398438 5.929688 L 19.492188 14.476562 Z M 23.300781 1.300781 "/><path style=" stroke:none;fill-rule:nonzero;fill:#2fa85f;fill-opacity:1;" d="M 31.527344 4.832031 L 19.460938 14.507812 L 31.019531 8.675781 Z M 31.527344 4.832031 "/><path style=" stroke:none;fill-rule:nonzero;fill:#ffd700;fill-opacity:1;" d="M 36.132812 14.496094 C 36.75 13.765625 39.671875 10.773438 40.285156 9.945312 L 19.453125 14.507812 Z M 36.132812 14.496094 "/><path style=" stroke:none;fill-rule:nonzero;fill:#6fb556;fill-opacity:1;" d="M 40.285156 9.945312 L 31.019531 8.679688 L 19.460938 14.507812 Z M 40.285156 9.945312 "/><path style=" stroke:none;fill-rule:nonzero;fill:#f5a617;fill-opacity:1;" d="M 36.132812 14.496094 C 37.5 15.894531 39.597656 18.417969 40.285156 19.070312 L 19.453125 14.507812 Z M 36.132812 14.496094 "/><path style=" stroke:none;fill-rule:nonzero;fill:#ef8d33;fill-opacity:1;" d="M 40.285156 19.070312 L 30.773438 20.210938 L 19.460938 14.507812 Z M 40.285156 19.070312 "/><path style=" stroke:none;fill-rule:nonzero;fill:#ffffff;fill-opacity:1;" d="M 9.125 20.929688 L 8.550781 20.929688 L 8.550781 23.125 C 8.550781 23.171875 8.53125 23.199219 8.484375 23.199219 L 8.164062 23.199219 C 8.117188 23.199219 8.09375 23.171875 8.097656 23.128906 L 8.097656 20.929688 L 7.523438 20.929688 C 7.480469 20.929688 7.457031 20.910156 7.457031 20.863281 L 7.457031 20.578125 C 7.457031 20.535156 7.480469 20.511719 7.523438 20.511719 L 9.125 20.511719 C 9.164062 20.511719 9.1875 20.53125 9.191406 20.574219 L 9.191406 20.867188 C 9.191406 20.910156 9.171875 20.929688 9.128906 20.933594 L 9.121094 20.933594 "/><path style=" stroke:none;fill-rule:nonzero;fill:#ffffff;fill-opacity:1;" d="M 10.84375 23.183594 L 10.546875 23.183594 C 10.5 23.183594 10.476562 23.160156 10.480469 23.113281 L 10.480469 23.027344 C 10.328125 23.152344 10.15625 23.210938 9.964844 23.207031 C 9.808594 23.21875 9.675781 23.167969 9.566406 23.058594 C 9.429688 22.863281 9.375 22.644531 9.402344 22.40625 L 9.402344 21.230469 C 9.398438 21.183594 9.417969 21.15625 9.464844 21.152344 L 9.765625 21.152344 C 9.8125 21.15625 9.835938 21.183594 9.832031 21.230469 L 9.832031 22.402344 C 9.832031 22.582031 9.832031 22.6875 9.90625 22.75 C 9.964844 22.796875 10.03125 22.820312 10.109375 22.816406 C 10.242188 22.792969 10.367188 22.746094 10.476562 22.667969 L 10.476562 21.230469 C 10.472656 21.183594 10.496094 21.160156 10.542969 21.152344 L 10.839844 21.152344 C 10.886719 21.160156 10.910156 21.183594 10.90625 21.230469 L 10.90625 23.113281 C 10.910156 23.15625 10.886719 23.183594 10.839844 23.183594 "/><path style=" stroke:none;fill-rule:nonzero;fill:#ffffff;fill-opacity:1;" d="M 12.699219 23.183594 L 12.398438 23.183594 C 12.351562 23.179688 12.328125 23.15625 12.332031 23.109375 L 12.332031 21.9375 C 12.332031 21.621094 12.304688 21.535156 12.054688 21.535156 C 11.917969 21.542969 11.796875 21.585938 11.6875 21.664062 L 11.6875 23.125 C 11.691406 23.171875 11.667969 23.199219 11.621094 23.203125 L 11.324219 23.203125 C 11.277344 23.199219 11.253906 23.171875 11.257812 23.125 L 11.257812 21.226562 C 11.253906 21.179688 11.277344 21.15625 11.324219 21.152344 L 11.605469 21.152344 C 11.652344 21.15625 11.671875 21.179688 11.671875 21.226562 L 11.671875 21.304688 C 11.828125 21.179688 12.003906 21.125 12.203125 21.132812 C 12.675781 21.132812 12.769531 21.5 12.769531 21.945312 L 12.769531 23.113281 C 12.773438 23.160156 12.75 23.1875 12.703125 23.191406 "/><path style=" stroke:none;fill-rule:nonzero;fill:#ffffff;fill-opacity:1;" d="M 13.492188 20.886719 L 13.171875 20.886719 C 13.128906 20.882812 13.105469 20.859375 13.109375 20.8125 L 13.109375 20.5 C 13.105469 20.453125 13.128906 20.429688 13.171875 20.425781 L 13.492188 20.425781 C 13.539062 20.425781 13.558594 20.453125 13.558594 20.5 L 13.558594 20.8125 C 13.558594 20.859375 13.539062 20.882812 13.492188 20.886719 M 13.492188 23.183594 L 13.1875 23.183594 C 13.144531 23.179688 13.125 23.152344 13.125 23.109375 L 13.125 21.226562 C 13.125 21.183594 13.144531 21.160156 13.1875 21.152344 L 13.492188 21.152344 C 13.535156 21.15625 13.558594 21.183594 13.558594 21.226562 L 13.558594 23.109375 C 13.558594 23.152344 13.535156 23.179688 13.492188 23.183594 "/><path style=" stroke:none;fill-rule:nonzero;fill:#ffffff;fill-opacity:1;" d="M 14.5 23.214844 C 14.300781 23.214844 14.105469 23.191406 13.910156 23.140625 C 13.867188 23.128906 13.847656 23.101562 13.851562 23.058594 L 13.851562 22.847656 C 13.851562 22.808594 13.871094 22.789062 13.90625 22.785156 C 14.0625 22.804688 14.359375 22.824219 14.457031 22.824219 C 14.660156 22.824219 14.6875 22.75 14.6875 22.65625 C 14.6875 22.558594 14.652344 22.542969 14.546875 22.472656 L 14.097656 22.167969 C 13.917969 22.050781 13.828125 21.882812 13.824219 21.671875 C 13.824219 21.304688 14.03125 21.132812 14.445312 21.132812 C 14.640625 21.128906 14.835938 21.152344 15.027344 21.203125 C 15.070312 21.210938 15.089844 21.238281 15.089844 21.285156 L 15.089844 21.5 C 15.089844 21.546875 15.066406 21.566406 15.035156 21.566406 C 14.855469 21.542969 14.671875 21.53125 14.492188 21.527344 C 14.335938 21.527344 14.265625 21.5625 14.265625 21.675781 C 14.265625 21.734375 14.316406 21.769531 14.398438 21.824219 L 14.824219 22.113281 C 15.046875 22.230469 15.148438 22.414062 15.140625 22.660156 C 15.140625 22.816406 15.085938 22.949219 14.980469 23.058594 C 14.871094 23.171875 14.742188 23.226562 14.585938 23.226562 C 14.558594 23.226562 14.527344 23.226562 14.5 23.222656 "/><path style=" stroke:none;fill-rule:nonzero;fill:#ffffff;fill-opacity:1;" d="M 15.804688 20.886719 L 15.496094 20.886719 C 15.449219 20.882812 15.429688 20.859375 15.429688 20.8125 L 15.429688 20.5 C 15.429688 20.453125 15.449219 20.429688 15.496094 20.425781 L 15.816406 20.425781 C 15.859375 20.429688 15.878906 20.453125 15.878906 20.5 L 15.878906 20.8125 C 15.878906 20.859375 15.859375 20.882812 15.816406 20.886719 M 15.816406 23.183594 L 15.496094 23.183594 C 15.449219 23.179688 15.425781 23.15625 15.429688 23.109375 L 15.429688 21.226562 C 15.425781 21.179688 15.449219 21.15625 15.492188 21.152344 L 15.792969 21.152344 C 15.839844 21.15625 15.863281 21.179688 15.859375 21.226562 L 15.859375 23.105469 C 15.863281 23.152344 15.839844 23.179688 15.792969 23.183594 "/><path style=" stroke:none;fill-rule:nonzero;fill:#ffffff;fill-opacity:1;" d="M 17.652344 22.335938 L 16.589844 22.335938 C 16.589844 22.546875 16.671875 22.789062 16.980469 22.789062 C 17.183594 22.789062 17.382812 22.777344 17.585938 22.753906 C 17.621094 22.753906 17.640625 22.773438 17.640625 22.808594 L 17.640625 23.046875 C 17.640625 23.105469 17.640625 23.132812 17.574219 23.140625 C 17.363281 23.1875 17.152344 23.210938 16.9375 23.203125 C 16.71875 23.207031 16.53125 23.128906 16.375 22.976562 C 16.21875 22.820312 16.140625 22.632812 16.140625 22.414062 C 16.140625 22.375 16.144531 22.339844 16.148438 22.300781 L 16.148438 22.03125 C 16.148438 21.472656 16.433594 21.117188 16.933594 21.117188 C 17.433594 21.117188 17.707031 21.484375 17.707031 22.03125 L 17.707031 22.234375 C 17.707031 22.292969 17.707031 22.324219 17.644531 22.324219 M 17.28125 21.960938 C 17.28125 21.679688 17.136719 21.519531 16.9375 21.519531 C 16.734375 21.519531 16.570312 21.675781 16.570312 21.960938 Z M 17.28125 21.960938 "/><path style=" stroke:none;fill-rule:nonzero;fill:#ffffff;fill-opacity:1;" d="M 20.273438 20.929688 L 19.699219 20.929688 L 19.699219 23.125 C 19.703125 23.171875 19.679688 23.199219 19.632812 23.199219 L 19.3125 23.199219 C 19.265625 23.199219 19.246094 23.171875 19.246094 23.128906 L 19.246094 20.929688 L 18.675781 20.929688 C 18.632812 20.933594 18.609375 20.914062 18.609375 20.867188 L 18.609375 20.578125 C 18.609375 20.535156 18.628906 20.515625 18.671875 20.511719 L 20.273438 20.511719 C 20.316406 20.511719 20.335938 20.535156 20.335938 20.574219 L 20.335938 20.863281 C 20.339844 20.90625 20.320312 20.929688 20.277344 20.929688 L 20.273438 20.929688 "/><path style=" stroke:none;fill-rule:nonzero;fill:#ffffff;fill-opacity:1;" d="M 21.992188 22.335938 L 20.925781 22.335938 C 20.925781 22.546875 21.003906 22.789062 21.320312 22.789062 C 21.523438 22.789062 21.722656 22.777344 21.921875 22.753906 C 21.960938 22.75 21.980469 22.769531 21.984375 22.804688 L 21.984375 23.046875 C 21.984375 23.105469 21.984375 23.132812 21.917969 23.140625 C 21.707031 23.1875 21.496094 23.210938 21.28125 23.203125 C 21.0625 23.207031 20.875 23.128906 20.71875 22.972656 C 20.5625 22.820312 20.484375 22.632812 20.484375 22.414062 C 20.484375 22.375 20.484375 22.339844 20.492188 22.300781 L 20.492188 22.03125 C 20.492188 21.472656 20.773438 21.117188 21.273438 21.117188 C 21.5 21.121094 21.691406 21.203125 21.847656 21.363281 C 22.003906 21.523438 22.082031 21.71875 22.082031 21.945312 C 22.082031 21.976562 22.078125 22.011719 22.074219 22.042969 L 22.074219 22.234375 C 22.074219 22.292969 22.054688 22.324219 22.007812 22.324219 M 21.640625 21.960938 C 21.640625 21.679688 21.5 21.519531 21.296875 21.519531 C 21.097656 21.519531 20.953125 21.675781 20.953125 21.960938 Z M 21.640625 21.960938 "/><path style=" stroke:none;fill-rule:nonzero;fill:#ffffff;fill-opacity:1;" d="M 22.730469 23.183594 L 22.4375 23.183594 C 22.390625 23.179688 22.371094 23.15625 22.371094 23.109375 L 22.371094 20.515625 C 22.371094 20.472656 22.394531 20.449219 22.4375 20.445312 L 22.742188 20.445312 C 22.785156 20.449219 22.804688 20.472656 22.804688 20.515625 L 22.804688 23.109375 C 22.808594 23.152344 22.789062 23.179688 22.742188 23.183594 "/><path style=" stroke:none;fill-rule:nonzero;fill:#ffffff;fill-opacity:1;" d="M 24.59375 22.335938 L 23.535156 22.335938 C 23.535156 22.542969 23.613281 22.789062 23.929688 22.789062 C 24.128906 22.789062 24.328125 22.777344 24.527344 22.753906 C 24.566406 22.75 24.585938 22.769531 24.589844 22.808594 L 24.589844 23.046875 C 24.589844 23.105469 24.589844 23.128906 24.519531 23.140625 C 24.3125 23.1875 24.101562 23.210938 23.886719 23.203125 C 23.667969 23.203125 23.480469 23.128906 23.324219 22.972656 C 23.167969 22.820312 23.089844 22.632812 23.089844 22.414062 C 23.085938 22.375 23.089844 22.335938 23.09375 22.300781 L 23.09375 22.03125 C 23.066406 21.816406 23.117188 21.621094 23.25 21.445312 C 23.382812 21.273438 23.558594 21.171875 23.773438 21.140625 C 23.816406 21.136719 23.859375 21.132812 23.898438 21.136719 C 24.417969 21.136719 24.679688 21.5 24.679688 22.050781 L 24.679688 22.234375 C 24.679688 22.292969 24.65625 22.324219 24.613281 22.324219 M 24.246094 21.960938 C 24.246094 21.679688 24.105469 21.519531 23.902344 21.519531 C 23.703125 21.519531 23.539062 21.675781 23.539062 21.960938 Z M 24.246094 21.960938 "/><path style=" stroke:none;fill-rule:nonzero;fill:#ffffff;fill-opacity:1;" d="M 26.050781 23.167969 C 25.910156 23.203125 25.769531 23.21875 25.625 23.214844 C 25.203125 23.214844 24.894531 22.925781 24.894531 22.339844 L 24.894531 22.003906 C 24.894531 21.417969 25.214844 21.128906 25.625 21.128906 C 25.769531 21.125 25.910156 21.140625 26.050781 21.175781 C 26.105469 21.175781 26.117188 21.214844 26.117188 21.273438 L 26.117188 21.503906 C 26.117188 21.539062 26.089844 21.554688 26.054688 21.554688 C 25.914062 21.535156 25.773438 21.527344 25.632812 21.53125 C 25.476562 21.53125 25.316406 21.625 25.316406 22 L 25.316406 22.335938 C 25.316406 22.703125 25.480469 22.804688 25.632812 22.804688 C 25.773438 22.808594 25.914062 22.800781 26.054688 22.785156 C 26.089844 22.785156 26.117188 22.785156 26.117188 22.835938 L 26.117188 23.070312 C 26.117188 23.128906 26.117188 23.148438 26.050781 23.164062 "/><path style=" stroke:none;fill-rule:nonzero;fill:#ffffff;fill-opacity:1;" d="M 27.121094 23.214844 C 26.902344 23.214844 26.71875 23.140625 26.5625 22.988281 C 26.410156 22.835938 26.332031 22.648438 26.332031 22.433594 C 26.332031 22.394531 26.332031 22.355469 26.339844 22.316406 L 26.339844 22.023438 C 26.308594 21.808594 26.363281 21.617188 26.492188 21.445312 C 26.625 21.269531 26.800781 21.171875 27.015625 21.144531 C 27.050781 21.136719 27.085938 21.136719 27.121094 21.136719 C 27.632812 21.136719 27.898438 21.5 27.898438 22.03125 L 27.898438 22.324219 C 27.898438 22.835938 27.628906 23.21875 27.121094 23.21875 M 27.484375 22.03125 C 27.484375 21.738281 27.359375 21.546875 27.121094 21.546875 C 26.878906 21.546875 26.753906 21.738281 26.753906 22.03125 L 26.753906 22.324219 C 26.753906 22.617188 26.875 22.804688 27.121094 22.804688 C 27.363281 22.804688 27.484375 22.617188 27.484375 22.324219 Z M 27.484375 22.03125 "/><path style=" stroke:none;fill-rule:nonzero;fill:#ffffff;fill-opacity:1;" d="M 30.480469 23.183594 L 30.175781 23.183594 C 30.128906 23.179688 30.105469 23.15625 30.109375 23.109375 L 30.109375 21.886719 C 30.109375 21.609375 30.058594 21.539062 29.875 21.539062 C 29.765625 21.542969 29.664062 21.574219 29.574219 21.628906 L 29.574219 23.109375 C 29.574219 23.15625 29.554688 23.179688 29.511719 23.1875 L 29.207031 23.1875 C 29.160156 23.183594 29.136719 23.15625 29.140625 23.109375 L 29.140625 21.890625 C 29.140625 21.609375 29.101562 21.539062 28.914062 21.539062 C 28.804688 21.554688 28.703125 21.59375 28.613281 21.660156 L 28.613281 23.121094 C 28.617188 23.167969 28.59375 23.195312 28.550781 23.199219 L 28.25 23.199219 C 28.203125 23.195312 28.179688 23.167969 28.183594 23.121094 L 28.183594 21.230469 C 28.179688 21.183594 28.203125 21.160156 28.25 21.15625 L 28.535156 21.15625 C 28.578125 21.160156 28.597656 21.183594 28.597656 21.230469 L 28.597656 21.308594 C 28.734375 21.199219 28.890625 21.140625 29.066406 21.136719 C 29.21875 21.128906 29.339844 21.183594 29.433594 21.304688 C 29.601562 21.1875 29.789062 21.132812 29.992188 21.136719 C 30.433594 21.136719 30.535156 21.476562 30.535156 21.894531 L 30.535156 23.117188 C 30.535156 23.164062 30.515625 23.1875 30.472656 23.195312 "/><path style=" stroke:none;fill-rule:nonzero;fill:#ffffff;fill-opacity:1;" d="M 7.5 8.582031 L 7.5 9.929688 L 11.15625 9.929688 L 11.15625 17.570312 C 11.15625 19.0625 12.082031 19.589844 13.140625 19.589844 L 14.675781 19.589844 L 14.675781 9.929688 L 16.503906 9.929688 C 16.753906 9.921875 16.992188 9.867188 17.226562 9.769531 C 17.457031 9.675781 17.660156 9.539062 17.84375 9.367188 C 18.023438 9.191406 18.167969 8.992188 18.277344 8.765625 C 18.386719 8.539062 18.449219 8.300781 18.46875 8.050781 L 18.46875 6.703125 L 9.484375 6.703125 C 9.230469 6.695312 8.984375 6.734375 8.746094 6.824219 C 8.507812 6.914062 8.296875 7.046875 8.109375 7.21875 C 7.921875 7.394531 7.777344 7.597656 7.671875 7.828125 C 7.566406 8.0625 7.507812 8.304688 7.5 8.558594 C 7.5 8.566406 7.5 8.574219 7.5 8.582031 "/><path style=" stroke:none;fill-rule:nonzero;fill:#ffffff;fill-opacity:1;" d="M 21.554688 6.707031 C 21.300781 6.699219 21.054688 6.738281 20.816406 6.824219 C 20.578125 6.914062 20.367188 7.042969 20.179688 7.21875 C 19.996094 7.390625 19.847656 7.59375 19.742188 7.824219 C 19.636719 8.054688 19.578125 8.296875 19.570312 8.550781 C 19.570312 8.5625 19.570312 8.570312 19.570312 8.582031 L 19.570312 9.929688 L 23.222656 9.929688 L 23.222656 17.570312 C 23.222656 19.0625 24.152344 19.589844 25.210938 19.589844 L 26.746094 19.589844 L 26.746094 9.929688 L 28.574219 9.929688 C 28.824219 9.921875 29.066406 9.867188 29.296875 9.769531 C 29.527344 9.671875 29.734375 9.539062 29.914062 9.363281 C 30.097656 9.191406 30.242188 8.992188 30.347656 8.765625 C 30.457031 8.539062 30.519531 8.300781 30.542969 8.050781 L 30.542969 6.707031 Z M 21.554688 6.707031 "/><g style="fill:#ffffff;fill-opacity:1;"><g transform="translate(49.377157, 17.513066)"><path style="stroke:none" d="M 1.3125 -5.53125 L 0.109375 -5.53125 L 0.109375 -6.8125 L 3.875 -6.8125 L 3.875 -5.53125 L 2.625 -5.53125 L 2.625 0 L 1.3125 0 Z M 1.3125 -5.53125 "/></g></g><g style="fill:#ffffff;fill-opacity:1;"><g transform="translate(53.354385, 17.513066)"><path style="stroke:none" d="M 2.859375 0.125 C 2.160156 0.125 1.613281 -0.078125 1.21875 -0.484375 C 0.832031 -0.890625 0.640625 -1.503906 0.640625 -2.328125 L 0.640625 -5.03125 L 1.90625 -5.03125 L 1.90625 -2.40625 C 1.90625 -1.945312 1.976562 -1.601562 2.125 -1.375 C 2.28125 -1.144531 2.523438 -1.03125 2.859375 -1.03125 C 3.179688 -1.03125 3.414062 -1.140625 3.5625 -1.359375 C 3.71875 -1.585938 3.796875 -1.921875 3.796875 -2.359375 L 3.796875 -5.03125 L 5.0625 -5.03125 L 5.0625 -2.359375 C 5.0625 -1.828125 4.972656 -1.375 4.796875 -1 C 4.628906 -0.632812 4.378906 -0.351562 4.046875 -0.15625 C 3.710938 0.03125 3.316406 0.125 2.859375 0.125 Z M 2.859375 0.125 "/></g></g><g style="fill:#ffffff;fill-opacity:1;"><g transform="translate(59.036133, 17.513066)"><path style="stroke:none" d="M 1.890625 -5.03125 L 1.890625 -4.53125 C 2.148438 -4.738281 2.394531 -4.894531 2.625 -5 C 2.863281 -5.113281 3.117188 -5.171875 3.390625 -5.171875 C 3.703125 -5.171875 3.988281 -5.097656 4.25 -4.953125 C 4.507812 -4.816406 4.71875 -4.617188 4.875 -4.359375 C 5.03125 -4.097656 5.109375 -3.789062 5.109375 -3.4375 L 5.109375 0 L 3.84375 0 L 3.84375 -2.375 C 3.84375 -2.757812 3.820312 -3.0625 3.78125 -3.28125 C 3.75 -3.507812 3.671875 -3.6875 3.546875 -3.8125 C 3.421875 -3.945312 3.238281 -4.015625 3 -4.015625 C 2.789062 -4.015625 2.601562 -3.953125 2.4375 -3.828125 C 2.269531 -3.710938 2.132812 -3.539062 2.03125 -3.3125 C 1.9375 -3.09375 1.890625 -2.816406 1.890625 -2.484375 L 1.890625 0 L 0.640625 0 L 0.640625 -5.03125 Z M 1.890625 -5.03125 "/></g></g><g style="fill:#ffffff;fill-opacity:1;"><g transform="translate(64.717881, 17.513066)"><path style="stroke:none" d="M 1.265625 -5.46875 C 1.117188 -5.46875 0.984375 -5.503906 0.859375 -5.578125 C 0.734375 -5.660156 0.632812 -5.769531 0.5625 -5.90625 C 0.5 -6.050781 0.46875 -6.195312 0.46875 -6.34375 C 0.46875 -6.476562 0.503906 -6.601562 0.578125 -6.71875 C 0.648438 -6.84375 0.742188 -6.9375 0.859375 -7 C 0.984375 -7.070312 1.117188 -7.109375 1.265625 -7.109375 C 1.421875 -7.109375 1.554688 -7.070312 1.671875 -7 C 1.796875 -6.925781 1.894531 -6.820312 1.96875 -6.6875 C 2.039062 -6.5625 2.078125 -6.425781 2.078125 -6.28125 C 2.078125 -6.132812 2.039062 -6 1.96875 -5.875 C 1.894531 -5.75 1.796875 -5.648438 1.671875 -5.578125 C 1.546875 -5.503906 1.410156 -5.46875 1.265625 -5.46875 Z M 0.640625 -5.03125 L 1.90625 -5.03125 L 1.90625 0 L 0.640625 0 Z M 0.640625 -5.03125 "/></g></g><g style="fill:#ffffff;fill-opacity:1;"><g transform="translate(67.255733, 17.513066)"><path style="stroke:none" d="M 2 0.125 C 1.632812 0.125 1.300781 0.0546875 1 -0.078125 C 0.707031 -0.222656 0.453125 -0.441406 0.234375 -0.734375 L 1.015625 -1.578125 C 1.171875 -1.410156 1.34375 -1.269531 1.53125 -1.15625 C 1.726562 -1.050781 1.90625 -1 2.0625 -1 C 2.21875 -1 2.347656 -1.035156 2.453125 -1.109375 C 2.566406 -1.191406 2.625 -1.289062 2.625 -1.40625 C 2.625 -1.476562 2.601562 -1.546875 2.5625 -1.609375 C 2.519531 -1.671875 2.445312 -1.734375 2.34375 -1.796875 C 2.25 -1.859375 2.109375 -1.941406 1.921875 -2.046875 C 1.546875 -2.234375 1.25 -2.40625 1.03125 -2.5625 C 0.820312 -2.726562 0.664062 -2.898438 0.5625 -3.078125 C 0.46875 -3.265625 0.421875 -3.476562 0.421875 -3.71875 C 0.421875 -3.976562 0.488281 -4.21875 0.625 -4.4375 C 0.769531 -4.664062 0.960938 -4.84375 1.203125 -4.96875 C 1.453125 -5.101562 1.738281 -5.171875 2.0625 -5.171875 C 2.382812 -5.171875 2.691406 -5.097656 2.984375 -4.953125 C 3.273438 -4.804688 3.519531 -4.597656 3.71875 -4.328125 L 2.9375 -3.546875 C 2.789062 -3.703125 2.644531 -3.816406 2.5 -3.890625 C 2.351562 -3.972656 2.207031 -4.015625 2.0625 -4.015625 C 1.9375 -4.015625 1.828125 -3.984375 1.734375 -3.921875 C 1.648438 -3.867188 1.609375 -3.796875 1.609375 -3.703125 C 1.609375 -3.617188 1.644531 -3.546875 1.71875 -3.484375 C 1.789062 -3.429688 1.90625 -3.367188 2.0625 -3.296875 C 2.5 -3.085938 2.84375 -2.894531 3.09375 -2.71875 C 3.34375 -2.539062 3.523438 -2.351562 3.640625 -2.15625 C 3.753906 -1.957031 3.8125 -1.71875 3.8125 -1.4375 C 3.8125 -1.144531 3.734375 -0.878906 3.578125 -0.640625 C 3.429688 -0.398438 3.222656 -0.210938 2.953125 -0.078125 C 2.679688 0.0546875 2.363281 0.125 2 0.125 Z M 2 0.125 "/></g></g><g style="fill:#ffffff;fill-opacity:1;"><g transform="translate(71.422354, 17.513066)"><path style="stroke:none" d="M 1.265625 -5.46875 C 1.117188 -5.46875 0.984375 -5.503906 0.859375 -5.578125 C 0.734375 -5.660156 0.632812 -5.769531 0.5625 -5.90625 C 0.5 -6.050781 0.46875 -6.195312 0.46875 -6.34375 C 0.46875 -6.476562 0.503906 -6.601562 0.578125 -6.71875 C 0.648438 -6.84375 0.742188 -6.9375 0.859375 -7 C 0.984375 -7.070312 1.117188 -7.109375 1.265625 -7.109375 C 1.421875 -7.109375 1.554688 -7.070312 1.671875 -7 C 1.796875 -6.925781 1.894531 -6.820312 1.96875 -6.6875 C 2.039062 -6.5625 2.078125 -6.425781 2.078125 -6.28125 C 2.078125 -6.132812 2.039062 -6 1.96875 -5.875 C 1.894531 -5.75 1.796875 -5.648438 1.671875 -5.578125 C 1.546875 -5.503906 1.410156 -5.46875 1.265625 -5.46875 Z M 0.640625 -5.03125 L 1.90625 -5.03125 L 1.90625 0 L 0.640625 0 Z M 0.640625 -5.03125 "/></g></g><g style="fill:#ffffff;fill-opacity:1;"><g transform="translate(73.960207, 17.513066)"><path style="stroke:none" d="M 3.015625 0.125 C 2.492188 0.125 2.03125 0.0078125 1.625 -0.21875 C 1.226562 -0.445312 0.921875 -0.765625 0.703125 -1.171875 C 0.484375 -1.578125 0.375 -2.023438 0.375 -2.515625 C 0.375 -2.984375 0.484375 -3.414062 0.703125 -3.8125 C 0.921875 -4.21875 1.222656 -4.546875 1.609375 -4.796875 C 2.003906 -5.046875 2.46875 -5.171875 3 -5.171875 C 3.519531 -5.171875 3.984375 -5.050781 4.390625 -4.8125 C 4.796875 -4.582031 5.109375 -4.257812 5.328125 -3.84375 C 5.554688 -3.425781 5.671875 -2.957031 5.671875 -2.4375 C 5.671875 -2.320312 5.664062 -2.226562 5.65625 -2.15625 L 1.609375 -2.15625 C 1.671875 -1.789062 1.828125 -1.503906 2.078125 -1.296875 C 2.335938 -1.085938 2.648438 -0.984375 3.015625 -0.984375 C 3.296875 -0.984375 3.539062 -1.023438 3.75 -1.109375 C 3.96875 -1.203125 4.191406 -1.347656 4.421875 -1.546875 L 5.328125 -0.796875 C 4.742188 -0.179688 3.972656 0.125 3.015625 0.125 Z M 4.40625 -3.15625 C 4.320312 -3.4375 4.15625 -3.660156 3.90625 -3.828125 C 3.65625 -4.003906 3.359375 -4.09375 3.015625 -4.09375 C 2.703125 -4.09375 2.425781 -4.015625 2.1875 -3.859375 C 1.957031 -3.703125 1.78125 -3.46875 1.65625 -3.15625 Z M 4.40625 -3.15625 "/></g></g><g style="fill:#ffffff;fill-opacity:1;"><g transform="translate(79.992332, 17.513066)"><path style="stroke:none" d=""/></g></g><g style="fill:#ffffff;fill-opacity:1;"><g transform="translate(82.643813, 17.513066)"><path style="stroke:none" d="M 1.3125 -5.53125 L 0.109375 -5.53125 L 0.109375 -6.8125 L 3.875 -6.8125 L 3.875 -5.53125 L 2.625 -5.53125 L 2.625 0 L 1.3125 0 Z M 1.3125 -5.53125 "/></g></g><g style="fill:#ffffff;fill-opacity:1;"><g transform="translate(86.336671, 17.513066)"><path style="stroke:none" d="M 3.015625 0.125 C 2.492188 0.125 2.03125 0.0078125 1.625 -0.21875 C 1.226562 -0.445312 0.921875 -0.765625 0.703125 -1.171875 C 0.484375 -1.578125 0.375 -2.023438 0.375 -2.515625 C 0.375 -2.984375 0.484375 -3.414062 0.703125 -3.8125 C 0.921875 -4.21875 1.222656 -4.546875 1.609375 -4.796875 C 2.003906 -5.046875 2.46875 -5.171875 3 -5.171875 C 3.519531 -5.171875 3.984375 -5.050781 4.390625 -4.8125 C 4.796875 -4.582031 5.109375 -4.257812 5.328125 -3.84375 C 5.554688 -3.425781 5.671875 -2.957031 5.671875 -2.4375 C 5.671875 -2.320312 5.664062 -2.226562 5.65625 -2.15625 L 1.609375 -2.15625 C 1.671875 -1.789062 1.828125 -1.503906 2.078125 -1.296875 C 2.335938 -1.085938 2.648438 -0.984375 3.015625 -0.984375 C 3.296875 -0.984375 3.539062 -1.023438 3.75 -1.109375 C 3.96875 -1.203125 4.191406 -1.347656 4.421875 -1.546875 L 5.328125 -0.796875 C 4.742188 -0.179688 3.972656 0.125 3.015625 0.125 Z M 4.40625 -3.15625 C 4.320312 -3.4375 4.15625 -3.660156 3.90625 -3.828125 C 3.65625 -4.003906 3.359375 -4.09375 3.015625 -4.09375 C 2.703125 -4.09375 2.425781 -4.015625 2.1875 -3.859375 C 1.957031 -3.703125 1.78125 -3.46875 1.65625 -3.15625 Z M 4.40625 -3.15625 "/></g></g><g style="fill:#ffffff;fill-opacity:1;"><g transform="translate(92.368796, 17.513066)"><path style="stroke:none" d="M 1.78125 -6.984375 L 1.78125 0 L 0.515625 0 L 0.515625 -6.984375 Z M 1.78125 -6.984375 "/></g></g><g style="fill:#ffffff;fill-opacity:1;"><g transform="translate(94.641493, 17.513066)"><path style="stroke:none" d="M 3.015625 0.125 C 2.492188 0.125 2.03125 0.0078125 1.625 -0.21875 C 1.226562 -0.445312 0.921875 -0.765625 0.703125 -1.171875 C 0.484375 -1.578125 0.375 -2.023438 0.375 -2.515625 C 0.375 -2.984375 0.484375 -3.414062 0.703125 -3.8125 C 0.921875 -4.21875 1.222656 -4.546875 1.609375 -4.796875 C 2.003906 -5.046875 2.46875 -5.171875 3 -5.171875 C 3.519531 -5.171875 3.984375 -5.050781 4.390625 -4.8125 C 4.796875 -4.582031 5.109375 -4.257812 5.328125 -3.84375 C 5.554688 -3.425781 5.671875 -2.957031 5.671875 -2.4375 C 5.671875 -2.320312 5.664062 -2.226562 5.65625 -2.15625 L 1.609375 -2.15625 C 1.671875 -1.789062 1.828125 -1.503906 2.078125 -1.296875 C 2.335938 -1.085938 2.648438 -0.984375 3.015625 -0.984375 C 3.296875 -0.984375 3.539062 -1.023438 3.75 -1.109375 C 3.96875 -1.203125 4.191406 -1.347656 4.421875 -1.546875 L 5.328125 -0.796875 C 4.742188 -0.179688 3.972656 0.125 3.015625 0.125 Z M 4.40625 -3.15625 C 4.320312 -3.4375 4.15625 -3.660156 3.90625 -3.828125 C 3.65625 -4.003906 3.359375 -4.09375 3.015625 -4.09375 C 2.703125 -4.09375 2.425781 -4.015625 2.1875 -3.859375 C 1.957031 -3.703125 1.78125 -3.46875 1.65625 -3.15625 Z M 4.40625 -3.15625 "/></g></g><g style="fill:#ffffff;fill-opacity:1;"><g transform="translate(100.578828, 17.513066)"><path style="stroke:none" d="M 3.078125 0.125 C 2.546875 0.125 2.070312 0.015625 1.65625 -0.203125 C 1.25 -0.429688 0.929688 -0.742188 0.703125 -1.140625 C 0.484375 -1.546875 0.375 -1.992188 0.375 -2.484375 C 0.375 -2.972656 0.488281 -3.421875 0.71875 -3.828125 C 0.957031 -4.242188 1.285156 -4.570312 1.703125 -4.8125 C 2.117188 -5.050781 2.59375 -5.171875 3.125 -5.171875 C 3.601562 -5.171875 4.035156 -5.082031 4.421875 -4.90625 C 4.804688 -4.726562 5.109375 -4.492188 5.328125 -4.203125 L 4.40625 -3.4375 C 4.226562 -3.613281 4.035156 -3.742188 3.828125 -3.828125 C 3.628906 -3.921875 3.394531 -3.96875 3.125 -3.96875 C 2.832031 -3.96875 2.570312 -3.898438 2.34375 -3.765625 C 2.125 -3.640625 1.953125 -3.460938 1.828125 -3.234375 C 1.710938 -3.015625 1.65625 -2.765625 1.65625 -2.484375 C 1.65625 -2.222656 1.710938 -1.984375 1.828125 -1.765625 C 1.941406 -1.546875 2.109375 -1.375 2.328125 -1.25 C 2.546875 -1.125 2.796875 -1.0625 3.078125 -1.0625 C 3.347656 -1.0625 3.59375 -1.109375 3.8125 -1.203125 C 4.03125 -1.296875 4.226562 -1.429688 4.40625 -1.609375 L 5.296875 -0.8125 C 5.054688 -0.519531 4.75 -0.289062 4.375 -0.125 C 4 0.0390625 3.566406 0.125 3.078125 0.125 Z M 3.078125 0.125 "/></g></g><g style="fill:#ffffff;fill-opacity:1;"><g transform="translate(106.051968, 17.513066)"><path style="stroke:none" d="M 3.03125 0.125 C 2.53125 0.125 2.078125 0.0078125 1.671875 -0.21875 C 1.273438 -0.457031 0.957031 -0.78125 0.71875 -1.1875 C 0.488281 -1.59375 0.375 -2.035156 0.375 -2.515625 C 0.375 -3.003906 0.492188 -3.453125 0.734375 -3.859375 C 0.972656 -4.265625 1.296875 -4.582031 1.703125 -4.8125 C 2.109375 -5.050781 2.550781 -5.171875 3.03125 -5.171875 C 3.5 -5.171875 3.9375 -5.050781 4.34375 -4.8125 C 4.75 -4.582031 5.070312 -4.265625 5.3125 -3.859375 C 5.550781 -3.453125 5.671875 -3.003906 5.671875 -2.515625 C 5.671875 -2.035156 5.554688 -1.59375 5.328125 -1.1875 C 5.097656 -0.78125 4.78125 -0.457031 4.375 -0.21875 C 3.96875 0.0078125 3.519531 0.125 3.03125 0.125 Z M 3.03125 -1.0625 C 3.28125 -1.0625 3.507812 -1.117188 3.71875 -1.234375 C 3.9375 -1.359375 4.101562 -1.53125 4.21875 -1.75 C 4.34375 -1.976562 4.40625 -2.234375 4.40625 -2.515625 C 4.40625 -2.796875 4.34375 -3.046875 4.21875 -3.265625 C 4.101562 -3.492188 3.941406 -3.664062 3.734375 -3.78125 C 3.523438 -3.90625 3.289062 -3.96875 3.03125 -3.96875 C 2.757812 -3.96875 2.519531 -3.90625 2.3125 -3.78125 C 2.101562 -3.664062 1.941406 -3.492188 1.828125 -3.265625 C 1.710938 -3.046875 1.65625 -2.796875 1.65625 -2.515625 C 1.65625 -2.234375 1.710938 -1.976562 1.828125 -1.75 C 1.953125 -1.53125 2.117188 -1.359375 2.328125 -1.234375 C 2.535156 -1.117188 2.769531 -1.0625 3.03125 -1.0625 Z M 3.03125 -1.0625 "/></g></g><g style="fill:#ffffff;fill-opacity:1;"><g transform="translate(112.093563, 17.513066)"><path style="stroke:none" d="M 1.890625 -5.03125 L 1.890625 -4.453125 C 2.109375 -4.691406 2.351562 -4.867188 2.625 -4.984375 C 2.894531 -5.109375 3.175781 -5.171875 3.46875 -5.171875 C 3.789062 -5.171875 4.078125 -5.09375 4.328125 -4.9375 C 4.585938 -4.789062 4.789062 -4.566406 4.9375 -4.265625 C 5.1875 -4.578125 5.4375 -4.804688 5.6875 -4.953125 C 5.945312 -5.097656 6.257812 -5.171875 6.625 -5.171875 C 7.1875 -5.171875 7.613281 -5 7.90625 -4.65625 C 8.195312 -4.320312 8.34375 -3.859375 8.34375 -3.265625 L 8.34375 0 L 7.078125 0 L 7.078125 -2.78125 C 7.078125 -3.601562 6.789062 -4.015625 6.21875 -4.015625 C 5.894531 -4.015625 5.628906 -3.882812 5.421875 -3.625 C 5.222656 -3.363281 5.125 -2.984375 5.125 -2.484375 L 5.125 0 L 3.875 0 L 3.875 -2.4375 C 3.875 -2.957031 3.804688 -3.347656 3.671875 -3.609375 C 3.546875 -3.878906 3.316406 -4.015625 2.984375 -4.015625 C 2.765625 -4.015625 2.570312 -3.953125 2.40625 -3.828125 C 2.25 -3.710938 2.125 -3.539062 2.03125 -3.3125 C 1.9375 -3.082031 1.890625 -2.800781 1.890625 -2.46875 L 1.890625 0 L 0.640625 0 L 0.640625 -5.03125 Z M 1.890625 -5.03125 "/></g></g></g></svg>